<svg xmlns="http://www.w3.org/2000/svg" viewBox="0 0 500 500"><g id="freepik--Floor--inject-20"><ellipse id="freepik--floor--inject-20" cx="250" cy="352.01" rx="231.78" ry="133.81" style="fill:#f5f5f5"></ellipse></g><g id="freepik--Shadows--inject-20"><path id="freepik--Shadow--inject-20" d="M332.82,326.37l-51.15-29.55a1.32,1.32,0,0,1,0-2.5l42.73-24.71a4.79,4.79,0,0,1,4.33,0l51.15,29.54a1.33,1.33,0,0,1,0,2.51l-42.73,24.7A4.76,4.76,0,0,1,332.82,326.37Z" style="fill:#e6e6e6"></path><path id="freepik--shadow--inject-20" d="M217.09,227.28c-9.51,5.52-9.51,14.47,0,20s24.93,5.51,34.44,0,9.51-14.47,0-20S226.6,221.76,217.09,227.28Z" style="fill:#e6e6e6"></path><path id="freepik--shadow--inject-20" d="M207.09,449.53l-124.67-72c-2.4-1.38-2.4-3.62,0-5l80.22-46.32a9.57,9.57,0,0,1,8.66,0l124.68,72c2.39,1.38,2.39,3.62,0,5l-80.23,46.32A9.57,9.57,0,0,1,207.09,449.53Z" style="fill:#e6e6e6"></path><path id="freepik--shadow--inject-20" d="M34.35,397.79c-24,13.87-24,36.35,0,50.21s63,13.87,87,0,24-36.34,0-50.21S58.36,383.93,34.35,397.79Z" style="fill:#e6e6e6"></path><path id="freepik--shadow--inject-20" d="M363.63,394.17c-24,13.87-24,36.35,0,50.21s62.95,13.87,87,0,24-36.34,0-50.21S387.65,380.31,363.63,394.17Z" style="fill:#e6e6e6"></path></g><g id="freepik--Diplomas--inject-20"><g id="freepik--Diploma--inject-20"><g id="freepik--Window--inject-20"><polygon points="174.3 71.95 175.65 72.73 209.22 53.34 207.88 52.57 174.3 71.95" style="fill:#f0f0f0"></polygon><polygon points="207.88 52.57 175.65 71.18 175.65 43.24 207.88 24.63 207.88 52.57" style="fill:#fafafa"></polygon><path d="M210.57,21.52,174.3,42.46v32.6l36.27-20.94Zm-1.34,31.82L175.65,72.73V43.24l33.58-19.39Z" style="fill:#ebebeb"></path><polygon points="209.22 53.34 207.88 52.57 207.88 24.63 209.22 23.85 209.22 53.34" style="fill:#e0e0e0"></polygon><polygon points="210.57 21.52 209.23 20.75 172.96 41.69 174.3 42.46 210.57 21.52" style="fill:#f5f5f5"></polygon><polygon points="172.96 41.69 174.3 42.46 174.3 75.06 172.96 74.28 172.96 41.69" style="fill:#e0e0e0"></polygon></g><path d="M201.56,47.87c1.25-.72,2.27-.14,2.27,1.31a5,5,0,0,1-2.27,3.93c-1.25.72-2.27.13-2.27-1.31A5,5,0,0,1,201.56,47.87Z" style="fill:#e0e0e0"></path><path d="M183.24,42l17.07-9.87c.47-.27.86-.05.86.5v0a1.92,1.92,0,0,1-.86,1.49L183.24,44c-.48.27-.86.05-.86-.5v-.06A1.88,1.88,0,0,1,183.24,42Z" style="fill:#e0e0e0"></path><path d="M180.54,49.73l22.46-13c.48-.27.86-.15.86.28a1.71,1.71,0,0,1-.85,1.27l-22.49,13c-.48.28-.86.15-.85-.28A1.74,1.74,0,0,1,180.54,49.73Z" style="fill:#f0f0f0"></path><path d="M180.54,52.83l22.46-13c.48-.27.86-.15.86.28a1.71,1.71,0,0,1-.85,1.27l-22.49,13c-.48.28-.86.15-.85-.28A1.74,1.74,0,0,1,180.54,52.83Z" style="fill:#f0f0f0"></path><path d="M180.54,55.93,203,43c.48-.28.86-.15.86.28a1.71,1.71,0,0,1-.85,1.27l-22.49,13c-.48.28-.86.15-.85-.28A1.74,1.74,0,0,1,180.54,55.93Z" style="fill:#f0f0f0"></path><path d="M197.53,54.5a1.23,1.23,0,0,1-.56.15c-.48,0-.44-.49-.43-.83,0-.15-.2-.38-.31-.18-.29.52-.66,1-1,1.52-.19.32-.55,1-1,.92-.2,0-.26-.24-.26-.5a2.52,2.52,0,0,0,.3-1.4c0-.15-.26-.33-.34-.13a4.25,4.25,0,0,0-.29,1.29,7.56,7.56,0,0,1-.73,1.08,7.26,7.26,0,0,1-.46.63c0,.05-.12.17-.19.18s-.14-.07-.16-.17a1,1,0,0,1,.07-.46h0a.08.08,0,0,0,0,0h0c0-.15-.2-.37-.28-.18a6.72,6.72,0,0,1-1.32,2.19.27.27,0,0,1-.08.07c0-.08,0-.18,0-.26a2.59,2.59,0,0,0-.1-.62c0-.09-.21-.24-.3-.11a10.55,10.55,0,0,1-1.5,2.06,2,2,0,0,1-.31.22c-.1-.06.05-.6.07-.68.07-.25.15-.49.23-.72a3,3,0,0,0,.18-.6c0-.18-.29-.47-.35-.22,0,.1-.11.35-.21.65a14.82,14.82,0,0,1-1.26,2.14,5,5,0,0,1-1.75,1.69c-.2.1-.58.26-.8.1s-.19-.43-.2-.63a5.53,5.53,0,0,1,.21-1.56,9.55,9.55,0,0,0,2-1.37,6.69,6.69,0,0,0,1.47-1.63c.2-.36.32-1-.16-1.16a1.33,1.33,0,0,0-1,.25,4.58,4.58,0,0,0-1.07.83,6.13,6.13,0,0,0-1.34,2.45c-.05.14-.1.33-.16.54a4.18,4.18,0,0,1-2.47.41c-.05,0-.07.1,0,.11a4.1,4.1,0,0,0,2.42-.23c-.22.94-.34,2.18.54,2.42s1.93-.85,2.4-1.48a10.71,10.71,0,0,0,.94-1.52.76.76,0,0,1,.08-.11c0,.43.08.75.51.68s.83-.69,1.07-1,.42-.64.63-1c0,.4.11.84.49.77s.68-.73.86-1a6.31,6.31,0,0,0,.42-.71.38.38,0,0,0,.09.13c.31.34.68,0,.88-.29s.61-.77.88-1.19a.73.73,0,0,0,.37.42c.48.22.93-.17,1.21-.53a10.67,10.67,0,0,0,.9-1.45.68.68,0,0,0,.33.46,1.12,1.12,0,0,0,1.13-.07C197.83,54.74,197.68,54.42,197.53,54.5ZM187,56.38c.23-.11.69-.3.71.07a1.21,1.21,0,0,1-.3.66,8.21,8.21,0,0,1-1.31,1.39,10.85,10.85,0,0,1-1.63,1.25A5.26,5.26,0,0,1,187,56.38Z" style="fill:#e0e0e0"></path></g><g id="freepik--diploma--inject-20"><g id="freepik--window--inject-20"><polygon points="174.3 117.5 175.65 118.28 209.22 98.89 207.88 98.11 174.3 117.5" style="fill:#f0f0f0"></polygon><polygon points="207.88 98.11 175.65 116.73 175.65 88.78 207.88 70.17 207.88 98.11" style="fill:#fafafa"></polygon><path d="M210.57,67.07,174.3,88V120.6l36.27-20.93Zm-1.34,31.82-33.58,19.39V88.79L209.23,69.4Z" style="fill:#ebebeb"></path><polygon points="209.22 98.89 207.88 98.11 207.88 70.17 209.22 69.4 209.22 98.89" style="fill:#e0e0e0"></polygon><polygon points="210.57 67.07 209.23 66.3 172.96 87.23 174.3 88.01 210.57 67.07" style="fill:#f5f5f5"></polygon><polygon points="172.96 87.23 174.3 88.01 174.3 120.6 172.96 119.83 172.96 87.23" style="fill:#e0e0e0"></polygon></g><path d="M201.56,93.42c1.25-.73,2.27-.14,2.27,1.31a5,5,0,0,1-2.27,3.92c-1.25.73-2.27.14-2.27-1.31A5,5,0,0,1,201.56,93.42Z" style="fill:#e0e0e0"></path><path d="M183.24,87.51l17.07-9.86c.47-.28.86-.05.86.5v0a1.91,1.91,0,0,1-.86,1.49l-17.07,9.88c-.48.27-.86,0-.86-.5V89A1.89,1.89,0,0,1,183.24,87.51Z" style="fill:#e0e0e0"></path><path d="M180.54,95.28l22.46-13c.48-.28.86-.15.86.28a1.71,1.71,0,0,1-.85,1.27l-22.49,13c-.48.28-.86.15-.85-.28A1.74,1.74,0,0,1,180.54,95.28Z" style="fill:#f0f0f0"></path><path d="M180.54,98.38l22.46-13c.48-.28.86-.15.86.28A1.71,1.71,0,0,1,203,87l-22.49,13c-.48.27-.86.15-.85-.28A1.72,1.72,0,0,1,180.54,98.38Z" style="fill:#f0f0f0"></path><path d="M180.54,101.48l22.46-13c.48-.28.86-.15.86.28a1.74,1.74,0,0,1-.85,1.27l-22.49,13c-.48.27-.86.15-.85-.28A1.71,1.71,0,0,1,180.54,101.48Z" style="fill:#f0f0f0"></path><path d="M197.53,100.05a1.37,1.37,0,0,1-.56.15c-.48,0-.44-.49-.43-.83,0-.15-.2-.38-.31-.18-.29.52-.66,1-1,1.52-.19.31-.55,1-1,.92-.2,0-.26-.25-.26-.51a2.49,2.49,0,0,0,.3-1.4c0-.14-.26-.32-.34-.12a4.25,4.25,0,0,0-.29,1.29,7.56,7.56,0,0,1-.73,1.08c-.15.2-.29.44-.46.63s-.12.17-.19.18-.14-.07-.16-.17a1.1,1.1,0,0,1,.07-.47h0a0,0,0,0,0,0,0h0c0-.15-.2-.38-.28-.19a6.76,6.76,0,0,1-1.32,2.2.27.27,0,0,1-.08.07c0-.09,0-.18,0-.27a2.59,2.59,0,0,0-.1-.61c0-.1-.21-.25-.3-.12a10.62,10.62,0,0,1-1.5,2.07,2,2,0,0,1-.31.22c-.1-.06.05-.6.07-.69s.15-.48.23-.72a2.88,2.88,0,0,0,.18-.59c0-.19-.29-.47-.35-.22,0,.1-.11.35-.21.65a14.72,14.72,0,0,1-1.26,2.13,4.81,4.81,0,0,1-1.75,1.69c-.2.11-.58.27-.8.11s-.19-.43-.2-.64a5.47,5.47,0,0,1,.21-1.55,9.22,9.22,0,0,0,2-1.38,6.35,6.35,0,0,0,1.47-1.63c.2-.36.32-.95-.16-1.16s-.77.1-1,.26a4.33,4.33,0,0,0-1.07.83,6,6,0,0,0-1.34,2.45c-.05.14-.1.32-.16.53a4.18,4.18,0,0,1-2.47.42c-.05,0-.07.09,0,.1a4,4,0,0,0,2.42-.23c-.22.94-.34,2.18.54,2.43s1.93-.86,2.4-1.49a10.07,10.07,0,0,0,.94-1.51.44.44,0,0,1,.08-.11c0,.43.08.75.51.68s.83-.69,1.07-1,.42-.64.63-1c0,.39.11.84.49.76s.68-.72.86-1a6.17,6.17,0,0,0,.42-.7.38.38,0,0,0,.09.13c.31.33.68,0,.88-.29s.61-.77.88-1.19a.73.73,0,0,0,.37.42c.48.22.93-.18,1.21-.53a11.33,11.33,0,0,0,.9-1.45.72.72,0,0,0,.33.46,1.1,1.1,0,0,0,1.13-.08C197.83,100.29,197.68,100,197.53,100.05ZM187,101.93c.23-.12.69-.31.71.07a1.21,1.21,0,0,1-.3.66,8.21,8.21,0,0,1-1.31,1.39,10.17,10.17,0,0,1-1.63,1.24A5.27,5.27,0,0,1,187,101.93Z" style="fill:#e0e0e0"></path></g></g><g id="freepik--Board--inject-20"><g id="freepik--board--inject-20"><g id="freepik--board--inject-20"><path d="M153.08,19.49,154,20V135.69c0,3-1.83,6.52-4.09,7.82L24.34,216a2.67,2.67,0,0,1-2.55.28c-.2-.1-.9-.52-1.06-.61-.86-.5-1.4-1.66-1.4-3.3V96.71Z" style="fill:#e0e0e0"></path><path d="M24.34,216l125.57-72.49c2.26-1.3,4.09-4.8,4.09-7.82V20L20.25,97.25V212.91C20.25,215.92,22.09,217.3,24.34,216Z" style="fill:#fafafa"></path><path d="M153,21.76V135.69c0,2.65-1.64,5.83-3.59,6.95L23.84,215.13a2.25,2.25,0,0,1-1.12.36c-1.08,0-1.47-1.39-1.47-2.58V97.83L153,21.76M154,20,20.25,97.25V212.91c0,2.24,1,3.58,2.47,3.58a3.27,3.27,0,0,0,1.62-.49l125.57-72.49c2.26-1.3,4.09-4.8,4.09-7.82V20Z" style="fill:#e0e0e0"></path></g><g id="freepik--Tube--inject-20"><path d="M19.59,101.2l-3.12-5.43,136.88-79h0a1.52,1.52,0,0,1,1.6.12,4.88,4.88,0,0,1,2.22,3.84,1.58,1.58,0,0,1-.61,1.39h0l0,0h0Z" style="fill:#f0f0f0"></path><path d="M20.25,99.76A4.88,4.88,0,0,0,18,95.93c-1.22-.71-2.21-.14-2.21,1.27A4.9,4.9,0,0,0,18,101C19.26,101.74,20.25,101.17,20.25,99.76Z" style="fill:#e0e0e0"></path></g><path d="M123.26,101.27a.5.5,0,0,1-.25-.93l16.28-9.4a.49.49,0,0,1,.68.18.51.51,0,0,1-.18.69l-16.28,9.4A.57.57,0,0,1,123.26,101.27Z" style="fill:#e0e0e0"></path><path d="M123.26,105.87a.5.5,0,0,1-.25-.93l16.28-9.4a.49.49,0,0,1,.68.18.51.51,0,0,1-.18.69l-16.28,9.4A.57.57,0,0,1,123.26,105.87Z" style="fill:#e0e0e0"></path><path d="M123.26,110.47a.5.5,0,0,1-.25-.93l16.28-9.4a.5.5,0,1,1,.5.86l-16.28,9.41A.57.57,0,0,1,123.26,110.47Z" style="fill:#e0e0e0"></path><path d="M123.26,115.07a.5.5,0,0,1-.33-.12L108.42,102.4a.49.49,0,0,1,0-.7.51.51,0,0,1,.71,0L123.32,114l16-9.22a.5.5,0,0,1,.5.86L123.51,115A.47.47,0,0,1,123.26,115.07Z" style="fill:#e0e0e0"></path><path d="M115.71,139.29a.52.52,0,0,1-.44-.25.52.52,0,0,1,.19-.69l16.28-9.4a.5.5,0,0,1,.5.87L116,139.22A.47.47,0,0,1,115.71,139.29Z" style="fill:#e0e0e0"></path><path d="M115.71,143.89a.52.52,0,0,1-.44-.25.52.52,0,0,1,.19-.69l16.28-9.4a.5.5,0,0,1,.5.87L116,143.82A.47.47,0,0,1,115.71,143.89Z" style="fill:#e0e0e0"></path><path d="M115.71,148.49a.52.52,0,0,1-.44-.25.52.52,0,0,1,.19-.69l16.28-9.4a.5.5,0,0,1,.5.87L116,148.42A.59.59,0,0,1,115.71,148.49Z" style="fill:#e0e0e0"></path><path d="M115.71,153.09a.51.51,0,0,1-.33-.13l-14.51-12.54a.5.5,0,1,1,.66-.76L115.76,152l16-9.22a.5.5,0,0,1,.5.87L116,153A.59.59,0,0,1,115.71,153.09Z" style="fill:#e0e0e0"></path><path d="M64.82,160.12a2.36,2.36,0,0,0,.43-.74c.14-.4,0-.61-.18-.48l-16.29,9.4a2.16,2.16,0,0,0-.68,1c-.14.39-.06.61.18.47l16.29-9.4A1.64,1.64,0,0,0,64.82,160.12Z" style="fill:#e0e0e0"></path><path d="M64.82,164.72a2.3,2.3,0,0,0,.43-.75c.14-.39,0-.61-.18-.47l-16.29,9.4a2.12,2.12,0,0,0-.68,1c-.14.4-.06.61.18.48L64.57,165A1.64,1.64,0,0,0,64.82,164.72Z" style="fill:#e0e0e0"></path><path d="M64.82,169.32a2.41,2.41,0,0,0,.43-.75c.14-.4,0-.61-.18-.47l-16.29,9.4a2.17,2.17,0,0,0-.68,1c-.14.4-.06.61.18.48l16.29-9.41A1.15,1.15,0,0,0,64.82,169.32Z" style="fill:#e0e0e0"></path><path d="M65.32,173.69a2.69,2.69,0,0,0,.32-.5l10.79-21.73c.12-.28.24-.6-.09-.82s-.61.16-.75.43L64.76,172.88l-16,9.22a2.12,2.12,0,0,0-.68,1c-.14.4-.06.61.18.47l16.29-9.4A6.19,6.19,0,0,0,65.32,173.69Z" style="fill:#e0e0e0"></path><path d="M47.21,140.58a2.65,2.65,0,0,0,.44-.75c.13-.4.05-.61-.19-.47l-16.28,9.4a2,2,0,0,0-.68,1c-.14.4-.06.61.18.47L47,140.8A.82.82,0,0,0,47.21,140.58Z" style="fill:#e0e0e0"></path><path d="M47.21,145.18a2.65,2.65,0,0,0,.44-.75c.13-.4.05-.61-.19-.47l-16.28,9.4a2,2,0,0,0-.68,1c-.14.4-.06.61.18.47L47,145.4A.82.82,0,0,0,47.21,145.18Z" style="fill:#e0e0e0"></path><path d="M47.21,149.78a2.65,2.65,0,0,0,.44-.75c.13-.4.05-.61-.19-.47L31.18,158a2,2,0,0,0-.68,1c-.14.4-.06.61.18.47L47,150A.82.82,0,0,0,47.21,149.78Z" style="fill:#e0e0e0"></path><path d="M47.71,154.15a2.55,2.55,0,0,0,.33-.5l10.79-21.74c.12-.28.23-.6-.09-.81s-.61.16-.76.42L47.16,153.33l-16,9.23a2,2,0,0,0-.68,1c-.14.4-.06.61.18.47L47,154.6A6,6,0,0,0,47.71,154.15Z" style="fill:#e0e0e0"></path><g id="freepik--Uterus--inject-20"><path d="M114.45,82c-1.32,2.19-1.68,4.24-4.11,4.63a19.41,19.41,0,0,1-6,.08c-.71-.22-.29-2.79-.29-2.79s-2.22,5.27-1.35,8.44c.65-1.93,1.07-2.84,2.61-3.55s4.69-1.37,5.64-.25,1.8,4.79,5.71,2.91Z" style="fill:#BA68C8"></path><path d="M114.45,82c-1.32,2.19-1.68,4.24-4.11,4.63a19.41,19.41,0,0,1-6,.08c-.71-.22-.29-2.79-.29-2.79s-2.22,5.27-1.35,8.44c.65-1.93,1.07-2.84,2.61-3.55s4.69-1.37,5.64-.25,1.8,4.79,5.71,2.91Z" style="fill:#fff;opacity:0.6000000000000001"></path><path d="M61.09,112.77c1.32.68,1.68,2.31,4.11-.11a67.51,67.51,0,0,0,6-6.87c.71-1,.29-3.12.29-3.12a8.57,8.57,0,0,1,1.35,6.88c-.65-1.18-1.06-1.61-2.61-.54s-4.69,4-5.64,6.26-1.8,6.87-5.71,9.5Z" style="fill:#BA68C8"></path><path d="M61.09,112.77c1.32.68,1.68,2.31,4.11-.11a67.51,67.51,0,0,0,6-6.87c.71-1,.29-3.12.29-3.12a8.57,8.57,0,0,1,1.35,6.88c-.65-1.18-1.06-1.61-2.61-.54s-4.69,4-5.64,6.26-1.8,6.87-5.71,9.5Z" style="fill:#fff;opacity:0.6000000000000001"></path><path d="M82.68,175c1-10.54-1.6-15.76-2.55-23.43s-.48-12.87,1-20.67-2.64-7-6-14.87-2.55-12.11-4.59-16.61S58,98,53.51,95.54s-10.24-1.9-12.78,1.56a9,9,0,0,0,2,13c4.45,3.2,9.37-3.41,12.23-2.53-2.9,2.1-1.78,4-1.78,4S47.93,124.23,47,125.42,47,130,47,130s-11.32-11-11.32-23.9S45.68,88.91,51.33,91s9.22,3.3,16.07,1.11,9.39-15.27,20.37-21.61,13.52,3.81,20.37-1.92,10.43-11.08,16.08-19.67,15.62-15.86,15.62-3-11.32,37-11.32,37,.9-4.38,0-4.53-6.17-6.79-6.17-6.79,1.11-3.17-1.79-1.92c2.86-4.19,7.78-3.26,12.23-11.59s5.09-14.67,2-15.3c-2.55-.52-8.29,5.56-12.79,13.21s-14.89,16.59-16.94,23.45-1.17,10.11-4.59,21.91-7.48,15.71-6,21.85,1.9,10.81,1,19.57-3.56,17-2.55,26.37C89.57,168.47,86.18,170.22,82.68,175Z" style="fill:#BA68C8"></path><path d="M82.68,175c1-10.54-1.6-15.76-2.55-23.43s-.48-12.87,1-20.67-2.64-7-6-14.87-2.55-12.11-4.59-16.61S58,98,53.51,95.54s-10.24-1.9-12.78,1.56a9,9,0,0,0,2,13c4.45,3.2,9.37-3.41,12.23-2.53-2.9,2.1-1.78,4-1.78,4S47.93,124.23,47,125.42,47,130,47,130s-11.32-11-11.32-23.9S45.68,88.91,51.33,91s9.22,3.3,16.07,1.11,9.39-15.27,20.37-21.61,13.52,3.81,20.37-1.92,10.43-11.08,16.08-19.67,15.62-15.86,15.62-3-11.32,37-11.32,37,.9-4.38,0-4.53-6.17-6.79-6.17-6.79,1.11-3.17-1.79-1.92c2.86-4.19,7.78-3.26,12.23-11.59s5.09-14.67,2-15.3c-2.55-.52-8.29,5.56-12.79,13.21s-14.89,16.59-16.94,23.45-1.17,10.11-4.59,21.91-7.48,15.71-6,21.85,1.9,10.81,1,19.57-3.56,17-2.55,26.37C89.57,168.47,86.18,170.22,82.68,175Z" style="fill:#fff;opacity:0.8"></path><g style="opacity:0.30000000000000004"><path d="M67.4,94.4c-7.28.81-11.58-.19-17.83-2.14s-11,2.64-12.51,8.81c-1.11,4.4.28,12.16,3.67,16.67s6.3,5.42,6.3,5.42l3.45-9.81s-4.09,2.36-7.35.22-5.91-6.51-5-12.45,6.36-9.34,11.43-7.87S58.93,95.86,67.4,94.4Z" style="fill:#BA68C8"></path><path d="M108.14,70.87c7.28-7.59,11.58-13.56,17.83-22.72s10.95-10,12.51-5.64c1.11,3.13-.28,12.48-3.66,20.91a73.06,73.06,0,0,1-6.3,12.69l-3.46-5.82A22.43,22.43,0,0,0,132.42,62c3.26-5.91,5.9-13.33,5-18.2s-6.36-2-11.43,5.32S116.61,62.56,108.14,70.87Z" style="fill:#BA68C8"></path><path d="M87.77,88.32c-4.08,2.35-15.43,6.29-20.37,6.08,4,.13,8.58.91,10.74,3.4s2.37,8,4,10.11,5.47,3.29,5.64,9.83c.17-6.74,4-12.32,5.64-16.35s1.82-9.72,4-14.71,6.75-11.06,10.74-15.81C103.21,76.79,91.85,86,87.77,88.32Z" style="fill:#BA68C8"></path><path d="M87.77,170.07a7.5,7.5,0,0,1,3.62-1c0-17.28.78-24.44,2.13-27.26s1.78-4.68,1.28-5.09-2.77,4.16-4.48,4.51-2.55-.8-2.55-3.06a8.12,8.12,0,0,1-2.55,6c-1.7,1.62-4-.31-4.48.67s-.07,2.35,1.28,3.61,2.14,7.51,2.14,24.8a14.9,14.9,0,0,1,3.61-3.13" style="fill:#BA68C8"></path><path d="M87.77,117.74c.25,3.26.3,6.62.31,10s-.06,6.83-.31,10.37c-.25-3.26-.3-6.62-.31-10S87.52,121.28,87.77,117.74Z" style="fill:#BA68C8"></path></g><path d="M62.3,118.32c-.77,4.67-4.86,9-9.13,9.57s-7.11-2.66-6.34-7.33,4.86-9,9.13-9.57S63.07,113.66,62.3,118.32Z" style="fill:#ebebeb"></path><ellipse cx="120.98" cy="81.1" rx="11.86" ry="5.38" transform="translate(-12.76 138.78) rotate(-57.17)" style="fill:#ebebeb"></ellipse></g></g></g><g id="freepik--Curtain--inject-20"><g id="freepik--Curtains--inject-20"><path d="M415,51.46v258.6l-12.4-7.15V60.26c0-1,1.86-2.73,4.77-4.41Z" style="fill:#e0e0e0"></path><path d="M427.66,317.35l-25-14.44V60.26a.57.57,0,0,0,.31.52c1.12.64,4.94-.51,8.52-2.58L418.8,54c3.59-2.07,7.41-3.22,8.53-2.57a.6.6,0,0,1,.33.55Z" style="fill:#BA68C8"></path><path d="M427.66,317.35l-25-14.44V60.26a.57.57,0,0,0,.31.52c1.12.64,4.94-.51,8.52-2.58L418.8,54c3.59-2.07,7.41-3.22,8.53-2.57a.6.6,0,0,1,.33.55Z" style="fill:#fff;opacity:0.6000000000000001"></path><path d="M407.21,60.2c-2,.7-3.58,1-4.25.58a.57.57,0,0,1-.31-.52V302.91l4.57,2.64Z" style="fill:#fff;opacity:0.30000000000000004"></path><path d="M427.33,51.4c-1.12-.65-4.94.5-8.53,2.57l-1.62.94V311.3l10.48,6.05V52A.6.6,0,0,0,427.33,51.4Z" style="opacity:0.1"></path><path d="M427.66,60.15a.62.62,0,0,0-.33-.55c-1.12-.64-4.94.51-8.53,2.58l-7.32,4.23c-3.58,2.07-7.4,3.22-8.52,2.57a.56.56,0,0,1-.31-.51V60.26a.57.57,0,0,0,.31.52c1.12.64,4.94-.51,8.52-2.58L418.8,54c3.59-2.07,7.41-3.22,8.53-2.57a.59.59,0,0,1,.33.54Z" style="fill:#f0f0f0"></path><path d="M423.27,56.09l-.11,0-7.62,4.4c-2.91,1.68-4.77,3.45-4.77,4.41V307.6l4.57,2.63h0l12.33,7.12V52C427.72,52.88,426,54.51,423.27,56.09Z" style="fill:#e0e0e0"></path><path d="M435.78,322l-25-14.44V65a.57.57,0,0,0,.31.52c1.12.64,4.94-.51,8.52-2.58l7.32-4.23c3.59-2.07,7.41-3.22,8.53-2.57a.6.6,0,0,1,.33.55Z" style="fill:#BA68C8"></path><path d="M435.78,322l-25-14.44V65a.57.57,0,0,0,.31.52c1.12.64,4.94-.51,8.52-2.58l7.32-4.23c3.59-2.07,7.41-3.22,8.53-2.57a.6.6,0,0,1,.33.55Z" style="fill:#fff;opacity:0.6000000000000001"></path><path d="M415.33,64.89c-2,.7-3.59,1-4.25.58a.57.57,0,0,1-.31-.52V307.6l4.57,2.63Z" style="fill:#fff;opacity:0.30000000000000004"></path><path d="M435.45,56.09c-1.12-.65-4.94.5-8.53,2.57l-1.63.94V316L435.78,322V56.64A.6.6,0,0,0,435.45,56.09Z" style="opacity:0.1"></path><path d="M435.78,64.84a.62.62,0,0,0-.33-.55c-1.12-.65-4.94.51-8.53,2.58l-7.32,4.22c-3.59,2.07-7.4,3.23-8.53,2.58a.57.57,0,0,1-.31-.52V65a.56.56,0,0,0,.31.51c1.13.65,4.94-.5,8.53-2.57l7.32-4.23c3.59-2.07,7.41-3.23,8.53-2.58a.62.62,0,0,1,.33.55Z" style="fill:#f0f0f0"></path><path d="M431.43,60.8l-.11.05-7.62,4.4c-2.91,1.68-4.77,3.45-4.77,4.41V312.31l4.56,2.63h0l12.34,7.11V56.67C435.87,57.59,434.16,59.22,431.43,60.8Z" style="fill:#e0e0e0"></path><path d="M443.94,326.75l-25-14.44V69.66a.57.57,0,0,0,.31.52c1.12.64,4.94-.51,8.52-2.58l7.32-4.23c3.59-2.07,7.41-3.22,8.53-2.57a.6.6,0,0,1,.33.55Z" style="fill:#BA68C8"></path><path d="M443.94,326.75l-25-14.44V69.66a.57.57,0,0,0,.31.52c1.12.64,4.94-.51,8.52-2.58l7.32-4.23c3.59-2.07,7.41-3.22,8.53-2.57a.6.6,0,0,1,.33.55Z" style="fill:#fff;opacity:0.6000000000000001"></path><path d="M423.48,69.6c-2,.7-3.58,1-4.24.58a.57.57,0,0,1-.31-.52V312.31l4.56,2.64Z" style="fill:#fff;opacity:0.30000000000000004"></path><path d="M443.61,60.8c-1.12-.65-4.94.5-8.53,2.57l-1.63.94V320.7l10.49,6.05V61.35A.6.6,0,0,0,443.61,60.8Z" style="opacity:0.1"></path><path d="M443.94,69.55a.62.62,0,0,0-.33-.55c-1.13-.65-4.94.51-8.53,2.58l-7.32,4.22c-3.59,2.08-7.4,3.23-8.53,2.58a.57.57,0,0,1-.31-.52v-8.2a.56.56,0,0,0,.31.51c1.13.65,4.94-.5,8.53-2.57l7.32-4.23c3.59-2.07,7.4-3.22,8.53-2.58a.62.62,0,0,1,.33.55Z" style="fill:#f0f0f0"></path><path d="M439.59,65.51l-.12,0L431.86,70c-2.91,1.68-4.77,3.45-4.77,4.41V317l4.56,2.63h0L444,326.77V61.38C444,62.3,442.32,63.93,439.59,65.51Z" style="fill:#e0e0e0"></path><path d="M452.1,331.46l-25-14.44V74.37a.57.57,0,0,0,.31.52c1.12.64,4.94-.51,8.52-2.58l7.32-4.23c3.59-2.07,7.41-3.22,8.53-2.57a.6.6,0,0,1,.33.55Z" style="fill:#BA68C8"></path><path d="M452.1,331.46l-25-14.44V74.37a.57.57,0,0,0,.31.52c1.12.64,4.94-.51,8.52-2.58l7.32-4.23c3.59-2.07,7.41-3.22,8.53-2.57a.6.6,0,0,1,.33.55Z" style="fill:#fff;opacity:0.6000000000000001"></path><path d="M431.64,74.31c-1.95.7-3.58,1-4.24.58a.57.57,0,0,1-.31-.52V317l4.56,2.64Z" style="fill:#fff;opacity:0.30000000000000004"></path><path d="M451.77,65.51c-1.12-.65-4.94.5-8.53,2.57l-1.63.94V325.41l10.49,6V66.06A.6.6,0,0,0,451.77,65.51Z" style="opacity:0.1"></path><path d="M452.1,74.26a.62.62,0,0,0-.33-.55c-1.13-.65-4.94.51-8.53,2.58l-7.32,4.23c-3.59,2.07-7.41,3.22-8.53,2.57a.56.56,0,0,1-.31-.51V74.37a.56.56,0,0,0,.31.51c1.12.65,4.94-.5,8.53-2.57l7.32-4.23c3.59-2.07,7.4-3.22,8.53-2.58a.62.62,0,0,1,.33.55Z" style="fill:#f0f0f0"></path><path d="M447.75,70.22l-.12,0L440,74.67c-2.91,1.68-4.77,3.45-4.77,4.41V321.73l4.57,2.63h0l12.34,7.11V66.09C452.19,67,450.48,68.64,447.75,70.22Z" style="fill:#e0e0e0"></path><path d="M460.25,70.77v258.4c-.32.18-.65.36-1,.52l-.39.2c-.32.17-.64.32-1,.46-.62.28-1.23.53-1.81.74s-1.07.36-1.55.49a4,4,0,0,1-3-.43h0l-1.78-1-6.38-3.68-8.16-4.71V79.08a.57.57,0,0,0,.31.52c1.12.64,4.94-.51,8.52-2.58l5.7-3.29,1.62-.94c3.59-2.07,7.41-3.22,8.53-2.57A.6.6,0,0,1,460.25,70.77Z" style="fill:#BA68C8"></path><path d="M460.25,70.77v258.4c-.32.18-.65.36-1,.52l-.39.2c-.32.17-.64.32-1,.46-.62.28-1.23.53-1.81.74s-1.07.36-1.55.49a4,4,0,0,1-3-.43h0l-1.78-1-6.38-3.68-8.16-4.71V79.08a.57.57,0,0,0,.31.52c1.12.64,4.94-.51,8.52-2.58l5.7-3.29,1.62-.94c3.59-2.07,7.41-3.22,8.53-2.57A.6.6,0,0,1,460.25,70.77Z" style="fill:#fff;opacity:0.6000000000000001"></path><path d="M439.8,79c-2,.7-3.58,1-4.25.58a.57.57,0,0,1-.31-.52V321.73l4.57,2.64Z" style="fill:#fff;opacity:0.30000000000000004"></path><path d="M460.25,70.77v258.4c-.32.18-.65.36-1,.52l-.39.2c-.32.17-.64.32-1,.46-.62.28-1.23.53-1.81.74s-1.07.36-1.55.49a4,4,0,0,1-3-.43h0l-1.78-1V73.73l1.62-.94c3.59-2.07,7.41-3.22,8.53-2.57A.6.6,0,0,1,460.25,70.77Z" style="opacity:0.1"></path><path d="M460.26,79a.63.63,0,0,0-.34-.55c-1.12-.64-4.93.51-8.52,2.58l-7.32,4.23c-3.59,2.07-7.41,3.22-8.53,2.57a.56.56,0,0,1-.31-.51V79.08a.58.58,0,0,0,.31.52c1.12.64,4.94-.51,8.53-2.58l7.32-4.23c3.59-2.07,7.4-3.22,8.52-2.58a.63.63,0,0,1,.34.55Z" style="fill:#f0f0f0"></path><path d="M460.3,70.84v258.3l-.05,0c-.32.18-.65.36-1,.52l-.39.2c-.32.17-.64.32-1,.46-.62.28-1.23.53-1.81.74s-1.07.36-1.55.49a4,4,0,0,1-3-.43h0l-1.78-1-6.38-3.68V83.79c0-1,1.86-2.73,4.77-4.41l1.6-.92,6-3.48.11,0c2.45-1.41,4.07-2.86,4.35-3.81A1,1,0,0,0,460.3,70.84Z" style="fill:#e0e0e0"></path><path d="M468.41,75.48v249l-.7.39-1.62.94-5.7,3.29-.09.05-.05,0c-.32.18-.65.36-1,.52l-.39.2c-.32.17-.64.32-1,.46-.62.28-1.23.53-1.81.74s-1.07.36-1.55.49a4,4,0,0,1-3-.43h0l-1.78-1-6.38-3.68V83.79a.57.57,0,0,0,.31.52c.86.49,3.33-.08,6.06-1.32a27.29,27.29,0,0,0,2.46-1.26l5.7-3.29,1.62-.94.7-.39.05,0,.35-.18.51-.26c.55-.27,1.09-.52,1.61-.73l.48-.2.07,0c.27-.1.54-.2.8-.28l.21-.07.44-.14.66-.18.67-.15a3.25,3.25,0,0,1,2,.07A.6.6,0,0,1,468.41,75.48Z" style="fill:#BA68C8"></path><path d="M468.41,75.48v249l-.7.39-1.62.94-5.7,3.29-.09.05-.05,0c-.32.18-.65.36-1,.52l-.39.2c-.32.17-.64.32-1,.46-.62.28-1.23.53-1.81.74s-1.07.36-1.55.49a4,4,0,0,1-3-.43h0l-1.78-1-6.38-3.68V83.79a.57.57,0,0,0,.31.52c.86.49,3.33-.08,6.06-1.32a27.29,27.29,0,0,0,2.46-1.26l5.7-3.29,1.62-.94.7-.39.05,0,.35-.18.51-.26c.55-.27,1.09-.52,1.61-.73l.48-.2.07,0c.27-.1.54-.2.8-.28l.21-.07.44-.14.66-.18.67-.15a3.25,3.25,0,0,1,2,.07A.6.6,0,0,1,468.41,75.48Z" style="fill:#fff;opacity:0.6000000000000001"></path><path d="M448,83.73c-2,.7-3.58,1-4.25.58a.57.57,0,0,1-.31-.52V326.44l4.57,2.64Z" style="fill:#fff;opacity:0.30000000000000004"></path><path d="M468.41,75.48v249l-.7.39-1.62.94-5.7,3.29-.09.05-.05,0c-.32.18-.65.36-1,.52l-.39.2c-.32.17-.64.32-1,.46V78.44l1.62-.94.7-.39.05,0,.35-.18.51-.26c.55-.27,1.09-.52,1.61-.73l.48-.2.07,0c.27-.1.54-.2.8-.28l.21-.07.44-.14.66-.18.67-.15a3.25,3.25,0,0,1,2,.07A.6.6,0,0,1,468.41,75.48Z" style="opacity:0.1"></path><path d="M468.41,83.68a.6.6,0,0,0-.33-.55c-1.12-.64-4.94.51-8.52,2.58l-7.32,4.23c-3.59,2.07-7.41,3.22-8.53,2.57a.56.56,0,0,1-.31-.51V83.79a.58.58,0,0,0,.31.52c1.12.64,4.94-.51,8.53-2.58l7.32-4.23c3.58-2.07,7.4-3.22,8.52-2.57a.57.57,0,0,1,.33.54Z" style="fill:#f0f0f0"></path><path d="M468.45,75.56V324.45l-.74.41-1.62.94-5.7,3.29-.09.05-.05,0c-.32.18-.65.36-1,.52l-.39.2c-.32.17-.64.32-1,.46-.62.28-1.23.53-1.81.74s-1.07.36-1.55.49a4,4,0,0,1-3-.43h0V88.5c0-1,1.86-2.73,4.77-4.41l1.6-.92,2.32-1.34.05,0L464,79.7l.11-.06c2.46-1.42,4.1-2.88,4.35-3.83A.77.77,0,0,0,468.45,75.56Z" style="fill:#e0e0e0"></path><path d="M476.57,80.19V322.83a.6.6,0,0,0-.33-.54c-1.05-.61-4.43.35-7.79,2.16l-.74.41-1.62.94-5.7,3.29-.09.05-.05,0c-.32.18-.65.36-1,.52l-.39.2c-.32.17-.64.32-1,.46-.62.28-1.23.53-1.81.74s-1.07.36-1.55.49a4,4,0,0,1-3-.43h0V88.5a.57.57,0,0,0,.31.52,1.21,1.21,0,0,0,.38.13,2.76,2.76,0,0,0,.83,0,1.59,1.59,0,0,0,.36,0,7.49,7.49,0,0,0,1.18-.24c.32-.08.65-.17,1-.29l.35-.12.15,0c.58-.21,1.19-.46,1.81-.74s1.55-.74,2.32-1.18l.05,0,.09,0,5.7-3.29,1.62-.94.7-.39c3.4-1.83,6.79-2.79,7.83-2.18A.6.6,0,0,1,476.57,80.19Z" style="fill:#BA68C8"></path><path d="M476.57,80.19V322.83a.6.6,0,0,0-.33-.54c-1.05-.61-4.43.35-7.79,2.16l-.74.41-1.62.94-5.7,3.29-.09.05-.05,0c-.32.18-.65.36-1,.52l-.39.2c-.32.17-.64.32-1,.46-.62.28-1.23.53-1.81.74s-1.07.36-1.55.49a4,4,0,0,1-3-.43h0V88.5a.57.57,0,0,0,.31.52,1.21,1.21,0,0,0,.38.13,2.76,2.76,0,0,0,.83,0,1.59,1.59,0,0,0,.36,0,7.49,7.49,0,0,0,1.18-.24c.32-.08.65-.17,1-.29l.35-.12.15,0c.58-.21,1.19-.46,1.81-.74s1.55-.74,2.32-1.18l.05,0,.09,0,5.7-3.29,1.62-.94.7-.39c3.4-1.83,6.79-2.79,7.83-2.18A.6.6,0,0,1,476.57,80.19Z" style="fill:#fff;opacity:0.6000000000000001"></path><path d="M456.12,88.44V331.09c-.55.2-1.07.36-1.55.49a4,4,0,0,1-3-.43h0V88.5a.57.57,0,0,0,.31.52,1.21,1.21,0,0,0,.38.13,2.76,2.76,0,0,0,.83,0l.36,0a10.76,10.76,0,0,0,1.18-.24c.32-.08.65-.17,1-.29l.35-.12Z" style="fill:#fff;opacity:0.30000000000000004"></path><path d="M476.57,80.19V322.83a.6.6,0,0,0-.33-.54c-1.05-.61-4.43.35-7.79,2.16l0,0-.7.39-1.62.94V83.15l1.62-.94.7-.39,0,0c3.36-1.81,6.75-2.77,7.79-2.16A.6.6,0,0,1,476.57,80.19Z" style="fill:#BA68C8;opacity:0.2"></path><path d="M476.57,88.39a.6.6,0,0,0-.33-.55c-1.12-.64-4.94.51-8.52,2.58l-7.32,4.23c-3.59,2.07-7.41,3.22-8.53,2.58a.58.58,0,0,1-.31-.52V88.5a.57.57,0,0,0,.31.52c1.12.64,4.94-.51,8.53-2.58l7.32-4.23c3.58-2.07,7.4-3.22,8.52-2.57a.58.58,0,0,1,.33.54Z" style="fill:#f0f0f0"></path><path d="M370.2,18.88a3.19,3.19,0,0,0-3.2.31,10.06,10.06,0,0,0-4.55,7.88A3.19,3.19,0,0,0,363.76,30c.39.24,1.12.65,1.52.88a3.2,3.2,0,0,0,3.19-.33A10,10,0,0,0,373,22.66a3.13,3.13,0,0,0-1.38-2.95Z" style="fill:#e0e0e0"></path><path d="M363.92,27.92A10,10,0,0,1,368.47,20c2.51-1.45,4.55-.28,4.55,2.62a10,10,0,0,1-4.55,7.88C366,32,363.92,30.82,363.92,27.92Z" style="fill:#f0f0f0"></path><path d="M482.28,88.86,369.79,23.78a1,1,0,0,0-1,.09,3.1,3.1,0,0,0-1.4,2.42,1,1,0,0,0,.42.91L480.31,92.28a1,1,0,0,0,1-.09,3.1,3.1,0,0,0,1.4-2.42A1,1,0,0,0,482.28,88.86Z" style="fill:#f0f0f0"></path><path d="M367.82,27.2,480.31,92.28a1,1,0,0,0,1-.09,2.66,2.66,0,0,0,.71-.64L367.6,25.35a2.69,2.69,0,0,0-.2.94A1,1,0,0,0,367.82,27.2Z" style="fill:#e0e0e0"></path><path d="M484.05,84.74a3.19,3.19,0,0,0-3.2.31,10.05,10.05,0,0,0-4.55,7.88,3.2,3.2,0,0,0,1.3,2.92l1.52.88a3.2,3.2,0,0,0,3.19-.33,10,10,0,0,0,4.55-7.88,3.13,3.13,0,0,0-1.37-3Z" style="fill:#e0e0e0"></path><path d="M477.77,93.78a10,10,0,0,1,4.54-7.88c2.52-1.45,4.55-.28,4.55,2.62a10,10,0,0,1-4.55,7.88C479.8,97.85,477.77,96.68,477.77,93.78Z" style="fill:#f0f0f0"></path><path d="M410.13,55.78c.41-.24.74,0,.74.43a1.66,1.66,0,0,1-.74,1.29c-.41.23-.74,0-.74-.43A1.64,1.64,0,0,1,410.13,55.78Z" style="fill:#e0e0e0"></path><path d="M410.13,55.78c.41-.24.74,0,.74.43a1.66,1.66,0,0,1-.74,1.29c-.41.23-.74,0-.74-.43A1.64,1.64,0,0,1,410.13,55.78Z" style="opacity:0.1"></path><path d="M414.17,49.5l-.55-.32A1.84,1.84,0,0,0,411,47.66a4.53,4.53,0,0,0-.72.33,7.27,7.27,0,0,0-2.41,2.43,7.67,7.67,0,0,0-1.27,3.94,2.08,2.08,0,0,0,3.43,2,5.38,5.38,0,0,0,.75-.53.73.73,0,0,1,.1.56,5.69,5.69,0,0,1-.6.4,3.71,3.71,0,0,1-1.83.56,2.21,2.21,0,0,1-1.11-.29,2.9,2.9,0,0,1-1.24-2.68,8.13,8.13,0,0,1,1.35-4.19A7.67,7.67,0,0,1,410,47.56a4.37,4.37,0,0,1,.43-.22,2.44,2.44,0,0,1,3.73,2.16Z" style="fill:#fafafa"></path><path d="M414.19,58.12c.41-.24.75,0,.75.43a1.67,1.67,0,0,1-.75,1.29c-.41.23-.74,0-.74-.43A1.64,1.64,0,0,1,414.19,58.12Z" style="fill:#e0e0e0"></path><path d="M418.23,51.84l-.54-.31a2.08,2.08,0,0,0-.93-1.47A2,2,0,0,0,415,50a4.16,4.16,0,0,0-.72.33,7.27,7.27,0,0,0-2.41,2.43,7.67,7.67,0,0,0-1.27,3.94,2.47,2.47,0,0,0,1,2.25,2.44,2.44,0,0,0,2.44-.27,7.32,7.32,0,0,0,.76-.52.7.7,0,0,1,.1.55,5.81,5.81,0,0,1-.61.4,3.7,3.7,0,0,1-1.82.56,2.25,2.25,0,0,1-1.12-.29,2.9,2.9,0,0,1-1.24-2.68,8.1,8.1,0,0,1,1.35-4.18,7.8,7.8,0,0,1,2.58-2.62,2.84,2.84,0,0,1,.43-.21,2.43,2.43,0,0,1,3.73,2.15Z" style="fill:#fafafa"></path><path d="M418.26,60.46c.41-.24.74,0,.74.43a1.66,1.66,0,0,1-.74,1.29c-.42.24-.75,0-.75-.43A1.64,1.64,0,0,1,418.26,60.46Z" style="fill:#e0e0e0"></path><path d="M418.26,60.46c.41-.24.74,0,.74.43a1.66,1.66,0,0,1-.74,1.29c-.42.24-.75,0-.75-.43A1.64,1.64,0,0,1,418.26,60.46Z" style="opacity:0.1"></path><path d="M421.75,53.89h0a2.1,2.1,0,0,0-.93-1.48,2.06,2.06,0,0,0-1.73-.06,4.08,4.08,0,0,0-.71.33A7.34,7.34,0,0,0,416,55.1,7.67,7.67,0,0,0,414.71,59a2.45,2.45,0,0,0,1,2.25,2.42,2.42,0,0,0,2.43-.27,5.39,5.39,0,0,0,.76-.52.7.7,0,0,1,.1.55,4.56,4.56,0,0,1-.61.4,3.65,3.65,0,0,1-1.82.56,2.21,2.21,0,0,1-1.11-.29A2.9,2.9,0,0,1,414.21,59a8.18,8.18,0,0,1,1.34-4.18,7.8,7.8,0,0,1,2.58-2.62,4.11,4.11,0,0,1,.42-.21,2.43,2.43,0,0,1,3.74,2.16Z" style="fill:#fafafa"></path><path d="M422.32,62.8c.41-.23.74,0,.74.43a1.64,1.64,0,0,1-.74,1.29c-.41.24-.74,0-.74-.43A1.66,1.66,0,0,1,422.32,62.8Z" style="fill:#e0e0e0"></path><path d="M425.82,56.24h0a1.86,1.86,0,0,0-2.67-1.54,3.33,3.33,0,0,0-.7.32A7.46,7.46,0,0,0,420,57.44a7.67,7.67,0,0,0-1.27,3.94,2.08,2.08,0,0,0,3.43,2,5.3,5.3,0,0,0,.75-.52.7.7,0,0,1,.1.55,4.47,4.47,0,0,1-.6.4,3.71,3.71,0,0,1-1.83.56,2.21,2.21,0,0,1-1.11-.29,2.9,2.9,0,0,1-1.24-2.68,8.18,8.18,0,0,1,1.34-4.18,7.82,7.82,0,0,1,2.59-2.62,2.58,2.58,0,0,1,.41-.2,2.68,2.68,0,0,1,2.53-.07,2.73,2.73,0,0,1,1.22,2.24Z" style="fill:#fafafa"></path><path d="M426.38,65.14c.41-.23.75,0,.75.43a1.65,1.65,0,0,1-.75,1.29c-.41.24-.74,0-.74-.43A1.66,1.66,0,0,1,426.38,65.14Z" style="fill:#e0e0e0"></path><path d="M426.38,65.14c.41-.23.75,0,.75.43a1.65,1.65,0,0,1-.75,1.29c-.41.24-.74,0-.74-.43A1.66,1.66,0,0,1,426.38,65.14Z" style="opacity:0.1"></path><path d="M429.88,58.58h0a2.1,2.1,0,0,0-.93-1.48,2,2,0,0,0-1.74-.06,3.92,3.92,0,0,0-.7.32,7.4,7.4,0,0,0-2.41,2.44,7.61,7.61,0,0,0-1.27,3.93,2.47,2.47,0,0,0,1,2.25,2.44,2.44,0,0,0,2.44-.27,6,6,0,0,0,.76-.52.7.7,0,0,1,.1.55,5.91,5.91,0,0,1-.61.41,3.79,3.79,0,0,1-1.82.55,2.15,2.15,0,0,1-1.12-.29,2.9,2.9,0,0,1-1.24-2.68,8.18,8.18,0,0,1,1.34-4.18,7.92,7.92,0,0,1,2.59-2.62,2.49,2.49,0,0,1,.4-.2,2.7,2.7,0,0,1,2.54-.07,2.73,2.73,0,0,1,1.22,2.24Z" style="fill:#fafafa"></path><path d="M430.45,67.48c.41-.23.74,0,.74.43a1.64,1.64,0,0,1-.74,1.29c-.41.24-.75,0-.75-.43A1.67,1.67,0,0,1,430.45,67.48Z" style="fill:#e0e0e0"></path><path d="M433.94,60.92h0a2.1,2.1,0,0,0-.93-1.48,2,2,0,0,0-1.74-.06,3.92,3.92,0,0,0-.7.32,7.28,7.28,0,0,0-2.4,2.44,7.61,7.61,0,0,0-1.27,3.93,2.45,2.45,0,0,0,1,2.25,2.42,2.42,0,0,0,2.43-.27,5.39,5.39,0,0,0,.76-.52.7.7,0,0,1,.1.55,5.91,5.91,0,0,1-.61.41,3.63,3.63,0,0,1-1.82.55,2.12,2.12,0,0,1-1.11-.29,2.9,2.9,0,0,1-1.24-2.68,8.17,8.17,0,0,1,1.34-4.17,7.65,7.65,0,0,1,2.58-2.63,2.49,2.49,0,0,1,.4-.2,2.7,2.7,0,0,1,2.54-.07,2.73,2.73,0,0,1,1.22,2.24Z" style="fill:#fafafa"></path><path d="M434.51,69.82c.41-.23.74,0,.74.43a1.64,1.64,0,0,1-.74,1.29c-.41.24-.74,0-.74-.43A1.66,1.66,0,0,1,434.51,69.82Z" style="fill:#e0e0e0"></path><path d="M434.51,69.82c.41-.23.74,0,.74.43a1.64,1.64,0,0,1-.74,1.29c-.41.24-.74,0-.74-.43A1.66,1.66,0,0,1,434.51,69.82Z" style="opacity:0.1"></path><path d="M438.55,63.58l-.54-.31a2.09,2.09,0,0,0-.93-1.5,2,2,0,0,0-1.76-.05,3.7,3.7,0,0,0-.68.31,7.25,7.25,0,0,0-2.41,2.45A7.61,7.61,0,0,0,431,68.41a2.07,2.07,0,0,0,3.43,2,4.58,4.58,0,0,0,.75-.52.7.7,0,0,1,.1.55,5.79,5.79,0,0,1-.6.41,3.69,3.69,0,0,1-1.83.55,2.12,2.12,0,0,1-1.11-.29,2.9,2.9,0,0,1-1.24-2.67,8.18,8.18,0,0,1,1.34-4.18,7.59,7.59,0,0,1,2.59-2.63,3.6,3.6,0,0,1,.39-.2,2.45,2.45,0,0,1,3.77,2.18Z" style="fill:#fafafa"></path><path d="M438.57,72.17c.41-.24.75,0,.75.43a1.63,1.63,0,0,1-.75,1.28c-.41.24-.74.05-.74-.43A1.62,1.62,0,0,1,438.57,72.17Z" style="fill:#e0e0e0"></path><path d="M442.61,65.92l-.54-.31a2.09,2.09,0,0,0-.93-1.5,2,2,0,0,0-1.74,0,3.85,3.85,0,0,0-.7.31,7.24,7.24,0,0,0-2.42,2.44A7.69,7.69,0,0,0,435,70.75a2.08,2.08,0,0,0,3.43,2,6.13,6.13,0,0,0,.76-.53.71.71,0,0,1,.1.55,5.91,5.91,0,0,1-.61.41,3.68,3.68,0,0,1-1.82.55,2.15,2.15,0,0,1-1.12-.29,2.9,2.9,0,0,1-1.24-2.67,8.17,8.17,0,0,1,1.34-4.17,7.8,7.8,0,0,1,2.59-2.64,2.33,2.33,0,0,1,.39-.19,2.44,2.44,0,0,1,3.77,2.17Z" style="fill:#fafafa"></path><path d="M442.64,74.51c.41-.24.74-.05.74.43a1.62,1.62,0,0,1-.74,1.28c-.41.24-.75,0-.75-.43A1.63,1.63,0,0,1,442.64,74.51Z" style="fill:#e0e0e0"></path><path d="M442.64,74.51c.41-.24.74-.05.74.43a1.62,1.62,0,0,1-.74,1.28c-.41.24-.75,0-.75-.43A1.63,1.63,0,0,1,442.64,74.51Z" style="opacity:0.1"></path><path d="M446.67,68.26l-.54-.31a2.09,2.09,0,0,0-.93-1.5,2,2,0,0,0-1.74,0,3.77,3.77,0,0,0-.69.31,7.37,7.37,0,0,0-2.42,2.45,7.68,7.68,0,0,0-1.26,3.92,2.08,2.08,0,0,0,3.43,2,6,6,0,0,0,.75-.53.73.73,0,0,1,.1.56c-.2.14-.4.28-.6.4a3.69,3.69,0,0,1-1.83.55,2.21,2.21,0,0,1-1.11-.28,2.92,2.92,0,0,1-1.24-2.68,8.16,8.16,0,0,1,1.33-4.17,7.82,7.82,0,0,1,2.6-2.64,3.37,3.37,0,0,1,.38-.19,2.44,2.44,0,0,1,3.77,2.17Z" style="fill:#fafafa"></path><path d="M446.7,76.85c.41-.24.74,0,.74.43a1.62,1.62,0,0,1-.74,1.28c-.41.24-.74,0-.74-.42A1.63,1.63,0,0,1,446.7,76.85Z" style="fill:#e0e0e0"></path><path d="M450.74,70.61l-.54-.31a2.11,2.11,0,0,0-.93-1.51,2,2,0,0,0-1.75,0,3.77,3.77,0,0,0-.69.31,7.37,7.37,0,0,0-2.42,2.45,7.68,7.68,0,0,0-1.26,3.92,2.08,2.08,0,0,0,3.43,2,5.38,5.38,0,0,0,.75-.53.73.73,0,0,1,.1.56,5.69,5.69,0,0,1-.6.4,3.71,3.71,0,0,1-1.83.56,2.21,2.21,0,0,1-1.11-.29,2.91,2.91,0,0,1-1.24-2.68A8.16,8.16,0,0,1,444,71.26a7.82,7.82,0,0,1,2.6-2.64,3.37,3.37,0,0,1,.38-.19,2.45,2.45,0,0,1,3.78,2.18Z" style="fill:#fafafa"></path><path d="M450.76,79.19c.41-.24.75,0,.75.43a1.67,1.67,0,0,1-.75,1.29c-.41.23-.74,0-.74-.43A1.64,1.64,0,0,1,450.76,79.19Z" style="fill:#e0e0e0"></path><path d="M450.76,79.19c.41-.24.75,0,.75.43a1.67,1.67,0,0,1-.75,1.29c-.41.23-.74,0-.74-.43A1.64,1.64,0,0,1,450.76,79.19Z" style="opacity:0.1"></path><path d="M454.8,73l-.54-.31a2.11,2.11,0,0,0-.93-1.51,2,2,0,0,0-1.75,0,4.1,4.1,0,0,0-.69.31,7.37,7.37,0,0,0-2.42,2.45,7.68,7.68,0,0,0-1.26,3.92,2.08,2.08,0,0,0,3.43,2,6.13,6.13,0,0,0,.76-.53.73.73,0,0,1,.1.56,5.81,5.81,0,0,1-.61.4,3.7,3.7,0,0,1-1.82.56,2.25,2.25,0,0,1-1.12-.29,2.91,2.91,0,0,1-1.24-2.68A8.25,8.25,0,0,1,448,73.6a8,8,0,0,1,2.6-2.64,3.37,3.37,0,0,1,.38-.19A2.45,2.45,0,0,1,454.8,73Z" style="fill:#fafafa"></path><path d="M454.83,81.53c.41-.24.74,0,.74.43a1.66,1.66,0,0,1-.74,1.29c-.41.23-.75,0-.75-.43A1.65,1.65,0,0,1,454.83,81.53Z" style="fill:#e0e0e0"></path><path d="M458.86,75.29l-.54-.31a2.11,2.11,0,0,0-.93-1.51,2,2,0,0,0-1.75,0,3.7,3.7,0,0,0-.68.31,7.19,7.19,0,0,0-2.42,2.45,7.68,7.68,0,0,0-1.26,3.92,2.08,2.08,0,0,0,3.43,2,6,6,0,0,0,.75-.53.73.73,0,0,1,.1.56,7,7,0,0,1-.6.4,3.71,3.71,0,0,1-1.83.56,2.21,2.21,0,0,1-1.11-.29,2.9,2.9,0,0,1-1.24-2.68A8.12,8.12,0,0,1,452.11,76a7.82,7.82,0,0,1,2.6-2.64,3.37,3.37,0,0,1,.38-.19,2.66,2.66,0,0,1,2.55-.08A2.7,2.7,0,0,1,458.86,75.29Z" style="fill:#fafafa"></path><path d="M458.89,83.87c.41-.24.74,0,.74.43a1.66,1.66,0,0,1-.74,1.29c-.41.23-.74,0-.74-.43A1.64,1.64,0,0,1,458.89,83.87Z" style="fill:#e0e0e0"></path><path d="M458.89,83.87c.41-.24.74,0,.74.43a1.66,1.66,0,0,1-.74,1.29c-.41.23-.74,0-.74-.43A1.64,1.64,0,0,1,458.89,83.87Z" style="opacity:0.1"></path><path d="M462.93,77.65l-.54-.32a1.84,1.84,0,0,0-2.7-1.55,3,3,0,0,0-.67.3,7.24,7.24,0,0,0-2.43,2.46,7.63,7.63,0,0,0-1.25,3.91,2.08,2.08,0,0,0,3.43,2,5.38,5.38,0,0,0,.75-.53.73.73,0,0,1,.11.56,7.07,7.07,0,0,1-.61.4,3.71,3.71,0,0,1-1.83.56,2.21,2.21,0,0,1-1.11-.29,2.9,2.9,0,0,1-1.24-2.68,8.12,8.12,0,0,1,1.33-4.16,7.82,7.82,0,0,1,2.6-2.64,3.37,3.37,0,0,1,.38-.19,2.44,2.44,0,0,1,3.78,2.19Z" style="fill:#fafafa"></path><path d="M463,86.21c.41-.24.75,0,.75.43a1.67,1.67,0,0,1-.75,1.29c-.41.23-.74,0-.74-.43A1.64,1.64,0,0,1,463,86.21Z" style="fill:#e0e0e0"></path><path d="M467,80l-.54-.31a2.07,2.07,0,0,0-.93-1.53,2,2,0,0,0-1.77,0,3,3,0,0,0-.67.3,7.24,7.24,0,0,0-2.43,2.46,7.63,7.63,0,0,0-1.25,3.91,2.47,2.47,0,0,0,1,2.25,2.44,2.44,0,0,0,2.44-.27,7.32,7.32,0,0,0,.76-.52.7.7,0,0,1,.1.55,5.81,5.81,0,0,1-.61.4,3.7,3.7,0,0,1-1.82.56,2.25,2.25,0,0,1-1.12-.29,2.9,2.9,0,0,1-1.24-2.68,8.09,8.09,0,0,1,1.33-4.15,7.86,7.86,0,0,1,2.6-2.65,3.24,3.24,0,0,1,.37-.19A2.44,2.44,0,0,1,467,80Z" style="fill:#fafafa"></path></g></g><g id="freepik--Plant--inject-20"><g id="freepik--plant--inject-20"><g id="freepik--Pot--inject-20"><g id="freepik--pot--inject-20"><path d="M220,239.26c-7.63-7.92-12.12-40.13-4.67-46.41h37.88c7.44,6.28,3,38.48-4.67,46.4l-.21.22-.26.26c-.22.21-.44.42-.69.62l-.18.15c-.19.15-.37.3-.58.44s-.65.45-1,.64c-6.28,3.68-16.46,3.68-22.74,0h0a8.87,8.87,0,0,1-1-.65c-.19-.13-.36-.27-.54-.41l-.23-.18q-.35-.28-.66-.6l-.3-.3Z" style="fill:#BA68C8"></path><g style="opacity:0.8"><path d="M220,239.26c-7.63-7.92-12.12-40.13-4.67-46.41h37.88c7.44,6.28,3,38.48-4.67,46.4l-.21.22-.26.26c-.22.21-.44.42-.69.62l-.18.15c-.19.15-.37.3-.58.44s-.65.45-1,.64c-6.28,3.68-16.46,3.68-22.74,0h0a8.87,8.87,0,0,1-1-.65c-.19-.13-.36-.27-.54-.41l-.23-.18q-.35-.28-.66-.6l-.3-.3Z" style="fill:#fff"></path></g><path d="M250,190.32c8.64,5.08,8.64,13.3,0,18.37s-22.66,5.07-31.3,0-8.64-13.29,0-18.37S241.31,185.25,250,190.32Z" style="fill:#BA68C8"></path><g style="opacity:0.9"><path d="M250,190.32c8.64,5.08,8.64,13.3,0,18.37s-22.66,5.07-31.3,0-8.64-13.29,0-18.37S241.31,185.25,250,190.32Z" style="fill:#fff"></path></g><path d="M245.8,192.76c6.35,3.73,6.35,9.77,0,13.49s-16.64,3.72-23,0-6.35-9.76,0-13.49S239.45,189,245.8,192.76Z" style="fill:#BA68C8"></path><g style="opacity:0.75"><path d="M245.8,192.76c6.35,3.73,6.35,9.77,0,13.49s-16.64,3.72-23,0-6.35-9.76,0-13.49S239.45,189,245.8,192.76Z" style="fill:#fff"></path></g><path d="M222.82,199.16c6.34-3.72,16.63-3.72,23,0a10.59,10.59,0,0,1,3.8,3.55,10.66,10.66,0,0,1-3.8,3.54c-6.35,3.72-16.64,3.72-23,0a10.7,10.7,0,0,1-3.81-3.54A10.63,10.63,0,0,1,222.82,199.16Z" style="fill:#fafafa"></path></g></g><g id="freepik--Plants--inject-20"><path d="M219,141.43l12.61,10-12.2-5.65a34.25,34.25,0,0,0,2.12,11.61,73.79,73.79,0,0,1,9.5,6.76l-9.35-3.71s-.64,6.19,1.92,15.64c.67,2.47,3.44,7.19,5.19,10.72a40.07,40.07,0,0,0,2.71,4.72l.19.28q3.21-1.84,6.66-3.57c1.5-3.18,3.46-11,4.17-17.45,2.69-24.59-15.81-38.69-30.69-43.41A44.68,44.68,0,0,1,219,141.43Z" style="fill:#BA68C8"></path><path d="M219,141.43l12.61,10-12.2-5.65a34.25,34.25,0,0,0,2.12,11.61,73.79,73.79,0,0,1,9.5,6.76l-9.35-3.71s-.64,6.19,1.92,15.64c.67,2.47,3.44,7.19,5.19,10.72a40.07,40.07,0,0,0,2.71,4.72l.19.28q3.21-1.84,6.66-3.57c1.5-3.18,3.46-11,4.17-17.45,2.69-24.59-15.81-38.69-30.69-43.41A44.68,44.68,0,0,1,219,141.43Z" style="fill:#fff;opacity:0.7000000000000001"></path><path d="M229.51,142.46c2.58,2.6,4.08,6,5.24,9.45A50.26,50.26,0,0,1,237,162.55a46.42,46.42,0,0,1-2.67,21.36h0a.36.36,0,0,0,.2.47.35.35,0,0,0,.46-.21h0a46.94,46.94,0,0,0,2.36-21.66,50.52,50.52,0,0,0-2.42-10.66C233.7,148.44,232.13,145,229.51,142.46Z" style="fill:#fafafa"></path><path d="M273.55,154.33l0,0A188.39,188.39,0,0,0,260.36,173L247.56,175l9.44,1.65-5.07,8.07-12.59,2.62,9.83,1.6s-2.73,9.65-9.77,13.67c-3.88,2.22-5.78,2.56-7,1.44-.81-.78-1-5.4-1.68-9.53s-.74-10.84,3.14-18.94a25.23,25.23,0,0,1,4-6C247.25,159.23,264.85,154.2,273.55,154.33Z" style="fill:#BA68C8"></path><path d="M273.55,154.33l0,0A188.39,188.39,0,0,0,260.36,173L247.56,175l9.44,1.65-5.07,8.07-12.59,2.62,9.83,1.6s-2.73,9.65-9.77,13.67c-3.88,2.22-5.78,2.56-7,1.44-.81-.78-1-5.4-1.68-9.53s-.74-10.84,3.14-18.94a25.23,25.23,0,0,1,4-6C247.25,159.23,264.85,154.2,273.55,154.33Z" style="fill:#fff;opacity:0.8"></path><path d="M260.17,158.54a52,52,0,0,0-17.8,12.35,35.31,35.31,0,0,0-6.09,9.09,33.42,33.42,0,0,0-2.79,10.57s0,0,0,0,0,0,0,0a42.92,42.92,0,0,1,3.36-10.27,39.39,39.39,0,0,1,5.87-9A53.23,53.23,0,0,1,260.2,158.6s0,0,0,0A0,0,0,0,0,260.17,158.54Z" style="fill:#fafafa"></path><path d="M197.32,159.64h0a26.67,26.67,0,0,1,3.22.15,51.41,51.41,0,0,1,12.32,3q2.2.82,4.4,1.87c.72.35,1.44.72,2.15,1.1a35.69,35.69,0,0,1,9.43,7.17,22.36,22.36,0,0,1,3.25,4.59c.12.21.24.42.35.64h0c.27.56.52,1.12.75,1.67A31.1,31.1,0,0,1,236,195.08c-.13,3.69-1.38,7.9-2.09,8.6a2.43,2.43,0,0,1-.32.24c-1.05.67-2.71.27-5.83-1.47-6.23-3.51-8.68-12.39-8.68-12.39l8.67-1.48-11.13-2.23-4.52-7.09,8.32-1.52L209.08,176a169.05,169.05,0,0,0-11.74-16.35Z" style="fill:#BA68C8"></path><path d="M197.32,159.64h0a26.67,26.67,0,0,1,3.22.15,51.41,51.41,0,0,1,12.32,3q2.2.82,4.4,1.87c.72.35,1.44.72,2.15,1.1a35.69,35.69,0,0,1,9.43,7.17,22.36,22.36,0,0,1,3.25,4.59c.12.21.24.42.35.64h0c.27.56.52,1.12.75,1.67A31.1,31.1,0,0,1,236,195.08c-.13,3.69-1.38,7.9-2.09,8.6a2.43,2.43,0,0,1-.32.24c-1.05.67-2.71.27-5.83-1.47-6.23-3.51-8.68-12.39-8.68-12.39l8.67-1.48-11.13-2.23-4.52-7.09,8.32-1.52L209.08,176a169.05,169.05,0,0,0-11.74-16.35Z" style="fill:#fff;opacity:0.8"></path><path d="M200.54,159.79a51.41,51.41,0,0,1,12.32,3q2.2.82,4.4,1.87c.72.35,1.44.72,2.15,1.1a35.69,35.69,0,0,1,9.43,7.17,22.36,22.36,0,0,1,3.25,4.59c.12.21.24.42.35.64h0c.27.56.52,1.12.75,1.67A31.1,31.1,0,0,1,236,195.08c-.13,3.69-1.38,7.9-2.09,8.6a2.43,2.43,0,0,1-.32.24,2.18,2.18,0,0,1-.69.25c.77-5.72-2-20.23-6.27-26.2-4.41-6.21-14.88-15.21-29.26-18.32h0A26.11,26.11,0,0,1,200.54,159.79Z" style="fill:#BA68C8;opacity:0.1"></path><path d="M232.91,204.17a49.73,49.73,0,0,0-.82-12.65,41,41,0,0,0-4.18-12,35.34,35.34,0,0,0-8.45-9.49,47,47,0,0,0-10.85-6.53,0,0,0,0,0-.05,0s0,0,0,.05a62,62,0,0,1,10.43,7,44.28,44.28,0,0,1,4.58,4.29,27.52,27.52,0,0,1,3.83,4.93,40.53,40.53,0,0,1,4.32,11.79,49.17,49.17,0,0,1,1.1,12.58s0,0,0,0S232.9,204.19,232.91,204.17Z" style="fill:#fafafa"></path></g></g></g><g id="freepik--Machine--inject-20"><g id="freepik--Ultrasound--inject-20"><path d="M329.55,317.13a9.23,9.23,0,0,1,4.12-7.25,2.86,2.86,0,0,1,3.06-.23h0l2.82,1.59-5.92,10.2-2.8-1.59h0A2.87,2.87,0,0,1,329.55,317.13Z" style="fill:#37474f"></path><path d="M336.6,311.55a9.21,9.21,0,0,0-4.12,7.25c0,2.66,1.89,3.72,4.18,2.38a9.21,9.21,0,0,0,4.13-7.25C340.77,311.27,338.9,310.2,336.6,311.55Z" style="fill:#455a64"></path><path d="M338,315.54c0-1-.64-1.51-1.42-1.06a3.37,3.37,0,0,0-1.39,2.71c0,1,.64,1.51,1.42,1.05A3.37,3.37,0,0,0,338,315.54Z" style="fill:#263238"></path><path d="M358.4,300.5a9.21,9.21,0,0,1,4.11-7.26,2.84,2.84,0,0,1,3.05-.24h0l2.83,1.58-5.9,10.21-2.8-1.58h0A2.9,2.9,0,0,1,358.4,300.5Z" style="fill:#37474f"></path><path d="M365.44,294.9a9.23,9.23,0,0,0-4.11,7.26c0,2.66,1.9,3.72,4.19,2.37a9.23,9.23,0,0,0,4.11-7.26C369.61,294.61,367.73,293.55,365.44,294.9Z" style="fill:#455a64"></path><path d="M366.89,298.89c0-1-.65-1.51-1.43-1.06a3.39,3.39,0,0,0-1.38,2.71c0,1,.64,1.51,1.42,1.06A3.43,3.43,0,0,0,366.89,298.89Z" style="fill:#263238"></path><path d="M285.94,291a1,1,0,0,1,.57-.79l40.81-23.63a3,3,0,0,1,2.73,0l39.23,22.62a1,1,0,0,1,.56.78v2.46a1,1,0,0,1-.56.78l-40.8,23.63a3,3,0,0,1-2.74,0l-39.23-22.55a1,1,0,0,1-.57-.79Z" style="fill:#BA68C8"></path><path d="M328.48,314.37l40.8-23.57a.83.83,0,0,0,0-1.57l-39.23-22.62a3,3,0,0,0-2.73,0l-40.81,23.63a.83.83,0,0,0,0,1.57l39.23,22.55A3,3,0,0,0,328.48,314.37Z" style="fill:#BA68C8"></path><path d="M328.48,314.37l40.8-23.57a.83.83,0,0,0,0-1.57l-39.23-22.62a3,3,0,0,0-2.73,0l-40.81,23.63a.83.83,0,0,0,0,1.57l39.23,22.55A3,3,0,0,0,328.48,314.37Z" style="fill:#fff;opacity:0.6000000000000001"></path><path d="M327.2,314.69v2.51a2.82,2.82,0,0,0,1.28-.32l40.79-23.62a1,1,0,0,0,.57-.79V290a1,1,0,0,1-.57.79l-40.79,23.57A2.82,2.82,0,0,1,327.2,314.69Z" style="fill:#BA68C8"></path><path d="M327.2,314.69v2.51a2.82,2.82,0,0,0,1.28-.32l40.79-23.62a1,1,0,0,0,.57-.79V290a1,1,0,0,1-.57.79l-40.79,23.57A2.82,2.82,0,0,1,327.2,314.69Z" style="fill:#fff;opacity:0.25"></path><path d="M304.31,207.37a1,1,0,0,1,.57-.79l22.87-13.2a3,3,0,0,1,2.73,0l37.77,21.75a1,1,0,0,1,.56.79v73.49a1,1,0,0,1-.56.78L345.38,303.4a3,3,0,0,1-2.73,0l-37.77-21.69a1,1,0,0,1-.57-.79Z" style="fill:#e0e0e0"></path><path d="M345.38,229.85l22.87-13.15a.83.83,0,0,0,0-1.57l-37.77-21.75a3,3,0,0,0-2.73,0l-22.87,13.2a.83.83,0,0,0,0,1.58l37.77,21.68A3,3,0,0,0,345.38,229.85Z" style="fill:#f0f0f0"></path><path d="M344.11,230.17v73.55a3,3,0,0,0,1.28-.32l22.85-13.2a1,1,0,0,0,.57-.79v-73.5a1,1,0,0,1-.57.79l-22.85,13.15A2.82,2.82,0,0,1,344.11,230.17Z" style="fill:#ebebeb"></path><path d="M304.54,194.37a1,1,0,0,1,.57-.79L328,180.37a3,3,0,0,1,2.73,0l23.05,13.32a1,1,0,0,1,.56.79v18.8a1,1,0,0,1-.56.79l-22.87,13.21a3,3,0,0,1-2.73,0L305.11,214a1,1,0,0,1-.57-.79Z" style="fill:#BA68C8"></path><path d="M304.54,194.37a1,1,0,0,1,.57-.79L328,180.37a3,3,0,0,1,2.73,0l23.05,13.32a1,1,0,0,1,.56.79v18.8a1,1,0,0,1-.56.79l-22.87,13.21a3,3,0,0,1-2.73,0L305.11,214a1,1,0,0,1-.57-.79Z" style="opacity:0.30000000000000004"></path><path d="M330.89,208.41l22.87-13.14a.84.84,0,0,0,0-1.58l-23.05-13.32a3,3,0,0,0-2.73,0l-22.87,13.21a.83.83,0,0,0,0,1.57l23.05,13.26A3,3,0,0,0,330.89,208.41Z" style="fill:#BA68C8"></path><path d="M329.61,208.74v18.85a2.82,2.82,0,0,0,1.29-.31l22.85-13.21a1,1,0,0,0,.57-.78V194.48a1,1,0,0,1-.57.79L330.9,208.42A2.83,2.83,0,0,1,329.61,208.74Z" style="fill:#BA68C8"></path><path d="M329.61,208.74v18.85a2.82,2.82,0,0,0,1.29-.31l22.85-13.21a1,1,0,0,0,.57-.78V194.48a1,1,0,0,1-.57.79L330.9,208.42A2.83,2.83,0,0,1,329.61,208.74Z" style="opacity:0.2"></path><path d="M301.9,184.91a1,1,0,0,1,.57-.79l22.88-13.21a3,3,0,0,1,2.72,0l33.54,19.35a1,1,0,0,1,.56.79v5.08a1,1,0,0,1-.56.79l-22.87,13.21a3,3,0,0,1-2.73,0l-33.54-19.29a1,1,0,0,1-.57-.78C301.9,189.77,301.91,185.19,301.9,184.91Z" style="fill:#BA68C8"></path><path d="M338.74,205l22.87-13.15a.83.83,0,0,0,0-1.57l-33.54-19.35a3,3,0,0,0-2.72,0l-22.88,13.21a.83.83,0,0,0,0,1.57L336,205A3,3,0,0,0,338.74,205Z" style="fill:#BA68C8"></path><path d="M338.74,205l22.87-13.15a.83.83,0,0,0,0-1.57l-33.54-19.35a3,3,0,0,0-2.72,0l-22.88,13.21a.83.83,0,0,0,0,1.57L336,205A3,3,0,0,0,338.74,205Z" style="fill:#fff;opacity:0.6000000000000001"></path><path d="M337.47,205.31v5.14a2.81,2.81,0,0,0,1.28-.31l22.85-13.21a1,1,0,0,0,.57-.78v-5.1a1,1,0,0,1-.57.79L338.75,205A2.82,2.82,0,0,1,337.47,205.31Z" style="fill:#BA68C8"></path><path d="M337.47,205.31v5.14a2.81,2.81,0,0,0,1.28-.31l22.85-13.21a1,1,0,0,0,.57-.78v-5.1a1,1,0,0,1-.57.79L338.75,205A2.82,2.82,0,0,1,337.47,205.31Z" style="fill:#fff;opacity:0.25"></path><path d="M332.51,167h0a1.53,1.53,0,0,0-.9-1.26,4.85,4.85,0,0,0-4.36,0,1.53,1.53,0,0,0-.9,1.26h0v22.89h0a1.55,1.55,0,0,0,.9,1.24,4.79,4.79,0,0,0,4.36,0,1.53,1.53,0,0,0,.9-1.24h0Z" style="fill:#e0e0e0"></path><path d="M327.25,165.69a1.33,1.33,0,0,0,0,2.52,4.85,4.85,0,0,0,4.36,0,1.33,1.33,0,0,0,0-2.52A4.85,4.85,0,0,0,327.25,165.69Z" style="fill:#f5f5f5"></path><path d="M353.92,196.12c.78-.44.74-1.2.74-2.16V151a3.31,3.31,0,0,0-1.5-2.6l-54.82-31.65a2.6,2.6,0,0,0-2.74.08,2.16,2.16,0,0,0-.9,2v42.93a3.31,3.31,0,0,0,1.5,2.6L351,196.07A3.21,3.21,0,0,0,353.92,196.12Z" style="fill:#ebebeb"></path><path d="M294.7,118.89c0-1,.67-1.34,1.5-.86L351,149.68a3,3,0,0,1,1.07,1.12l2.14-1.25h0a3.1,3.1,0,0,0-1.06-1.12l-54.82-31.65a2.56,2.56,0,0,0-2.73.08A2.17,2.17,0,0,0,294.7,118.89Z" style="fill:#f0f0f0"></path><path d="M351.19,196.16a3.21,3.21,0,0,0,2.73,0c.78-.44.74-1.2.74-2.16V151a3.08,3.08,0,0,0-.44-1.48l-2.14,1.24h0a3,3,0,0,1,.44,1.47V195.2C352.52,196.09,351.94,196.49,351.19,196.16Z" style="fill:#e0e0e0"></path><path d="M350.21,151.41,297.45,121c-.49-.29-.9-.06-.9.52V161.4a2,2,0,0,0,.9,1.56l52.76,30.45c.49.29.9.05.9-.52V153A2,2,0,0,0,350.21,151.41Z"></path><path d="M350.21,151.41a2,2,0,0,1,.9,1.56v39.22L299,162.09a2,2,0,0,1-.9-1.56V121.31Z" style="fill:#37474f"></path><path d="M324.58,143c-13.51-7.79-20.2.69-20.2.69L322.13,171l4.9,2.83L344.79,167S338.09,150.76,324.58,143Z" style="fill:#455a64"></path><path d="M317.31,243.65l20.44-11.81a4,4,0,0,0,1.8-3.1V209.36l-39-21a2.43,2.43,0,0,0-3,.69l-20.71,28.48c-.4.55-1.22,1.59-1.22,1.59v1.3a3.38,3.38,0,0,0,1.79,2.26l36.31,21A4,4,0,0,0,317.31,243.65Z" style="fill:#BA68C8"></path><path d="M298.76,187.33,276,218a1.8,1.8,0,0,0,.55,2.7L313.38,242a2.37,2.37,0,0,0,3-.63l22.76-30.66a1.81,1.81,0,0,0-.56-2.7L301.79,186.7A2.39,2.39,0,0,0,298.76,187.33Z" style="fill:#BA68C8"></path><path d="M298.76,187.33,276,218a1.8,1.8,0,0,0,.55,2.7L313.38,242a2.37,2.37,0,0,0,3-.63l22.76-30.66a1.81,1.81,0,0,0-.56-2.7L301.79,186.7A2.39,2.39,0,0,0,298.76,187.33Z" style="fill:#fff;opacity:0.25"></path><polygon points="282.39 218.08 301.4 192.46 322.12 204.42 303.11 230.04 282.39 218.08" style="fill:#263238"></polygon><polygon points="303.1 230.04 321.57 205.16 301.7 193.69 283.23 218.56 303.1 230.04" style="fill:#37474f"></polygon><g id="freepik--Keyboard--inject-20"><g id="freepik--keyboard--inject-20"><path d="M260.9,227.92a.53.53,0,0,1,.31-.44l12.8-7.39a1.69,1.69,0,0,1,1.52,0l39.05,22.55a.54.54,0,0,1,.32.44v1.34a.54.54,0,0,1-.32.44l-12.79,7.38a1.63,1.63,0,0,1-1.52,0l-39.06-22.5a.54.54,0,0,1-.31-.44Z" style="fill:#BA68C8"></path><path d="M260.9,227.92a.53.53,0,0,1,.31-.44l12.8-7.39a1.69,1.69,0,0,1,1.52,0l39.05,22.55a.54.54,0,0,1,.32.44v1.34a.54.54,0,0,1-.32.44l-12.79,7.38a1.63,1.63,0,0,1-1.52,0l-39.06-22.5a.54.54,0,0,1-.31-.44Z" style="fill:#fff;opacity:0.25"></path><path d="M301.79,250.87l12.79-7.35c.42-.25.42-.64,0-.88l-39.05-22.55a1.69,1.69,0,0,0-1.52,0l-12.8,7.39a.46.46,0,0,0,0,.88l39.06,22.51A1.69,1.69,0,0,0,301.79,250.87Z" style="fill:#BA68C8"></path><path d="M301.79,250.87l12.79-7.35c.42-.25.42-.64,0-.88l-39.05-22.55a1.69,1.69,0,0,0-1.52,0l-12.8,7.39a.46.46,0,0,0,0,.88l39.06,22.51A1.69,1.69,0,0,0,301.79,250.87Z" style="fill:#fff;opacity:0.6000000000000001"></path><path d="M301.08,251.05v1.37a1.53,1.53,0,0,0,.72-.17l12.78-7.39a.54.54,0,0,0,.32-.44v-1.34a.57.57,0,0,1-.32.44l-12.78,7.35A1.66,1.66,0,0,1,301.08,251.05Z" style="fill:#BA68C8"></path><path d="M263.22,228h0l1.26-.74,1.72,1-1.27.75-1.72-1Zm2-1.14a0,0,0,0,1,0,0l1.27-.73,1.35.78-1.28.75-1.35-.77Zm.42,2.53s0,0,0,0l1.26-.73,1.35.78-1.27.75-1.35-.77Zm1.56-3.68a0,0,0,0,1,0,0l1.27-.73,2.18,1.25-1.28.76-2.17-1.26Zm.05,2.32s0,0,0,0l1.27-.73,1.07.62-1.28.76-1.07-.62Zm.42,2.53s0,0,0,0l1.26-.73,1.35.78-1.27.76-1.35-.78ZM269,229h0l1.27-.74,1.07.62-1.27.76L269,229Zm.19-4.47v0l1.27-.73,1.72,1-1.28.76-1.71-1Zm.51,7.16h0L271,231l9.75,5.62-1.27.76-9.75-5.63Zm.36-4.36v0l1.27-.73,1.07.62-1.27.75-1.07-.62Zm.7,2.68h0l1.26-.73,1.08.62-1.28.75-1.07-.62Zm.41-6.63h0l1.26-.73,1.07.62-1.27.75-1.07-.62Zm.41,2.53h0l1.27-.73,1.07.62-1.27.75-1.07-.62Zm.24,2.43s0,0,0,0l1.26-.73,1.07.62-1.27.76-1.07-.62Zm.69,2.69v0l1.27-.73,1.07.62-1.28.75-1.06-.61Zm.41-6.63v0l1.27-.73,1.07.62L274,225l-1.07-.61Zm.42,2.53s0,0,0,0l1.26-.73,1.08.62-1.28.75-1.07-.61Zm.23,2.42s0,0,0,0l1.27-.73,1.07.62-1.28.76-1.07-.62Zm0-7.35v0l1.27-.73,1.35.78-1.28.75-1.34-.78Zm.7,10s0,0,0,0l1.26-.73,1.07.62-1.27.76-1.07-.62Zm.41-6.63v0l1.27-.73,1.07.62-1.27.76-1.07-.62Zm.41,2.53v0l1.27-.73,1.07.62-1.28.76-1.07-.62Zm.24,2.42h0l1.26-.73,1.07.61-1.27.76-1.07-.62Zm.69,2.69h0l1.27-.73,1.07.61-1.28.76-1.07-.62Zm.35-9.44s0,0,0,0l1.26-.73,1.07.62-1.27.76-1.07-.62Zm.06,2.81s0,0,0,0l1.26-.74,1.08.62-1.28.76-1.07-.62Zm.42,2.53s0,0,0,0l1.26-.74,1.07.62-1.27.76-1.07-.62Zm.23,2.43v0l1.26-.73,1.08.62-1.28.75-1.07-.62Zm.69,2.69a0,0,0,0,1,0,0l1.27-.73,1.07.62-1.27.75-1.07-.62Zm.35-9.45v0l1.26-.73,1.08.62-1.28.76-1.07-.62Zm.06,2.81h0l1.27-.73,1.07.62-1.28.75-1.07-.62Zm.42,2.53h0l1.27-.73,1.07.62-1.28.75-1.07-.62Zm.23,2.43a0,0,0,0,1,0,0l1.27-.73,1.07.62-1.28.76-1.06-.62Zm.7,2.69s0,0,0,0l1.26-.73,1.07.62-1.27.75-1.07-.61Zm.34-9.45h0l1.27-.73,1.07.61-1.27.76-1.07-.62Zm.07,2.82s0,0,0,0l1.26-.73,1.07.62-1.27.75-1.07-.61Zm.19,9.26h0l1.27-.73,1.34.78-1.27.75-1.35-.78Zm.22-6.73a0,0,0,0,1,0,0l1.27-.73,1.07.62-1.27.75-1.07-.61Zm.24,2.42v0l1.26-.73,1.07.62-1.27.76-1.07-.62Zm.69,2.69v0l1.27-.73,1.07.62-1.28.76-1.07-.62Zm.35-9.44s0,0,0,0l1.26-.73,1.07.62-1.27.75-1.07-.61Zm.06,2.81v0l1.27-.73,1.07.62-1.28.76-1.07-.62Zm.42,2.53s0,0,0,0l1.26-.73,1.07.62-1.27.76-1.07-.62Zm.05,6.9a0,0,0,0,1,0,0l1.27-.73,1.34.78-1.27.75-1.35-.77Zm.18-4.48h0l1.27-.73,1.07.61-1.28.76-1.07-.62Zm.69,2.69a0,0,0,0,1,0,0l1.27-.73,1.07.61-1.27.76-1.07-.62Zm.41-6.63h0l1.27-.74,1.07.62-1.27.76-1.07-.62Zm.42,2.53h0l1.27-.74,1.07.62-1.28.76-1.07-.62Zm.23,2.43v0l1.27-.73,1.07.62-1.27.75-1.07-.62Zm.05-7.33a0,0,0,0,1,0,0l1.27-.73,1.07.62-1.27.76-1.07-.62Zm.05,12v0l1.27-.73,1.35.78-1.28.76-1.35-.78Zm.6-1.95h0l1.26-.73,1.08.62-1.28.75-1.07-.62Zm.41-6.63a0,0,0,0,1,0,0l1.26-.73,1.07.62-1.27.75-1.07-.62Zm.42,2.53h0l1.27-.73,1.07.62-1.27.75L285.6,234Zm.23,2.43s0,0,0,0l1.26-.73,1.07.62-1.27.76-1.07-.62Zm.05-7.33h0l1.26-.74,1.08.62-1.28.76-1.07-.62Zm.32,12.12a0,0,0,0,1,0,0l1.27-.74,1.72,1-1.28.75-1.72-1Zm.32-2.1v0l1.27-.73,3.38,2-1.28.76-3.37-1.95Zm.41-6.63v0l1.27-.73,1.07.62-1.28.75-1.07-.61Zm.42,2.53s0,0,0,0l1.26-.73,1.08.62-1.28.75-1.07-.61Zm.23,2.42s0,0,0,0l1.27-.73,1.07.62-1.28.76-1.07-.62Zm.05-7.33h0l1.27-.73L290,230l-1.28.75-1.07-.62Zm1.05,3.39a0,0,0,0,1,0,0l1.27-.73,1.07.62-1.27.76-1.07-.62Zm.29,9.32s0,0,0,0l1.27-.73,1.07.62-1.28.76-1.07-.62Zm.13-6.79a0,0,0,0,1,0,0l1.27-.73,1.07.62-1.28.76-1.07-.62Zm.24,2.42h0l1.27-.73,1,.56a.66.66,0,0,0,.31.06.7.7,0,0,0,.32-.06l1.67-1,1.25.72-3.25,1.9-2.55-1.47Zm.05-7.32v0l1.27-.73,1.07.62-1.27.75-1.07-.61Zm1.05,3.38h0l1.26-.73,1.08.61-1.28.76-1.07-.62Zm.29,9.32h0l1.27-.74,1.07.62-1.27.76-1.07-.62Zm.13-6.79h0l1.26-.74,1.07.62-1.27.76-1.07-.62Zm1-4.46v0l1.27-.73,1.07.62-1.27.76-1.08-.62Zm.29,2.94h0l1.27-.73,1.07.62-1.28.75-1.07-.62Zm.29,9.33s0,0,0,0l1.26-.73,1.08.62-1.28.75-1.07-.62Zm.23-2.16s0,0,0,0L294,242l1.07.62-1.27.76-1.07-.62Zm1-9.1s0,0,0,0l1.26-.74,1.07.62-1.27.76-1.07-.62Zm.29,2.95v0l1.27-.73,1.9,1.1-1.27.75-1.9-1.09Zm.65,9.53s0,0,0,0l1.27-.73L298.7,247l-1.27.76-2.83-1.63Zm.32-6.68s0,0,0,0l1.26-.73,1.07.62L296,240l-1.07-.61Zm.49-4.79h0l1.27-.73,1.07.62-1.28.75-1.07-.62ZM296.58,245v0l1.27-.73,1.07.62-1.27.75-1.07-.61Zm.09-4.53v0l1.27-.73,1.07.62-1.28.76-1.07-.62Zm.23-2.16h0l1.26-.74,1.08.62-1.28.76-1.07-.62Zm.26-2.62v0l1.27-.73,1.07.62-1.27.75-1.07-.61Zm.95,12.48v0l1.26-.73,1.08.62-1.28.75-1.07-.61Zm.23-2.16s0,0,0,0l1.26-.73,1.07.62-1.27.76-1.07-.62Zm.09-4.53h0l1.27-.74,1.07.62-1.27.76-1.07-.62Zm.14,2.37s0,0,0,0l1.26-.74,1.07.62-1.27.76-1.07-.62Zm.08-4.52v0l1.27-.73,1.07.62-1.27.75-1.07-.62Zm.66-2.41h0l1.27-.73,1.07.62-1.27.75-1.07-.62Zm.55,12.26v0l3.25-1.87,1.07.62-3.25,1.9-1.08-.62Zm.23-2.16s0,0,0,0l1.27-.73,1.07.62-1.28.76-1.07-.62Zm.23-2.16h0l1.26-.73,1.08.62-1.28.75-1.07-.62Zm.09-4.52s0,0,0,0l1.26-.73,1.07.62-1.27.75-1.07-.61Zm.14,2.37s0,0,0,0l1.26-.73,1.07.62-1.27.75-1.07-.61Zm.51-4.77v0l1.26-.73,1.08.62-1.28.75-1.07-.61Zm1,7.94a0,0,0,0,1,0,0l1.27-.73,1.07.62-1.27.75-1.07-.61Zm.23-2.16v0l1.27-.73,1.07.62-1.28.76-1.07-.62Zm.23-2.16h0l1.26-.73,1.08.61-1.28.76-1.07-.62Zm.28-2.61a0,0,0,0,1,0,0l1.27-.73,1.07.62-1.27.76-1.07-.62Zm1,7.94s0,0,0,0l3.24-1.87,1.08.62-3.26,1.9-1.07-.62Zm.23-2.16h0l1.27-.73,1.07.61-1.27.76-1.07-.62Zm.22-2.15v0l1.27-.73,1.07.62-1.27.75-1.07-.62Zm1.17-2.7v0l.54-.31,1.07.62-.55.33-1.06-.61Zm.59,3.71s0,0,0,0l1.26-.73,1.07.62-1.27.76-1.07-.62Zm1.16-2.7h0l.54-.32,1.07.62-.55.34-1.07-.62Zm.59,3.71s0,0,0,0l1.27-.73,1.07.62-1.28.76-1.07-.62Zm1.16-2.69a0,0,0,0,1,0,0l.54-.32,1.07.62-.55.34-1.07-.62Zm1.76,1s0,0,0,0l.53-.32,1.08.62-.56.34-1.06-.61Z" style="fill:#fafafa"></path></g></g><path d="M311.53,224.47a0,0,0,0,1,0,0l1.47-2,2.09,1.21-1.47,2.06-2.08-1.21Z" style="fill:#fafafa"></path><path d="M315,226.45s0,0,0,0l1.47-2,2.09,1.21L317,227.67l-2.08-1.2Z" style="fill:#fafafa"></path><path d="M313.83,221.34v0l1.48-2,2.09,1.21-1.47,2.06-2.09-1.2Z" style="fill:#fafafa"></path><path d="M318.37,228.42a0,0,0,0,1,0,0l1.47-2,2.09,1.2-1.47,2.07-2.08-1.21Z" style="fill:#fafafa"></path><path d="M317.25,223.31s0,0,0,0l1.47-2,2.09,1.21-1.47,2.06-2.09-1.21Z" style="fill:#fafafa"></path><path d="M316.14,218.2s0,0,0,0l1.47-2,2.09,1.21-1.47,2.06-2.08-1.21Z" style="fill:#fafafa"></path><path d="M320.67,225.29s0,0,0,0l1.47-2,2.09,1.21-1.47,2.06-2.09-1.2Z" style="fill:#fafafa"></path><path d="M319.56,220.18a0,0,0,0,1,0,0l1.47-2,2.09,1.21-1.47,2.06-2.08-1.2Z" style="fill:#fafafa"></path><path d="M318.44,215.07a0,0,0,0,1,0,0l1.48-2,2.09,1.2-1.47,2.07-2.09-1.21Z" style="fill:#fafafa"></path><path d="M323,222.15s0,0,0,0l1.47-2,2.09,1.21-1.47,2.06L323,222.17Z" style="fill:#fafafa"></path><path d="M321.86,217v0l1.48-2,2.09,1.21L324,218.27l-2.09-1.21Z" style="fill:#fafafa"></path><path d="M325.28,219v0l1.48-2,2.09,1.2-1.47,2.07L325.29,219Z" style="fill:#fafafa"></path><path d="M331.86,309.47a10.3,10.3,0,0,1-9.33,0c-2.57-1.49-2.57-3.9,0-5.39a10.36,10.36,0,0,1,9.33,0C334.44,305.57,334.44,308,331.86,309.47Z" style="fill:#BA68C8;opacity:0.2"></path><path d="M332.94,306V283.22a5.75,5.75,0,1,0-11.49,0V306a2.86,2.86,0,0,0,1.69,2.35,9,9,0,0,0,8.12,0A2.86,2.86,0,0,0,332.94,306Z" style="fill:#BA68C8"></path><path d="M332.94,306V283.22a5.75,5.75,0,1,0-11.49,0V306a2.86,2.86,0,0,0,1.69,2.35,9,9,0,0,0,8.12,0A2.86,2.86,0,0,0,332.94,306Z" style="fill:#fff;opacity:0.8"></path><path d="M330.77,289.4v15.66c0,2.92-5.16,4.29-8.49,2.68a4.58,4.58,0,0,0,.86.64,9,9,0,0,0,8.12,0,2.86,2.86,0,0,0,1.68-2.35V283.22a5.74,5.74,0,0,0-5.74-5.75v1.63C330.25,281.31,330.77,282.26,330.77,289.4Z" style="fill:#BA68C8;opacity:0.2"></path><path d="M329.94,273.19v5.54a1.38,1.38,0,0,1-.8,1.12,4.28,4.28,0,0,1-3.88,0,1.36,1.36,0,0,1-.8-1.12v-5.54Z" style="fill:#37474f"></path><path d="M329.14,274.31a4.28,4.28,0,0,1-3.88,0,1.18,1.18,0,0,1,0-2.24,4.28,4.28,0,0,1,3.88,0A1.18,1.18,0,0,1,329.14,274.31Z" style="fill:#455a64"></path><path d="M326.36,274a2,2,0,0,0-1.6-.08,2.09,2.09,0,0,0,.5.4,3.71,3.71,0,0,0,1.41.44C326.82,274.49,326.72,274.19,326.36,274Z" style="fill:#263238"></path><path d="M331.26,289.38a8.94,8.94,0,0,1-8.12,0,2.83,2.83,0,0,1-1.69-2.34V298a2.83,2.83,0,0,0,1.69,2.34,8.94,8.94,0,0,0,8.12,0,2.84,2.84,0,0,0,1.68-2.34V287A2.84,2.84,0,0,1,331.26,289.38Z" style="fill:#fafafa"></path><path d="M331.26,289.38a3.68,3.68,0,0,1-.49.23v10.91a3.68,3.68,0,0,0,.49-.23,2.84,2.84,0,0,0,1.68-2.34V287A2.84,2.84,0,0,1,331.26,289.38Z" style="fill:#ebebeb"></path><path d="M341,277.49a3.11,3.11,0,0,1-1.54-.45c-1.93-1.12-3.45-4.4-3.45-7.47V253.11h1v16.46c0,2.65,1.34,5.66,2.93,6.57a1.58,1.58,0,0,0,1.58.17,2.33,2.33,0,0,0,.83-2.09c0-2.52,1.34-5.28,3.06-6.27l2.81-1.61.51.89-2.8,1.62c-1.38.8-2.55,3.26-2.55,5.37a3.28,3.28,0,0,1-1.35,3A2.11,2.11,0,0,1,341,277.49Z" style="fill:#37474f"></path><path d="M342.07,236.66a4.42,4.42,0,0,0,.1-.93s0,0,0,0h0a9.2,9.2,0,0,0-4.11-7.25,4,4,0,0,0-1.59-.57h-.05a2.54,2.54,0,0,0-.62,0l-.11,0a1.78,1.78,0,0,0-.5.19l-.13.06-.05,0-2.83,1.59h0a3,3,0,0,0-1.25,2.69,7.63,7.63,0,0,0,.57,2.78,24.84,24.84,0,0,1,1.4,7.66v8.15a4.91,4.91,0,0,0,2.18,3.85,1.53,1.53,0,0,0,1.52.16l2.94-1.66a1.61,1.61,0,0,0,.67-1.48v-8.14a13.76,13.76,0,0,1,1.52-6.24s0-.06,0-.08A3.54,3.54,0,0,0,342,237,2.24,2.24,0,0,0,342.07,236.66Z" style="fill:#37474f"></path><path d="M335.13,230.08c-2.29-1.34-4.16-.28-4.19,2.38a7.63,7.63,0,0,0,.57,2.78,24.84,24.84,0,0,1,1.4,7.66v8.15a4.91,4.91,0,0,0,2.18,3.85c1.21.7,2.19.11,2.19-1.32v-8.14a13.69,13.69,0,0,1,1.53-6.24,3.87,3.87,0,0,0,.44-1.86A9.22,9.22,0,0,0,335.13,230.08Z" style="fill:#455a64"></path><g id="freepik--Button--inject-20"><path d="M361,244.88a.5.5,0,0,0-.21-.47l-1.14-.66a.5.5,0,0,0-.52.05l-10.38,6a1.62,1.62,0,0,0-.73,1.26v3.59a.52.52,0,0,0,.21.47l1.14.66a.53.53,0,0,0,.52-.06l10.38-6a1.62,1.62,0,0,0,.73-1.26Z" style="fill:#BA68C8"></path><path d="M349.38,255.77h0l-1.14-.66a.52.52,0,0,1-.21-.47v-3.59a1.43,1.43,0,0,1,.15-.59l1.14.65a1.52,1.52,0,0,0-.15.6v3.58A.5.5,0,0,0,349.38,255.77Z" style="opacity:0.2"></path><path d="M360.74,244.39a.51.51,0,0,0-.48.07l-10.38,6a1.56,1.56,0,0,0-.58.66l-1.13-.65a1.51,1.51,0,0,1,.57-.67l10.38-6a.48.48,0,0,1,.51-.05Z" style="fill:#fff;opacity:0.2"></path></g><g id="freepik--button--inject-20"><path d="M361,258.76a.52.52,0,0,0-.21-.47l-1.14-.66a.55.55,0,0,0-.52.05l-10.38,6a1.6,1.6,0,0,0-.73,1.26v3.58a.51.51,0,0,0,.21.47l1.14.66a.5.5,0,0,0,.52,0l10.38-6a1.64,1.64,0,0,0,.73-1.27Z" style="fill:#BA68C8"></path><path d="M349.38,269.66h0l-1.14-.66a.51.51,0,0,1-.21-.47v-3.58a1.52,1.52,0,0,1,.15-.6l1.14.66a1.48,1.48,0,0,0-.15.6v3.58A.5.5,0,0,0,349.38,269.66Z" style="opacity:0.2"></path><path d="M360.74,258.27a.54.54,0,0,0-.48.07l-10.38,6a1.45,1.45,0,0,0-.58.66l-1.13-.66a1.43,1.43,0,0,1,.57-.66l10.38-6a.53.53,0,0,1,.51-.05Z" style="fill:#fff;opacity:0.2"></path></g></g></g><g id="freepik--character-3--inject-20"><g id="freepik--Character--inject-20"><g id="freepik--Bottom--inject-20"><path d="M438.37,398.74c2.17,0,.7,8.45,1.23,13.87.57,5.81,2.45,10.05,3,14.82.6,5.44.1,7.71-1.87,12.17-1.54,3.47-9.18,8.19-12.05,3.21s-3.46-10.67-3.1-16.08c.37-5.6.73-9.69.87-13.94.12-3.75-2.73-12.58.09-13.1l.14,1.46c1,2,10.64,3.47,11.8-.41Z" style="fill:#37474f"></path><path d="M398.8,407.12c.66,2.72-.07,10.15-.07,10.15s-1.19,2.56-5.38,4.24l-1.83-10.35Z" style="fill:#263238"></path><polygon points="393.35 421.51 384.14 418.44 381.96 410.24 392.29 415.54 393.35 421.51"></polygon><path d="M383.88,397.58l0-1.94c-1.25.6-4.07,10.68-7.83,17.58-3.44,6.3-10.2,9.79-12.41,12.53-3,3.66,2.73,8.43,11.88,6.53,4.54-.95,11.42-3.82,13.3-6.87s2.54-8.67,4.08-10.91,5.16-4.82,5.94-7.38a13.87,13.87,0,0,0,0-7.07c-.7-2.34-1.31-5.16-2.11-4.91l-.06,1.77c-.62,1.25-2.84,2.69-7.45,2.91C387,399.93,384.87,399.58,383.88,397.58Z" style="fill:#37474f"></path><path d="M406.81,359.3a139.05,139.05,0,0,0-.59-21.21l2.27-37.38s5,31.27,6,37.79,10.05,75,10.05,75c6.32,3.51,14.26,2.12,19.37-.78-.82-28.51-.54-54-1.06-61.94-.58-8.83-1.8-17.23-1.8-17.23s-1.83-41.57-2.23-57.35-1.89-26.32-5.1-33.34A101.4,101.4,0,0,0,425,228.33s-2.1,7.85-20.38,8.38-21.36-4.21-21.36-4.21a446.93,446.93,0,0,0-3.93,47.3c-.8,22.8-1.2,32.11-1.34,42.27-.13,8.65.22,21.21.51,38.68.22,13.18,1.32,44.36,1.32,44.36s9.05,4.43,23.64-1.32C403.46,403.79,406.21,370.7,406.81,359.3Z" style="fill:#455a64"></path><path d="M408.49,300.71l-5.06-37.44a22.92,22.92,0,0,1-14.17-6.37s2.22,6.42,10.91,9.83l5.63,33,.79,32.15Z" style="fill:#37474f"></path></g><g id="freepik--Top--inject-20"><path d="M403.83,168.55c-7.93.85-14.78,2.45-20.14,11.6-5,8.54-8.59,19.06-13.35,31.78-3,8.16-2.39,12.9-1.91,23.89L382.51,234Z" style="fill:#f0f0f0"></path><g id="freepik--Chest--inject-20"><path d="M422.54,171.88,435,175.21c2.48.84-.32,15.5.38,32.27.71,17.23,5.26,47.2,5.26,47.2s-18.1,9.28-38.91,6.91c-18-2.06-19.31-8.45-19.31-8.45l.71-44.08a142.28,142.28,0,0,1,1.73-17.79c1.78-10.76,15.94-21.45,15.94-21.45l6.41.31Z" style="fill:#BA68C8"></path><path d="M407.58,170.65c-6,1.86-13.68,10.52-16.88,17.66a87.74,87.74,0,0,0-7.88,37.7c.63-21.4-4.79-40.37,15.18-54.91a34.77,34.77,0,0,1,9.52-4.37Z" style="fill:#fafafa"></path><g id="freepik--Head--inject-20"><g id="freepik--head--inject-20"><path d="M388.41,138.89a4,4,0,0,0-1.3-2.53,5.09,5.09,0,0,1-1.54-5c.42-2.28,2.7-3.94,4.71-4.81a19.14,19.14,0,0,1,5.6-1.26c6.32-8.88,16.55-7.21,20.25-6.73,10.69,1.4,22.39,13.12,18.42,28.53-2,7.74-8.46,11.58-10.2,16.78-.21-.16-.16-2.49-.37-2.64l-14.43-10.32-9.16-6.56c-1.07-.77-2.6-2.37-3.92-2.62-1.61-.29-2.19,1.92-3.44,2.5-1.74.81-3.67,0-5.39.77-1,.44-1.87,1.35-1.25,2.46a2.38,2.38,0,0,0,1.69,1.14,3.86,3.86,0,0,1-2.85-.67c-1.22-.9-1.54-3-1.13-4.41.56-1.92,2.54-2,3.74-3.26A1.9,1.9,0,0,0,388.41,138.89Z" style="fill:#455a64"></path><path d="M416.36,160.91a12.21,12.21,0,0,1,.07-2.4,10.94,10.94,0,0,1,2.72-6.39,43.3,43.3,0,0,0,3.69-3.73,39.21,39.21,0,0,0,2.38-4.37c1.42-2.5,3.42-3.79,6.33-3.44a12.34,12.34,0,0,1,4.27,1.13,11.36,11.36,0,0,1,2.85,2.51,14,14,0,0,1,2.85,6.29c1.08,4.77-1.35,9.3-4.83,12.46a6.47,6.47,0,0,0-2.36,3.49,2.81,2.81,0,0,0,1.06,2.94,3.31,3.31,0,0,1-3.29-4.14c-.29.44-1.18,1.48-4,2.47a10.81,10.81,0,0,1-5.42.13,7,7,0,0,1-4.62-2.38A8.38,8.38,0,0,1,416.36,160.91Z" style="fill:#455a64"></path><path d="M429,142.12c-2.9-.78-4.69.76-5.74,3-.78,1.66-1.74,2.14-3,1.49-1.74-.9-3.15-4.39-3.6-6.83-.55-2.92-1.62-7.42-5.1-8.6-2.33-.78-5.2,2.44-9.34,2.19-1.49-.1-2.43-1.32-3.6-1.89-3.37-1.64-5.67,3.9-6.08,6.51a61.76,61.76,0,0,0-.62,9.85c0,13,3.77,17.36,5.82,18.36s5.86,1,9.8.54l.07,4.34a66.26,66.26,0,0,0-4.94,20.19s6.58-5.45,12.18-9.28c9.87-6.76,9.67-9.52,9.67-9.52l-.31-18.57c1.3,1.52,4.54,1.64,6.32-.73C433.69,149,433.08,143.23,429,142.12Z" style="fill:#ffa8a7"></path><path d="M406.24,158.18a4.43,4.43,0,0,0-.94-.23,4.66,4.66,0,0,0-2.69.13c-.24.1-.71.38-.48.69.07.1.18.1.3.09.61,0,1.23-.05,1.84,0l1.16,0a3.09,3.09,0,0,0,.86,0c.16-.05.36-.21.25-.39A.77.77,0,0,0,406.24,158.18Z" style="fill:#b16668"></path><path d="M407.52,166.73a20.12,20.12,0,0,0,8.32-3.17,16.92,16.92,0,0,0,5.25-7.12s-.56,5.49-4,8.89c-2.22,2.17-9.5,4.07-9.5,4.07Z" style="fill:#f28f8f"></path></g><path d="M394.4,140.85l4-1.11a2,2,0,0,0-2.47-1.46A2.16,2.16,0,0,0,394.4,140.85Z" style="fill:#455a64"></path><path d="M412.25,141.67l-4-1.1a2,2,0,0,1,2.46-1.46A2.16,2.16,0,0,1,412.25,141.67Z" style="fill:#455a64"></path><path d="M412.44,143.32a.44.44,0,0,1,.24-.18l.53-.2.7-.26.6-.2.38-.09a1.45,1.45,0,0,1,.51,0c.13,0,.15.2.13.3a.44.44,0,0,1-.29.3c-.1,0-.19.07-.29.09l-.2,0-.08,0h0l-.18.05-.63.21a3.47,3.47,0,0,1-.84.22.86.86,0,0,1-.42-.06A.22.22,0,0,1,412.44,143.32Z" style="fill:#f28f8f"></path><path d="M412.58,144.62a.86.86,0,0,1,.6-.36,5,5,0,0,1,1-.07c.4,0,.79,0,1.18,0s.17.6-.11.63a8,8,0,0,1-1.47,0q-.3,0-.6,0h-.44a.29.29,0,0,1-.17-.1A.11.11,0,0,1,412.58,144.62Z" style="fill:#f28f8f"></path><path d="M412.64,145.45c.1-.1.25,0,.36,0l.26.06.53.16.5.13.21,0a2.67,2.67,0,0,1,.26.09.21.21,0,0,1,.15.2v0a.37.37,0,0,1-.17.29.48.48,0,0,1-.23.05h-.07l-.24,0-.27-.07-.52-.16a1.77,1.77,0,0,1-.63-.31.51.51,0,0,1-.16-.2A.26.26,0,0,1,412.64,145.45Z" style="fill:#f28f8f"></path><polygon points="402.88 144.44 402.16 155.15 397.06 153.17 402.88 144.44" style="fill:#f28f8f"></polygon><path d="M398.61,143.72a1.63,1.63,0,0,1-1.7,1.4,1.42,1.42,0,0,1-1.41-1.53,1.62,1.62,0,0,1,1.7-1.4A1.41,1.41,0,0,1,398.61,143.72Z" style="fill:#263238"></path><path d="M410.4,144.36a1.64,1.64,0,0,1-1.71,1.4,1.42,1.42,0,0,1-1.41-1.53,1.64,1.64,0,0,1,1.71-1.4A1.42,1.42,0,0,1,410.4,144.36Z" style="fill:#263238"></path></g><path d="M425,167.51c-.38,5.41-4.53,13.5-5.05,28.26s5.94,128.41,5.94,128.41,12.48,2.51,24-4.05c0,0-2.07-51.65-4.91-68.57s-5-75.11-5-75.11-8.36-2.79-10.91-4.27A12.29,12.29,0,0,1,425,167.51Z" style="fill:#fafafa"></path><path d="M419.89,188.4l3.47,2.92,2.5,8.16s-2.86,8.49-5.54,14.8C420.32,214.28,418.93,196.92,419.89,188.4Z" style="fill:#f0f0f0"></path><path d="M421.53,224.88a8,8,0,0,1-4.57,1l.19-1a6.57,6.57,0,0,0,3.52-.73,12.51,12.51,0,0,1-2.38-2.93c-1.31-2.36-2.56-18-.91-21.36,1.37-2.78,5.21-8.75,7.8-8.58h.07c2.6.29,5.07,7.05,5.81,10.09.87,3.62-3.78,18.62-5.57,20.64a12.71,12.71,0,0,1-3,2.34,6.6,6.6,0,0,0,3.27,1.47l0,1h-.12A8.1,8.1,0,0,1,421.53,224.88ZM418.3,200.3c-1.51,3.08-.32,18.22.89,20.41a12.34,12.34,0,0,0,2.47,2.94,12,12,0,0,0,3.06-2.33c1.66-1.87,6.14-16.38,5.34-19.71-1-4.08-3.4-9.14-4.92-9.31h0C423.56,192.19,420.14,196.57,418.3,200.3Z" style="fill:#455a64"></path><path d="M415.56,225.2a1.51,1.51,0,1,0,1.66-1.33A1.51,1.51,0,0,0,415.56,225.2Z" style="fill:#263238"></path><path d="M424.28,226.17a1.51,1.51,0,1,0,1.66-1.33A1.51,1.51,0,0,0,424.28,226.17Z" style="fill:#263238"></path><path d="M431.3,201.31c-.46-1.93-2.63-8.78-5.34-10.07.08-.9.26-2.23.47-3.8,1.36-10.33,1.93-17.89-1.53-18.89l-.4,1.41c2.52.73,1.14,12.27.47,17.29-.21,1.58-.38,2.91-.47,3.86-2.92.75-6.48,6.86-7.35,8.63-.53,1.06-.8,3.24-.82,6.46a.35.35,0,0,0,.34.35h.86a.34.34,0,0,0,.34-.34c0-2.87.26-5,.66-5.79,1.77-3.59,5.22-8,6.58-7.86s3.76,5.22,4.7,9.11c.21.89,0,3-.63,5.8a.35.35,0,0,0,.26.4l.84.19a.34.34,0,0,0,.41-.27C431.37,204.64,431.58,202.46,431.3,201.31Z" style="fill:#BA68C8"></path><path d="M431.3,201.31c-.46-1.93-2.63-8.78-5.34-10.07.08-.9.26-2.23.47-3.8,1.36-10.33,1.93-17.89-1.53-18.89l-.4,1.41c2.52.73,1.14,12.27.47,17.29-.21,1.58-.38,2.91-.47,3.86-2.92.75-6.48,6.86-7.35,8.63-.53,1.06-.8,3.24-.82,6.46a.35.35,0,0,0,.34.35h.86a.34.34,0,0,0,.34-.34c0-2.87.26-5,.66-5.79,1.77-3.59,5.22-8,6.58-7.86s3.76,5.22,4.7,9.11c.21.89,0,3-.63,5.8a.35.35,0,0,0,.26.4l.84.19a.34.34,0,0,0,.41-.27C431.37,204.64,431.58,202.46,431.3,201.31Z" style="opacity:0.30000000000000004"></path><path d="M424.41,167.84l0-1.69c.8,0,1.3.95,2.17,2.61s4.08,4,6.14,4.93c-1.49,4.3-6.83,14.37-9.33,17.63l-3.47-2.92C420.86,179.87,424.41,167.84,424.41,167.84Z" style="fill:#f0f0f0"></path></g><path d="M440.65,177.14c8.39,1.79,10.73,8.61,8.12,27.13-1.72,12.21-3.7,21.55-5.89,30.78-.81,3.4-1.14,5.61-5.2,8.44-3.49,2.42-26.59,18.47-31.36,22.49s-12.23,7.76-18.25,8-19.1-5.76-9.65-9.52a66.75,66.75,0,0,0,15.27-8.64c.51-.42-.45-1.5-1.51-2.23a9.19,9.19,0,0,1-3.13-1.57c3.62-1.3,6.36-1.82,12.39-2.6,6.32-.82,25.1-18.83,25.1-18.83l6.15-40.35S435.85,179.24,440.65,177.14Z" style="fill:#ffa8a7"></path><path d="M382,262.84c-1.15.55-2.35,1.08-3.59,1.58-9.45,3.76,3.64,9.72,9.65,9.52a23.42,23.42,0,0,0,7-1.5A114.7,114.7,0,0,1,382,262.84Z" style="fill:#f28f8f"></path><path d="M393.69,255.78a47.58,47.58,0,0,0,6.89,8.09,6.19,6.19,0,0,0,8.05.26l.49-.39s.38.85.39.9a3.41,3.41,0,0,1,.12,1.67c-.11,1.28.1,2.66-.58,3.83s-2.18,1-3.41,1.29c-1.44.32-1.78,2-3.07,2.48a4.5,4.5,0,0,1-1.86-.06,2.92,2.92,0,0,0-1.61.37,5.65,5.65,0,0,1-2.75.85,17.74,17.74,0,0,1-2.55-.59,30.34,30.34,0,0,1-6.26-2.61c-3.63-1.94-10.38-11.59-11.94-13.85s-7-15.81-7.17-22.2c1.72-3.78,4-5.52,7.76-7,2.44-1,6.54-.6,6.56,1.82,0,2.58.31,17.56,5.88,21a40.82,40.82,0,0,0,3.73,2.06C392.92,253.91,394.4,255.47,393.69,255.78Z" style="fill:#ffa8a7"></path><path d="M393.69,255.78q1.51,2,3.16,3.88c1.11,1.24,2.23,2.47,3.45,3.6a6.21,6.21,0,0,0,4.26,2,6.77,6.77,0,0,0,4.56-1.56,6.91,6.91,0,0,1-2.07,1.43,6.28,6.28,0,0,1-2.5.51,6.48,6.48,0,0,1-4.6-2.06,42.59,42.59,0,0,1-3.39-3.72A33.35,33.35,0,0,1,393.69,255.78Z" style="fill:#f28f8f"></path><path d="M440,176.45c5.08,1.58,8.82,2.47,10.39,11.32S447,223.35,445.16,232c-1.09,5.14-1.43,7-3.86,9-1.71,1.33-6.43,4.45-6.43,4.45a12.78,12.78,0,0,0-4.77-8.39c-4.18-3.18-7.2-3.12-7.2-3.12l3.42-3.7c1.14-7.44,3.66-31.46,4.18-35.42C431.12,190.05,434.59,179.56,440,176.45Z" style="fill:#f0f0f0"></path></g></g></g><g id="freepik--characters-1-and-2--inject-20"><g id="freepik--Couple--inject-20"><g id="freepik--Chair--inject-20"><path d="M242.53,318.55a1.09,1.09,0,0,0,1-.65l21.25-47.71a1.09,1.09,0,1,0-2-.89L241.53,317a1.1,1.1,0,0,0,.55,1.45A1.2,1.2,0,0,0,242.53,318.55Z" style="fill:#263238"></path><path d="M264.77,262.12a2.41,2.41,0,0,1,3.33.64,2,2,0,0,1,.13,1.74l-3.34,9.67a2.82,2.82,0,0,1-1.25,1.47,2.41,2.41,0,0,1-3.33-.64,2.08,2.08,0,0,1-.14-1.74l3.35-9.67A2.77,2.77,0,0,1,264.77,262.12Z" style="fill:#37474f"></path><path d="M263.52,263.59a2.77,2.77,0,0,1,1.25-1.47,2.41,2.41,0,0,1,3.33.64,2,2,0,0,1,.13,1.74l-2.11,6.09-4.19-2.42Z" style="fill:#263238"></path><path d="M268.1,262.76a2.41,2.41,0,0,0-3.33-.64,2.77,2.77,0,0,0-1.25,1.47,2.08,2.08,0,0,0,.14,1.74A2.41,2.41,0,0,0,267,266a2.75,2.75,0,0,0,1.24-1.47A2,2,0,0,0,268.1,262.76Z" style="fill:#455a64"></path><path d="M263.4,258.86l8,4.59v4.12c0,2.25.74,3.87,1.93,4.66l.34.19a4.62,4.62,0,0,0,4.39-.5c3.68-2.12,6.66-7.52,6.66-12.06v-4.11l-17.77-10.26v4.12A15.6,15.6,0,0,1,263.4,258.86Z" style="fill:#455a64"></path><path d="M263.4,258.86l8,4.59v4.12c0,2.25.74,3.87,1.93,4.66l-17.43-10.06-.34-.2c-1.2-.79-2-2.41-2-4.67v-4.11Z" style="fill:#37474f"></path><path d="M275.2,273.86a6.79,6.79,0,0,0,3.36-1c4.05-2.34,7.22-8.05,7.22-13v-4.11a1.1,1.1,0,0,0-.55-.95l-17.77-10.25a1.09,1.09,0,1,0-1.09,1.89l17.22,9.94v3.48c0,4.11-2.8,9.2-6.12,11.11a3.61,3.61,0,0,1-3.34.48l-.29-.17c-.86-.57-1.39-1.94-1.39-3.71v-4.12a1.12,1.12,0,0,0-.54-.95l-17.79-10.26a1.09,1.09,0,0,0-1.09,1.89l17.23,9.95v3.49c0,2.56.87,4.54,2.43,5.57l.4.23A4.61,4.61,0,0,0,275.2,273.86Z" style="fill:#BA68C8"></path><g style="opacity:0.1"><path d="M275.2,273.86a6.79,6.79,0,0,0,3.36-1c4.05-2.34,7.22-8.05,7.22-13v-4.11a1.1,1.1,0,0,0-.55-.95l-17.77-10.25a1.09,1.09,0,1,0-1.09,1.89l17.22,9.94v3.48c0,4.11-2.8,9.2-6.12,11.11a3.61,3.61,0,0,1-3.34.48l-.29-.17c-.86-.57-1.39-1.94-1.39-3.71v-4.12a1.12,1.12,0,0,0-.54-.95l-17.79-10.26a1.09,1.09,0,0,0-1.09,1.89l17.23,9.95v3.49c0,2.56.87,4.54,2.43,5.57l.4.23A4.61,4.61,0,0,0,275.2,273.86Z"></path></g><path d="M247.22,318.49a7.16,7.16,0,0,0-3.23-5.6,2.2,2.2,0,0,0-2.37-.16h0l-1.37.77,4.63,7.87,1.36-.77h0A2.22,2.22,0,0,0,247.22,318.49Z" style="fill:#455a64"></path><path d="M242.53,313.73a7.14,7.14,0,0,1,3.23,5.59c0,2.06-1.45,2.9-3.23,1.87a7.13,7.13,0,0,1-3.23-5.6C239.3,313.53,240.74,312.7,242.53,313.73Z" style="fill:#263238"></path><path d="M238.08,289.47a1.67,1.67,0,0,0,.44-.06,1.64,1.64,0,0,0,1.15-2l-8.38-30.63a47,47,0,0,0-22-28.51l-23.73-13.7a1.64,1.64,0,1,0-1.64,2.84l23.72,13.7a43.76,43.76,0,0,1,20.47,26.54l8.38,30.62A1.64,1.64,0,0,0,238.08,289.47Z" style="fill:#37474f"></path><polygon points="184.75 421.26 118.08 382.77 184.75 344.28 251.42 382.77 184.75 421.26" style="fill:#455a64"></polygon><polygon points="184.75 426.37 184.75 421.26 118.08 382.77 118.08 387.88 184.75 426.37" style="fill:#263238"></polygon><polygon points="251.42 382.77 251.42 387.88 184.75 426.37 184.75 421.26 251.42 382.77" style="fill:#37474f"></polygon><polygon points="184.75 373.09 184.75 411 135.86 382.77 135.86 344.86 184.75 373.09" style="fill:#37474f"></polygon><polygon points="184.75 373.09 184.75 411 233.64 382.77 233.64 344.86 184.75 373.09" style="fill:#263238"></polygon><polygon points="135.86 344.86 184.75 316.63 233.64 344.86 184.75 373.09 135.86 344.86"></polygon><polygon points="184.75 334.02 184.75 369.94 135.86 341.71 135.86 305.79 184.75 334.02" style="fill:#37474f"></polygon><polygon points="184.75 334.02 184.75 369.94 233.64 341.71 233.64 305.79 184.75 334.02" style="fill:#263238"></polygon><polygon points="233.14 342 233.14 344.57 184.75 372.51 184.75 369.94 233.14 342"></polygon><polygon points="136.37 342 136.37 344.57 184.75 372.51 184.75 369.94 136.37 342" style="fill:#263238"></polygon><polygon points="144.56 170.88 83.49 206.14 133.78 299.46 189.19 331.45 271.05 378.82 332.12 343.56 250.27 296.19 194.86 264.2 144.56 170.88" style="fill:#263238"></polygon><polygon points="271.05 378.82 189.19 331.45 133.78 299.46 83.49 206.14 75.91 210.52 126.66 305.61 184.75 339.15 271.05 389.08 271.05 378.82" style="fill:#455a64"></polygon><polygon points="332.12 343.56 332.12 353.82 271.05 389.08 271.05 378.82 332.12 343.56" style="fill:#37474f"></polygon><path d="M84.16,198.23l8.89-5.13h0l57.49-33.18a2,2,0,0,1,3.05,1.27l50.62,94.58a7.47,7.47,0,0,0,3,4L247,282.7a1.68,1.68,0,0,1,1,1.37v10.26a1.68,1.68,0,0,1-1,1.37l-57.49,33.19a5.25,5.25,0,0,1-4.73,0l-48.6-28.06a7.47,7.47,0,0,1-3.06-4L82.48,202.24A3.78,3.78,0,0,1,84.16,198.23Z" style="fill:#BA68C8"></path><path d="M150.54,159.91,93.05,193.09a3.8,3.8,0,0,0-1.68,4L142,291.69a7.47,7.47,0,0,0,3.06,4l39.71,22.93a5.25,5.25,0,0,0,4.73,0L247,285.44c1.31-.76,1.31-2,0-2.74l-39.71-22.92a7.47,7.47,0,0,1-3-4l-50.62-94.58A2,2,0,0,0,150.54,159.91Z" style="fill:#BA68C8"></path><path d="M150.54,159.91,93.05,193.09a3.8,3.8,0,0,0-1.68,4L142,291.69a7.47,7.47,0,0,0,3.06,4l39.71,22.93a5.25,5.25,0,0,0,4.73,0L247,285.44c1.31-.76,1.31-2,0-2.74l-39.71-22.92a7.47,7.47,0,0,1-3-4l-50.62-94.58A2,2,0,0,0,150.54,159.91Z" style="fill:#BA68C8"></path><path d="M82.48,202.24l50.62,94.58a7.5,7.5,0,0,0,3.05,4l48.6,28.05a5.21,5.21,0,0,0,4.74,0L247,295.7a1.68,1.68,0,0,0,1-1.37V284.07a1.68,1.68,0,0,1-1,1.37l-57.48,33.18a5.15,5.15,0,0,1-4.74,0L145,295.7a7.49,7.49,0,0,1-3.06-4L91.37,197.1A3.78,3.78,0,0,1,93,193.16l-8.79,5.06A3.82,3.82,0,0,0,82.48,202.24Z" style="fill:#BA68C8"></path><path d="M82.48,202.24l50.62,94.58a6.76,6.76,0,0,0,1.23,2.33l8.89-5.13a6.82,6.82,0,0,1-1.24-2.34L91.37,197.1A3.78,3.78,0,0,1,93,193.16l-8.79,5.06A3.82,3.82,0,0,0,82.48,202.24Z" style="opacity:0.2"></path><path d="M187.11,319.19a5.25,5.25,0,0,1-1.83-.32,5,5,0,0,0,1.83.33Z" style="opacity:0.1"></path><path d="M205.44,258.1a6.78,6.78,0,0,0,1.82,1.68L247,282.7c1.31.76,1.31,2,0,2.74l-57.49,33.19a5.25,5.25,0,0,1-4.73,0L145,295.7a6.79,6.79,0,0,1-1.83-1.68Z" style="fill:#fff;opacity:0.1"></path><path d="M187.11,329.45V319.2a4.88,4.88,0,0,0,2.38-.58L247,285.44a1.68,1.68,0,0,0,1-1.37v10.26a1.68,1.68,0,0,1-1,1.37l-57.48,33.18A4.87,4.87,0,0,1,187.11,329.45Z" style="opacity:0.35000000000000003"></path><path d="M143.21,294h0A6.78,6.78,0,0,0,145,295.7l39.71,22.92a4.8,4.8,0,0,0,2.36.58v10.25a4.79,4.79,0,0,1-2.36-.57l-48.6-28.05a6.78,6.78,0,0,1-1.82-1.68Z" style="opacity:0.1"></path><path d="M97.14,201.07l53.34-30.79,4.05-2.34a4.83,4.83,0,0,1,5.64.91,41.94,41.94,0,0,1,10.19,18.69,2.55,2.55,0,0,1-1.33,2.82l-58.74,33.92Z" style="fill:#BA68C8"></path><path d="M97.14,201.07l53.34-30.79,4.05-2.34a4.83,4.83,0,0,1,5.64.91,41.94,41.94,0,0,1,10.19,18.69,2.55,2.55,0,0,1-1.33,2.82l-58.74,33.92Z" style="opacity:0.1"></path><path d="M97.14,201.07l2.92,5.16,61.65-35.59c-.49-.61-1-1.2-1.54-1.79a4.82,4.82,0,0,0-5.64-.91l-4.05,2.35Z" style="fill:#fff;opacity:0.05"></path><path d="M160.18,168.86c.53.59,1,1.19,1.53,1.78l-61.65,35.59-2.92-5.16,2.56-1.47,50.78-29.31,4.05-2.35a4.76,4.76,0,0,1,3.71-.29,4.45,4.45,0,0,1,1.93,1.2Z" style="fill:#BA68C8"></path><path d="M160.18,168.86c.53.59,1,1.19,1.53,1.78l-61.65,35.59-2.92-5.16,2.56-1.47,50.78-29.31,4.05-2.35a4.76,4.76,0,0,1,3.71-.29,4.45,4.45,0,0,1,1.93,1.2Z" style="fill:#fff;opacity:0.05"></path><path d="M110.29,224.28,97.14,201.07l4-2.34a4.84,4.84,0,0,1,5.65.91A41.92,41.92,0,0,1,117,218.33a2.53,2.53,0,0,1-1.32,2.82Z" style="fill:#BA68C8"></path><path d="M110.29,224.28,97.14,201.07l4-2.34a4.84,4.84,0,0,1,5.65.91A41.92,41.92,0,0,1,117,218.33a2.53,2.53,0,0,1-1.32,2.82Z" style="opacity:0.2"></path><path d="M187,320.63l61.39-35.4a1.92,1.92,0,0,1,1.92.19l81,46.78a6,6,0,0,1,2.72,4.71v4.26a1.9,1.9,0,0,1-.79,1.76l-61.39,35.39a1.9,1.9,0,0,1-1.93-.19l-81-46.77a6,6,0,0,1-2.73-4.72v-4.25A1.91,1.91,0,0,1,187,320.63Z" style="fill:#BA68C8"></path><path d="M271.86,378.32l61.38-35.39a1.92,1.92,0,0,0,.81-1.76v-4.25a5.74,5.74,0,0,0-.92-2.87l-61.38,35.39a5.71,5.71,0,0,1,.9,2.87v4.25A1.9,1.9,0,0,1,271.86,378.32Z" style="opacity:0.15"></path><path d="M272.66,376.56v-4.25a6,6,0,0,0-2.73-4.72l-81-46.77a1.66,1.66,0,0,0-2.73,1.57v4.25a6,6,0,0,0,2.73,4.72l81,46.77a1.66,1.66,0,0,0,2.73-1.57Z" style="opacity:0.25"></path></g><g id="freepik--character--inject-20"><g id="freepik--bottom--inject-20"><path d="M98.82,394c-.12-7.29,3.42-50.94,3.42-50.94l-21.7,10.37c2.11,26.44,3.94,39,3.87,41.18h0a3.59,3.59,0,0,0-.16,1c-.22,4.82,5.37,7.73,9.68,11.18a84.32,84.32,0,0,0,11.7,8.13c3.16,1.72,9.74,2.22,10.65.28C111,411,105,406.33,100.87,401.6,98.92,399.34,98.89,399.05,98.82,394Z" style="fill:#b16668"></path><path d="M125.28,420.89c.28,0,.56,2.95-1,4.11-1.82,1.34-7.06,3.42-13.78,2.22s-10.3-3.38-12.9-5.68-6.25-5.55-9.28-6.35c-2.82-.75-5.85-2.14-6.72-3s-.56-4.59-.56-4.59Z"></path><path d="M105.24,403.5c-.42-.44-.82-.89-1.21-1.34a13.82,13.82,0,0,1-2.34-4.06,18.07,18.07,0,0,1-.76-1.91c-.23-.89-.36-1.83-.55-2.74a5.87,5.87,0,0,0-.35-1.29,1.14,1.14,0,0,0-.58-.64,1.4,1.4,0,0,0-.5,0,19.55,19.55,0,0,0-7.34,1.71c-.61.27-1.12.61-1.14,1.29a5.71,5.71,0,0,1-.33,2.32.84.84,0,0,1-.28.34.59.59,0,0,1-.59,0,1.39,1.39,0,0,1-.44-.43c-.68-.95-.83-2.22-1.6-3.09a3,3,0,0,0-1.6-.9c-.3-.06-1.32-.08-1.38-.51l-.19-2s-.61-.29-1,.89a18.7,18.7,0,0,0-.47,3.7c-.13,1.35-.31,2.41-.54,3.74-.29,1.6-.56,3.19-.82,4.79a16.15,16.15,0,0,0-.42,4.69,2.75,2.75,0,0,0,.94,1.79,9.55,9.55,0,0,0,2.78,1.93c1.42.67,2.89,1.22,4.33,1.83a38.67,38.67,0,0,1,9.32,6.28,28.78,28.78,0,0,0,14,5.82c6.73.46,11.59-1.45,13-3.67.23-1.56.44-3.18-.21-4.35-2.11-3.79-7.27-5.32-11.34-7.61a47.43,47.43,0,0,1-5.08-3.47A28.05,28.05,0,0,1,105.24,403.5Z" style="fill:#37474f"></path><path d="M101.35,413.34a.61.61,0,0,0,.76-.1c2.94-2.88,8.47-4.6,10.35-3.94,0,0-.23-.89-2.09-1.43,0,0-4.9-.47-9.73,4.12a.64.64,0,0,0,.12,1Z" style="fill:#fafafa"></path><path d="M107.86,406c-2-.77-6.92,1.38-9.33,3.74a.61.61,0,0,1-.78,0l-.6-.45a.58.58,0,0,1,0-.9c1.36-1.25,5.29-4.45,9.09-3.94C106.2,404.48,107.71,405.23,107.86,406Z" style="fill:#fafafa"></path><path d="M104,402.16c-1.45-.33-5.29.48-8.49,3a.53.53,0,0,1-.8-.16l-.29-.55a.54.54,0,0,1,.15-.67c1.12-.87,4.84-3.52,8.38-3.06A3.43,3.43,0,0,1,104,402.16Z" style="fill:#fafafa"></path><path d="M116.2,411.34c-8.41,1.78-11.64,7.15-13.17,11.56a27,27,0,0,0,9.18,2.78c6.73.46,11.59-1.45,13-3.67.23-1.56.44-3.18-.21-4.35C123.34,414.62,119.68,413,116.2,411.34Z" style="fill:#fafafa"></path><path d="M64.47,363l-20.29-2.86c.32,10.65-.36,24.84-.83,36.79a22.51,22.51,0,0,0-.31,7.94c.41,2.3-3.19,18.7-2.16,23.49,1.53,7.19,12.74,4.94,13.24.61s1.8-13,3.27-24.51C58.66,394.7,64.37,363.7,64.47,363Z" style="fill:#b16668"></path><path d="M56.78,431.7l-6.74-15c-1.89-1.05-4.12-3.22-6.22-2a9.28,9.28,0,0,0-2,1.4c-1.57,1.55-1.71,3.8-2.16,5.83s-1.9,3.88-2.22,6c-.61,3.94-.77,6.44.29,10.08s4.58,5.68,8.1,6.71c3,.87,6.7.08,8.34-2.43C56.21,439,56.64,435.94,56.78,431.7Z"></path><path d="M56.69,431.57c-2.71-3.67-15.83-5-19.49-1.69,0-.48.09-1,.15-1.54.57-5,1-5.89,2.27-10.54a45.24,45.24,0,0,0,1.63-6.54c.29-2.3.63-7,.77-8.66a37.2,37.2,0,0,1,.45-4.77c.12-.47.26-1,.88-.89,0,0-.05.8-.1,1.28s-.08,1-.11,1.39c-.09,1-.08,1.86-.09,2.85a3.14,3.14,0,0,0,.12,1.11.38.38,0,0,0,.16.21c.28.12.26-.53.28-.66l.44-2.44a.54.54,0,0,1,.14-.34.51.51,0,0,1,.25-.16c2.05-.81,3.58-1.49,5.7-1.13a19,19,0,0,1,3.47.83c.82.29,2.28.75,2.73,1.55a1.94,1.94,0,0,1,.11,1.24c-.12,1.09-.27,2.32-.43,3.56-.18,1.49,1.72-3.5,2-6.33.79.19.68,1.06,0,4.41A94.77,94.77,0,0,0,56.49,417a89.36,89.36,0,0,0,0,10.22C56.58,428.78,56.68,430.21,56.69,431.57Z" style="fill:#37474f"></path><path d="M41.63,423.3c3.71-.6,9.72.11,12.45,1.3a.35.35,0,0,0,.48-.33l0-1.17a.35.35,0,0,0-.2-.31,21,21,0,0,0-12.67-1.2.36.36,0,0,0-.28.3l-.16,1A.34.34,0,0,0,41.63,423.3Z" style="fill:#fafafa"></path><path d="M42.85,417.53A20.67,20.67,0,0,1,54,419a.33.33,0,0,0,.48-.3l0-1.07a.32.32,0,0,0-.2-.29c-1-.45-4.53-2.55-11.34-1.41a.33.33,0,0,0-.28.27l-.15.93A.35.35,0,0,0,42.85,417.53Z" style="fill:#fafafa"></path><path d="M43.9,412.27a18.55,18.55,0,0,1,10.4,1.39.32.32,0,0,0,.45-.3l0-1a.31.31,0,0,0-.18-.28c-.94-.43-4.23-2.46-10.61-1.31a.33.33,0,0,0-.26.26l-.15.92A.33.33,0,0,0,43.9,412.27Z" style="fill:#fafafa"></path><path d="M37.22,429.93c-.11,3.56.2,6,2.07,8.65,2.39,3.4,11.2,6.59,15,1.54,1.89-2.52,2.32-5.44,2.49-8.42C54.27,427.94,40.86,426.58,37.22,429.93Z" style="fill:#fafafa"></path><path d="M49.09,247.53c-2.84,22.93-2.48,50.54-3.38,65.32S43.17,337.69,43,349c-.31,19,.3,39.67.3,39.67s8,4.57,17,1.57c0,0,7.54-38.49,9.47-50.35,2.75-16.89,6.34-46.92,6.34-46.92l3.32,31.93a84.63,84.63,0,0,0-1,24c.83,7.45,4.38,34.72,4.38,34.72a20.45,20.45,0,0,0,17.33-1.06s4.67-52.19,5.06-59c.56-9.7,1.18-82,1.06-90.23Z" style="fill:#455a64"></path><path d="M76.12,292.92l2.54-17S90.13,272.7,95,265c-3.15,9.5-13.77,13.71-13.77,13.71L77.6,295.28l1.84,29.57Z" style="fill:#37474f"></path></g><g id="freepik--top--inject-20"><path d="M169.22,226.36a25.42,25.42,0,0,0,6.75.21,22.94,22.94,0,0,0,6.25-1.39,16.84,16.84,0,0,0,8.19-5.56c2.76-3.47.79-7.46-2.16-10-1.55-1.34-3-2.35-5-2-1.68.33-3.23,1.13-4.86,1.61-.79.24-3.83,1-4.26-.06-.28-.71,1.08-2,1.46-2.41a8.42,8.42,0,0,0,1.95-3.27c.59-2.71-1.07-3.55-2.61-2-1.32,1.35-4.14,2.56-6.31,4.94-1.09,1.2-3.36,3-5.64,3.11-4.72.31-31.12-5.43-31.12-5.43s-15.39-14.83-19.53-19c-4.73-4.82-7.1-9.16-16.34-12.24-2,.35-6.23,16.72-.35,23.66,0,0,13.44,12.68,19.55,18s7.93,7.23,13,7.61c9.62.73,12.83.45,20.28.94,9,.59,12,1.07,13.06,1.29C164.43,225,166.82,225.89,169.22,226.36Z" style="fill:#b16668"></path><path d="M96,172.34c8.52,2.84,9.78,4.29,17.12,12.11s18.75,19,18.75,19l23.74,5.4a11.07,11.07,0,0,0-3.38,7.91c-.16,5.24,2.08,6.82,2.08,6.82s-20.27-.7-25.06-.65-5.65-.53-10.16-3.88-20.49-18.69-20.49-18.69Z" style="fill:#263238"></path><g id="freepik--chest--inject-20"><path d="M104.75,191.38c-2.34-12.08-3.42-17.43-11.27-20.12s-21.28-2.59-21.28-2.59c-4,1.05-16.67,4.09-22.17,5.73s-4.37,14.43-3.09,22.6a234.69,234.69,0,0,1,2.94,28.17c-.22,13-1.38,21.79-1.89,29.23,11.75,7.45,46,6.14,58.39-1.35.29-6.18.38-22.5.27-30.51C106.45,207.52,105.73,196.47,104.75,191.38Z" style="fill:#37474f"></path></g><g id="freepik--head--inject-20"><path d="M66.81,125.81c-5.44,5.92-4.3,13.45-2.52,20.59,2.08,8.14.64,11.68,5.25,13.8C69,134.77,77,164.71,97.73,145.36c3.75-3.5,4.2-14.55-.16-19.65C91.39,118.5,77.45,114.65,66.81,125.81Z" style="fill:#263238"></path><path d="M62.94,154.33c2.78,1.92,5.41-.91,5.41-.91l.31,16.87s-.12,2.14,4.7,4.9c3.19,1.83,8.4,3.19,12,7.09,1.84-2.73,5.1-8,1.73-12.45v-4.57a39.24,39.24,0,0,0,4.51-.23c3.54-.43,5.85-3.15,7-6.93,1.9-6.07,1.81-15.29-.14-27.27-3.84-3.19-16.78-4.11-25.24.86.16,7-1.9,10.07-2,12.62a6.57,6.57,0,0,1-1.59,1.92c-1.33,1.07-2.28-1.86-3.32-3s-4.54-2.82-6.42.84S60.54,152.67,62.94,154.33Z" style="fill:#b16668"></path><path d="M83.4,138l-3.87,1.18a2.13,2.13,0,0,1,1.39-2.59A2,2,0,0,1,83.4,138Z" style="fill:#263238"></path><path d="M97.85,138.85l-4-.73a2,2,0,0,1,2.29-1.67A2.15,2.15,0,0,1,97.85,138.85Z" style="fill:#263238"></path><path d="M80.45,143a1.67,1.67,0,1,0,1.66-1.66A1.67,1.67,0,0,0,80.45,143Z" style="fill:#263238"></path><path d="M93.68,142.62a1.67,1.67,0,1,0,3.33,0,1.67,1.67,0,0,0-3.33,0Z" style="fill:#263238"></path><path d="M87.33,137.36l.92,11.38,5.41-1.18C92.89,144.11,89.72,138.89,87.33,137.36Z" style="fill:#9a4a4d"></path><path d="M71.51,143.13c-.12,6.93,3,8.32,5.61,9.1,4.14,1.25,6.31-2.23,11.22-2.47,2.82-.14,4.83.77,7.37,2.38a9.31,9.31,0,0,0,1.94.9c1,.21,2.1-.19,2.18-1.19a58.36,58.36,0,0,0,.12-8.63l0-1.65s.77,9.2.44,12.76S99,161.4,97,163c-2.74,2.27-8.58,3.47-15.7,2s-9.78-3.77-10.67-6.26c-2.9-8.08-1.87-11.94-2.83-13.46S71.51,143.13,71.51,143.13Z" style="fill:#263238"></path><path d="M90,151.86c3.32.36,4.94,1.68,4.94,3.84s-.72,4.81-2.69,5.57-1.73-1.33-1.41-2.45-.36-.89-1.45-.89-1.52-.16-1.18,1,.82,2.76-1.41,2.51S83,159,82.65,156.28,85,151.3,90,151.86Z" style="fill:#b16668"></path><path d="M89.48,154.47a1.65,1.65,0,0,0-1.06-.59,4.53,4.53,0,0,0-1.1-.07,5.4,5.4,0,0,0-1,.2,4.47,4.47,0,0,0-1.06.38s-.09.18,0,.18c.36,0,.71,0,1.07,0a10.84,10.84,0,0,1,1.14,0,4.9,4.9,0,0,1,1.08.12,2.28,2.28,0,0,0,.9.07A.19.19,0,0,0,89.48,154.47Z" style="fill:#9a4a4d"></path></g><g id="freepik--head--inject-20"><path d="M85.4,182.28c-2.07-1.29-6.25-4.34-8.33-1.73s-3.58,5.65-5.09,5.19-6.47-5.19-8.35-9.28a13.79,13.79,0,0,1-1.44-5.59s2-2.12,3.33-3.83,1.67-2.81,3-2.89l.11,3.57a8.5,8.5,0,0,0,3,5C75.33,175.4,82.75,176.37,85.4,182.28Z" style="fill:#263238"></path><path d="M85.4,182.28c1.25-1.12,3-4.17,5-3.57s4,4.59,4,3.51-1.73-6.84-3.42-10c-1.29-2.44-2.58-4.61-3.94-4.85v3.56s0,3.07-.14,4.92A16.38,16.38,0,0,1,85.4,182.28Z" style="fill:#263238"></path></g><path d="M24.13,220.53C27.94,208,32,197.91,34.89,190c3.75-10.34,8.65-12.22,16.37-13.82,4.49,2.6,6.65,13.3.92,25.3C48.63,210.34,41,228.82,41,228.82c.51,2.57,2.88,19.18,5.8,26.15,1,2.51,3,3.27,4.65,3.91,3.07,1.19,4.91,4.92,7.35,6.74C60.68,267,62,267.39,61.92,268c-.16.74-1.42,1.41-3.52,1.22a9.78,9.78,0,0,1-4.07-1.33,11.21,11.21,0,0,0-1.82-1.16c-1-.36-.86.53-.69,1.17A13.76,13.76,0,0,0,53.39,271a38.88,38.88,0,0,0,3.32,4.82,19.24,19.24,0,0,0,3,2.8,24.94,24.94,0,0,1,3.19,3.06c.4.46,1.06,1.23.92,1.9s-1.22,1-1.9.9-1.27-.4-1.92-.47c-1.37-.14-2.69.7-4,.54a12,12,0,0,1-1.46-.37,10.1,10.1,0,0,0-2.33-.2,5.45,5.45,0,0,1-1.89-.15l-1.8-.71-4.59-1.87a6.07,6.07,0,0,1-2.42-2.4,44,44,0,0,1-6.15-13.18c-1.62-5.85-7.62-19.44-9.53-26.6C22.72,227.38,22.5,225.87,24.13,220.53Z" style="fill:#b16668"></path><path d="M50.74,174.21A20.06,20.06,0,0,0,38.6,182.3c-3.3,4.88-6.91,13.6-11.52,27.43s-5.16,14.48-3.51,22.67,8,22.78,8,22.78,6,1.48,13.86-4L41,228.82s12.25-26.44,14.11-30.74S57.16,176,50.74,174.21Z" style="fill:#263238"></path></g></g><g id="freepik--character--inject-20"><g id="freepik--Legs--inject-20"><path d="M212.87,320.19c5.88,2.5,15.58-2.7,22.73-7.69,4.92-3.44,13.62-14.35,17.55-22.17s.4-15.63-2.46-17.1c-3.52-1.8-19.73-.83-35.7,11.29S200.58,315.35,212.87,320.19Z" style="fill:#e0e0e0"></path><path d="M304.89,334.3c-8.78-3.5-15.69-9.94-21.67-16.8-4.41-6.34-25.68-36.87-29.35-41.13-4.37-5.07-27.8-9.1-38.88-11.77-3.69-.89-19.27-5.4-19.27-5.4l-13.12-2.5c-2.91,3.74-7.59,24.38-7.59,24.38a200.63,200.63,0,0,1,24,4.63c8.9,2.46,32.28,6.24,34.86,6.65s5.21,1.19,6.26,2.69a57.68,57.68,0,0,0,8.75,10.31c6.88,6.55,19.81,12.6,25.11,19.55a13.28,13.28,0,0,1,1.43,5.4c.33,7.17,6.38,5.93,11.14,9.17,2.59,1.76,4.5,3.87,7.66,4.66a20,20,0,0,0,8.75.07c2.6-.55,6.35-2.31,7.69-4.8C312.39,336.13,307.83,335.47,304.89,334.3Z" style="fill:#ffbda7"></path><path d="M284.91,347.29c-8.71-3.67-15.77-9.78-21.85-16.57-4.84-6.93-25.61-36.58-29.24-40.77C228,283.2,189.42,274,189.42,274v0c.19-.43,1.11-2.7.34-8.75-.26-2-.62-3-.63-4.05l-31.92,7.24c2.6,10,3.69,18.58,8.25,24.32A23.83,23.83,0,0,0,178.74,301c9.11,1.52,32.8,4.47,35.38,4.87s6.09.81,6.92,2.21c2.32,3.94,2,6.32,7.82,10.9,7.45,5.88,19.83,12.56,25.15,19.5a13.41,13.41,0,0,1,1.45,5.4c.34,7.16,6.39,5.9,11.16,9.13,2.59,1.76,4.5,3.87,7.67,4.65a20,20,0,0,0,8.74.05c2.6-.55,6.35-2.33,7.68-4.81C292.48,349.57,287.41,348.34,284.91,347.29Z" style="fill:#ffbda7"></path><path d="M263.06,330.72l-7.23-9.84L248.67,311c-4.8-6.57-9.48-13.25-14.43-19.67-.32-.37-.62-.79-1-1.14l-.5-.5-.56-.45a20.12,20.12,0,0,0-2.51-1.59,58.1,58.1,0,0,0-5.47-2.57c-3.74-1.54-7.59-2.84-11.44-4.14s-7.75-2.46-11.65-3.6-7.82-2.25-11.74-3.33q11.94,2.58,23.64,6.13,5.87,1.75,11.57,4a57.38,57.38,0,0,1,5.59,2.57,20.64,20.64,0,0,1,2.66,1.66l.62.49.59.58c.37.39.67.8,1,1.2,2.49,3.24,4.85,6.56,7.22,9.87s4.73,6.62,7,10l6.92,10.06C258.54,324,260.83,327.31,263.06,330.72Z" style="fill:#f0997a"></path></g><g id="freepik--top--inject-20"><g id="freepik--head--inject-20"><path d="M150.54,204.45c-.15-2-8.76-2.72-7.73-7.86.43-2.14-.7-5.14-1.57-6.4-5.52-8.08-2.76-15.2,2-17.33-1.26-6.77,4.13-10.65,10.81-12.67s13.89-2.76,22.15,1.66c5.11,2.74,7.35,9.64,3.35,13.9,3.29.72,4.24,9-2.53,10.31Z" style="fill:#263238"></path><path d="M170.33,168.53c-5-1.63-10.44-.44-15.69,3.51.09,3.92-.79,8.88-3.58,11.26,1.48,4.27-1.52,5.68-3.07,4-2.66-2.88-6.19-2.38-7.67.65s.23,8.4,5,9.36a4.59,4.59,0,0,0,4.46-1.59l1,11.07h0c.29,3.85-1.63,5.52-3.46,6.92-3.6,2.75-6.24,4.3-7.56,5.15,23.87,7.83,34.35,2.66,34.52-12.54,0,0-2.13.27-4.09.34-1.14.05-2.82-.13-3-1.5L166.9,202c2.82-.24,5.43-.57,7.16-1.72,2.48-1.65,4.94-5.31,3.79-16.21C176.55,171.91,173,169.41,170.33,168.53Z" style="fill:#ffbda7"></path><path d="M167.45,194a.83.83,0,0,1-.7.95.85.85,0,0,1-.93-.74.82.82,0,1,1,1.63-.21Z" style="fill:#b16668"></path><path d="M164.39,182.55a1.63,1.63,0,0,1-1.44,1.67A1.42,1.42,0,0,1,161.3,183a1.62,1.62,0,0,1,1.44-1.66A1.41,1.41,0,0,1,164.39,182.55Z" style="fill:#263238"></path><path d="M174.88,181.07a1.63,1.63,0,0,1-1.43,1.67,1.42,1.42,0,0,1-1.66-1.27,1.62,1.62,0,0,1,1.44-1.66A1.41,1.41,0,0,1,174.88,181.07Z" style="fill:#263238"></path><polygon points="166.91 179.31 168.86 190.19 174.67 188.11 166.91 179.31" style="fill:#f0997a"></polygon><path d="M166.9,202c-4.6,0-12.46-1.58-14.81-7.05,0,0,1,4.24,3.2,6,3.29,2.64,11.76,3,11.76,3Z" style="fill:#f0997a"></path><path d="M161.58,178l-3.73,2.19a2.08,2.08,0,0,1,.81-2.86A2.13,2.13,0,0,1,161.58,178Z" style="fill:#263238"></path><path d="M175.75,176.88l-4.22-.29a2.24,2.24,0,0,1,2.35-2A2,2,0,0,1,175.75,176.88Z" style="fill:#263238"></path></g><path d="M174.43,206.75c4.68-.68,6.19.2,11,5.67s18.92,30.71,18.92,30.71,17.31,12.09,19.38,13.44,7.59-.13,10.6,1.38a28.73,28.73,0,0,0,9.19,2.62c2.6.27.35,2.49-2.68,2.79s-7-.52-7.48-.05c-.17.16,3.28,1.55,3.56,1.65.91.33,1.81.73,2.74,1,1.34.44,2.77.66,4.13,1.05,1,.28,3.87,1.08,2,2.34-.85.56-1.9.66-2.63,1.38a5.11,5.11,0,0,1-3.31,1.95c-.55.05-1.14-.08-1.69,0a13.85,13.85,0,0,0-1.73.64,7,7,0,0,1-3.42,0,28.05,28.05,0,0,1-3.82-.95,32.11,32.11,0,0,1-7.7-3.51c-3.82-2.49-7.85-4.67-11.81-6.92q-4.9-2.77-9.85-5.52c-3-1.69-6.11-3.07-8.1-6.05l-10.38-15.49-6.91-10.32Z" style="fill:#ffbda7"></path><path d="M173.85,206.13c4.5-1,7.23,0,11.27,3.94s15,21.54,15,21.54a20.23,20.23,0,0,1-18,10.39l-11.34-26.23Z" style="fill:#e0e0e0"></path><path d="M199.19,251.5c-2.45-3.78-5.22-8.34-5.82-11.55,3.6-8.18,1.81-15.74-3.11-20.34A168.62,168.62,0,0,0,174,206.08c-1.88.37-3.87.56-3.87.56,4.26,6.48-8.86,12.27-22.87,7.05,0,0-4.67,2.66-7.46,4.39-2.24,5.21,1.59,22.23,5.67,33.24,3.43,9.22,4.58,12.53,7.93,20.36,2.47,5.79,5.23,18.18,15.83,25.62,11.39,8,36.39,19.83,43.61,22.89-4.44-5,0-16.66,4.17-20.53,3.22-3,7.74-4.43,13.12-9.47,8-7.52,14.85-18.37,20.42-17.05-3.49-2.25-24.42-9.74-39.5-14.88C205.61,255,202.26,254,199.19,251.5Z" style="fill:#f5f5f5"></path><path d="M203.39,273.54c-5.21,2-2.62,4.68,6.43,9.63,4.84,2.65,9.91,5.28,17.84,9.17.81-.64,1.65-1.35,2.5-2.15,2.4-2.25,4.7-4.81,6.89-7.24C227.25,279.1,208,271.78,203.39,273.54Z" style="fill:#f0f0f0"></path><path d="M179.36,235.38c3.88-1.89,4.53,2.6,11.63.72,3.11-.82,2.85,3.86-1.38,7.08s-14.8,9.87-23.09,9.67S153.59,248.39,159,248s8.76.57,13.75-3.63S176,237,179.36,235.38Z" style="fill:#f0f0f0"></path><path d="M142.81,196.59c-2.82,3.37-2.87,6-.45,9.62a4.94,4.94,0,0,0-1.11,4.6,5.67,5.67,0,0,0,2.32,3.32,4.38,4.38,0,0,0,.57,4.29,5.16,5.16,0,0,0,3.7,2,3.83,3.83,0,0,0,2,3.22,7.58,7.58,0,0,0,5.61.7,5.36,5.36,0,0,0,3.84,2.61,8.6,8.6,0,0,0,5.6-.61c.25,1.52,1.65,2.14,3,2.48s2.66.91,3,2.37c.84-2.21-.27-4.74-1.47-6.23s-1.78-1.7-3.34-1.52a6.19,6.19,0,0,0-3.61-3.25,6.57,6.57,0,0,0-4.49.25,5.66,5.66,0,0,0-5.58-3.35,8.07,8.07,0,0,0-.05-3,3.35,3.35,0,0,0-1.59-2.39,4.55,4.55,0,0,0-.56-5.39,2.69,2.69,0,0,0,.37-1.88c-.14-1.7-.38-4.31-.38-4.31A28.26,28.26,0,0,1,142.81,196.59Z" style="fill:#263238"></path><path d="M150.16,263.74a96.24,96.24,0,0,0,17.4,3.91,6,6,0,0,0,5.25-1.5c2.5-2.08,7-2.55,9.71-3.78,2.15-1,3.1-2,3.54-1.61s.54,1.91-.63,3.63a9.7,9.7,0,0,1-3.1,2.88,11.75,11.75,0,0,0-1.88,1c-.78.68.05,1,.68,1.16a13.26,13.26,0,0,0,3.45.13,25.21,25.21,0,0,0,5.21-.49c2.84-.68,5.41-2.33,8.3-2.74a2.84,2.84,0,0,1,1.66.15.61.61,0,0,1,.33.3.67.67,0,0,1,0,.42c-.22.9-1.27,1.39-1.52,2.28a5.56,5.56,0,0,0-.1,1,2.9,2.9,0,0,1-1.08,2,5,5,0,0,0-.84.68,4,4,0,0,0-.53,1.38c-.55,1.78-2.2,3-3.76,4a32,32,0,0,1-3.7,2.17,8.83,8.83,0,0,1-2,.82c-3.46.75-8.87.22-15.46-1s-20.47-.82-26.77-1.55c-8.95-1.05-9-4.64-10.2-11.25-1.4-7.53-2.34-16.48-3.44-30.86-1-13.41,4.32-16.2,9.36-18.63,2.8,1.56,7.58,6.58,8.49,22.34C149.51,255.18,150.16,263.74,150.16,263.74Z" style="fill:#ffbda7"></path><path d="M140,218c-2.81,1.29-7.11,2.91-9.17,9.45s-3.66,22.5-3.66,22.5a20.14,20.14,0,0,0,9.72,4.62c6.21,1.17,13.1-1.67,13.1-1.67s-.64-14-1.47-18.61S145.45,219.68,140,218Z" style="fill:#e6e6e6"></path></g></g><path d="M179.34,206.14a4,4,0,0,0,1.31-.14l1.23-.2a13.41,13.41,0,0,1,2.18-.28c1.7,0,2.9,1.07,4.18,2A16.45,16.45,0,0,1,190,209a3.49,3.49,0,0,1,.78.7,6.36,6.36,0,0,1,.59,2.73c.09.84.33,1.64.36,2.48a27.09,27.09,0,0,1-.22,3.11c-.06.6-.14,1-.83,1-.84,0-1.25-.69-1.73-1.26a1.17,1.17,0,0,0-.9-.44,1.67,1.67,0,0,1-1-.58,5.24,5.24,0,0,1-.59-.81c-.07-.13-.1-.35-.27-.33a1.29,1.29,0,0,1-.25.63c-.23.18-.67,0-.91,0a2.71,2.71,0,0,1-1.64-1.73,16.64,16.64,0,0,1-.8-3.16c-.07-.54,0-1.07-.1-1.6l-.15-1.24c0-.26-.06-.7-.28-.87A8.89,8.89,0,0,0,179.34,206.14Z" style="fill:#b16668"></path><path d="M175.86,357a1.09,1.09,0,0,0,1-.65l21.26-47.71a1.09,1.09,0,1,0-2-.89L174.86,355.5a1.09,1.09,0,0,0,1,1.54Z" style="fill:#263238"></path><path d="M198.1,300.61a2.41,2.41,0,0,1,3.33.64,2.08,2.08,0,0,1,.14,1.74l-3.35,9.67a2.73,2.73,0,0,1-1.25,1.47,2.41,2.41,0,0,1-3.33-.64,2.08,2.08,0,0,1-.14-1.74l3.35-9.67A2.86,2.86,0,0,1,198.1,300.61Z" style="fill:#37474f"></path><path d="M196.85,302.08a2.86,2.86,0,0,1,1.25-1.47,2.41,2.41,0,0,1,3.33.64,2.08,2.08,0,0,1,.14,1.74l-2.11,6.09-4.19-2.42Z" style="fill:#263238"></path><path d="M201.43,301.25a2.41,2.41,0,0,0-3.33-.64,2.86,2.86,0,0,0-1.25,1.47,2.08,2.08,0,0,0,.14,1.74,2.41,2.41,0,0,0,3.33.64,2.73,2.73,0,0,0,1.25-1.47A2.08,2.08,0,0,0,201.43,301.25Z" style="fill:#455a64"></path><path d="M196.73,297.35l8,4.59v4.11c0,2.26.75,3.88,1.94,4.67l.34.19a4.6,4.6,0,0,0,4.38-.5c3.68-2.12,6.67-7.52,6.67-12.06v-4.11L200.25,284v4.12A15.62,15.62,0,0,1,196.73,297.35Z" style="fill:#455a64"></path><path d="M196.73,297.35l8,4.59v4.11c0,2.26.75,3.88,1.94,4.67L189.2,300.66l-.34-.2c-1.21-.79-2-2.41-2-4.67v-4.11Z" style="fill:#37474f"></path><path d="M208.53,312.35a6.86,6.86,0,0,0,3.37-1c4-2.34,7.21-8.05,7.21-13v-4.11a1.12,1.12,0,0,0-.54-.95L200.79,283a1.08,1.08,0,0,0-1.49.4,1.09,1.09,0,0,0,.4,1.49l17.22,9.94v3.48c0,4.11-2.8,9.2-6.11,11.11a3.63,3.63,0,0,1-3.35.48l-.28-.17c-.87-.57-1.39-1.94-1.39-3.72v-4.11a1.1,1.1,0,0,0-.55-.95l-17.78-10.26a1.09,1.09,0,1,0-1.1,1.89l17.24,9.95v3.48c0,2.56.86,4.54,2.42,5.58l.4.23A4.64,4.64,0,0,0,208.53,312.35Z" style="fill:#BA68C8"></path><g style="opacity:0.1"><path d="M208.53,312.35a6.86,6.86,0,0,0,3.37-1c4-2.34,7.21-8.05,7.21-13v-4.11a1.12,1.12,0,0,0-.54-.95L200.79,283a1.08,1.08,0,0,0-1.49.4,1.09,1.09,0,0,0,.4,1.49l17.22,9.94v3.48c0,4.11-2.8,9.2-6.11,11.11a3.63,3.63,0,0,1-3.35.48l-.28-.17c-.87-.57-1.39-1.94-1.39-3.72v-4.11a1.1,1.1,0,0,0-.55-.95l-17.78-10.26a1.09,1.09,0,1,0-1.1,1.89l17.24,9.95v3.48c0,2.56.86,4.54,2.42,5.58l.4.23A4.64,4.64,0,0,0,208.53,312.35Z"></path></g><path d="M180.55,357a7.16,7.16,0,0,0-3.23-5.6,2.18,2.18,0,0,0-2.36-.16h0l-1.38.77,4.63,7.87,1.36-.77h0A2.24,2.24,0,0,0,180.55,357Z" style="fill:#455a64"></path><path d="M175.86,352.22a7.14,7.14,0,0,1,3.23,5.59c0,2.06-1.44,2.9-3.23,1.87a7.16,7.16,0,0,1-3.23-5.6C172.63,352,174.08,351.19,175.86,352.22Z" style="fill:#263238"></path><path d="M171.42,328a1.59,1.59,0,0,0,.43-.06,1.65,1.65,0,0,0,1.15-2l-8.37-30.62a47.08,47.08,0,0,0-22-28.51l-23.72-13.7a1.64,1.64,0,1,0-1.65,2.84L141,269.59a43.76,43.76,0,0,1,20.47,26.54l8.37,30.62A1.64,1.64,0,0,0,171.42,328Z" style="fill:#37474f"></path></g></g></svg>