<svg xmlns="http://www.w3.org/2000/svg" viewBox="0 0 500 500"><g id="freepik--background-complete--inject-40"><rect x="416.78" y="398.49" width="33.12" height="0.25" style="fill:#ebebeb"></rect><rect x="322.53" y="401.21" width="8.69" height="0.25" style="fill:#ebebeb"></rect><rect x="396.59" y="389.21" width="19.19" height="0.25" style="fill:#ebebeb"></rect><rect x="52.46" y="390.89" width="43.19" height="0.25" style="fill:#ebebeb"></rect><rect x="104.56" y="390.89" width="6.33" height="0.25" style="fill:#ebebeb"></rect><rect x="131.47" y="395.11" width="93.68" height="0.25" style="fill:#ebebeb"></rect><path d="M238.4,337.8H45.3a5.71,5.71,0,0,1-5.71-5.71V60.66A5.71,5.71,0,0,1,45.3,55H238.4a5.71,5.71,0,0,1,5.71,5.71V332.09A5.71,5.71,0,0,1,238.4,337.8ZM45.3,55.2a5.47,5.47,0,0,0-5.46,5.46V332.09a5.47,5.47,0,0,0,5.46,5.46H238.4a5.47,5.47,0,0,0,5.46-5.46V60.66a5.47,5.47,0,0,0-5.46-5.46Z" style="fill:#ebebeb"></path><path d="M454.7,337.8H261.6a5.71,5.71,0,0,1-5.71-5.71V60.66A5.71,5.71,0,0,1,261.6,55H454.7a5.71,5.71,0,0,1,5.71,5.71V332.09A5.71,5.71,0,0,1,454.7,337.8ZM261.6,55.2a5.47,5.47,0,0,0-5.46,5.46V332.09a5.47,5.47,0,0,0,5.46,5.46H454.7a5.47,5.47,0,0,0,5.46-5.46V60.66a5.47,5.47,0,0,0-5.46-5.46Z" style="fill:#ebebeb"></path><rect y="382.4" width="500" height="0.25" style="fill:#ebebeb"></rect><rect x="299.21" y="158.66" width="147.73" height="223.73" style="fill:#fafafa"></rect><rect x="310.14" y="180.51" width="128.73" height="201.88" style="fill:#ebebeb"></rect><rect x="375.22" y="185.26" width="60.56" height="192.38" style="fill:#fafafa"></rect><rect x="313.23" y="185.73" width="60.56" height="192.38" style="fill:#fafafa"></rect><rect x="363.81" y="164.84" width="19.48" height="6.65" style="fill:#f0f0f0"></rect><rect x="268.9" y="259.86" width="10.2" height="19.65" style="fill:#e6e6e6"></rect><path d="M274.11,264a3.19,3.19,0,1,1-3.19,3.19A3.19,3.19,0,0,1,274.11,264Z" style="fill:#f5f5f5"></path><polygon points="275.82 267.73 272.41 267.73 274.17 265.33 275.82 267.73" style="fill:#e6e6e6"></polygon><path d="M274.11,270.81a3.19,3.19,0,1,1-3.19,3.19A3.19,3.19,0,0,1,274.11,270.81Z" style="fill:#f5f5f5"></path><polygon points="275.82 273.18 272.41 273.18 274.17 275.58 275.82 273.18" style="fill:#e6e6e6"></polygon><path d="M271.82,292.14c1.09-2.71,3.56-4.27,5.82-3.68s4.09,3.31,4.32,6.36a4,4,0,0,1,5.52-.18,7.9,7.9,0,0,1,2.22,6.75c1.79-1.83,4.73-1.08,5.89,1.52s.26,6.42-1.8,7.66c1.4.13,2.61,1.9,2.57,3.77s-1.31,3.56-2.71,3.59c1.42,0,2.72,1.62,2.89,3.51s-.81,3.84-2.18,4.33c1.44.81,1.81,3.81.63,5.19s-3.35.51-3.76-1.51a.7.7,0,0,1-1.24.25,1.28,1.28,0,0,1,.24-1.64c-.65,1.16-2.31.62-2.49-.81.48,3.31-2.63,6.42-4.86,4.85a3,3,0,0,1-1.44,3.74c-1.18.43-2.41-.18-3.51-.87s-2.23-1.49-3.45-1.47a9.11,9.11,0,0,0-3.08,1.09c-3.24,1.31-7,.06-9.39-3.14-1.69,2.86-5.68,2.09-6.7-1.29-.26,1.62-1.39,2.92-2.63,3a3.09,3.09,0,0,1-2.87-2.6c0,.72-.05,1.45-.08,2.17-2.33.7-4.64-3.12-3.64-6-1.67,0-3.25-1.78-3.46-4s1-4.51,2.58-5c-2.75-1-4.85-4.58-4.88-8.39s2-7.47,4.75-8.52a2.78,2.78,0,0,1,3.2.55c.86,1,1,3.08,0,3.85-.82-3.41.4-7.5,2.76-9.2s5.59-.83,7.27,2a5.63,5.63,0,0,1,0-5.09,2.86,2.86,0,0,1,3.62-1.54c.32-2.34,2.17-4.11,3.93-3.77s3.15,2.75,2.95,5.12c.21-2,2.64-2.56,3.34-.8C273.1,291.49,271.82,292.14,271.82,292.14Z" style="fill:#ebebeb"></path><path d="M271.17,314.16a2.78,2.78,0,0,1,2.49-.76,2.64,2.64,0,0,1,1.82,2.15,2.35,2.35,0,0,1-1.21,2.59c-1,.32-2.08-.76-3.14-.57A6.61,6.61,0,0,0,270,318c-1.52.51-3-.75-4.29-1.94a5.24,5.24,0,0,1-1.19-1.44,2.39,2.39,0,0,1-.13-2,1.83,1.83,0,0,1,2.07-.86,7.55,7.55,0,0,1,4.23,2.24l-.12-.91Z" style="fill:#fafafa"></path><path d="M249.08,312.51a3.89,3.89,0,0,1,1.33-.89,1.2,1.2,0,0,1,1.38.49,2.07,2.07,0,0,1-.39,2.31,3.49,3.49,0,0,1-1.93.83c-.7.14-1.59.17-1.93-.61a1.8,1.8,0,0,1,.32-1.77,3.31,3.31,0,0,1,1.38-.86Z" style="fill:#fafafa"></path><path d="M284,298a6,6,0,0,1,2.82,4.27c.1.57.08,1.29-.31,1.59a1.06,1.06,0,0,1-.95,0l-4.05-1.22a5.38,5.38,0,0,1,1.82,1.23,2.86,2.86,0,0,1,.7,2.34,2,2,0,0,1-1.88,1.59,3.6,3.6,0,0,1-2.23-1.12,3.74,3.74,0,0,1-1.4-2.62c0-1.1,1.08-2.12,1.74-1.41a13.53,13.53,0,0,1-4.34-2.51,4.53,4.53,0,0,1-1.25-1.48,2.59,2.59,0,0,1-.13-2.09c1.38-3.18,3.13,1.48,4,1.9C280.11,299.26,281.93,296.89,284,298Z" style="fill:#fafafa"></path><path d="M290.26,311.53a2,2,0,0,1-.36,1.78.77.77,0,0,1-1.29-.34A4.42,4.42,0,0,1,291,314.7c.57,1,.43,2.64-.47,3a1.83,1.83,0,0,1-1.68-.47,32.41,32.41,0,0,1-4.18-3.48,2.09,2.09,0,0,1-1.57,2.61,4.25,4.25,0,0,1-2.81-1.25c-1.05-.81-2.27-2.05-2-3.58A2,2,0,0,1,281,310a6.3,6.3,0,0,1,2.53,2.45,2.06,2.06,0,0,1,1.23-2.77,2.8,2.8,0,0,1,2.53,1.48c-1.12-.78-1.37-2.82.13-3.05C288.36,308,290,310.5,290.26,311.53Z" style="fill:#fafafa"></path><path d="M259.4,307a1.66,1.66,0,0,1,2.14,1.41,2.18,2.18,0,0,1-1.32,2.55,2.41,2.41,0,0,1,1.71,1.13,1.92,1.92,0,0,1,.36,1.28,1.33,1.33,0,0,1-1.21,1.17,3.06,3.06,0,0,1-1.57-.56,2.48,2.48,0,0,1,1.55.56,1.51,1.51,0,0,1,.23,1.81,1.11,1.11,0,0,1-1.3.18,6.18,6.18,0,0,1-2.64-1.89,2.37,2.37,0,0,1-2.22,1.19,1.94,1.94,0,0,1-1.27-2.29,1.71,1.71,0,0,1,1.37-1.27,3.44,3.44,0,0,1,1.76.35,3.91,3.91,0,0,1-1.41-2c-.22-.86.24-2,.95-1.94s1.21,1.45,1.84,1.95C259.15,309.69,257.69,307.77,259.4,307Z" style="fill:#fafafa"></path><path d="M273.81,302.75a4.74,4.74,0,0,1,1.16,3.71c-.07,1.53-.62,3.17-1.73,3.78-1.46.81-3.29-.73-3.56-2.72a5.33,5.33,0,0,1,2.18-4.94A1.77,1.77,0,0,1,273.81,302.75Z" style="fill:#fafafa"></path><path d="M263.6,301.1l-.37.41a1.63,1.63,0,0,1,2.66-.26,2.87,2.87,0,0,1,0,3.38,1.63,1.63,0,0,1-2.66-.25,2.35,2.35,0,0,1-3.19-.75,3.11,3.11,0,0,1,.43-3.84c1-.72,2.55.37,2.45,1.83l.44-.62Z" style="fill:#fafafa"></path><path d="M252.34,303.4a7.64,7.64,0,0,1,1.74,3.1c.26,1.24-.17,2.82-1.16,3.13s-1.9-.7-2.46-1.76a4.69,4.69,0,0,1-.59-3.25c.29-1.09,1.53-1.74,2.15-.89Z" style="fill:#fafafa"></path><path d="M268.57,295.92a1.49,1.49,0,0,1,2.3-.8,3,3,0,0,1,.71,3A2.67,2.67,0,0,1,269.5,300a2.05,2.05,0,0,1-2.17-2.35,2.13,2.13,0,0,1-2.12,1,4.8,4.8,0,0,1-2.2-1,3.74,3.74,0,0,1-1.83-3.08,2.15,2.15,0,0,1,1.76-2,2.9,2.9,0,0,1,2.34,1.1,22.43,22.43,0,0,0,1.48,1.71,1.56,1.56,0,0,0,1.9.34Z" style="fill:#fafafa"></path><path d="M265.51,327.42a20.67,20.67,0,0,1-2.77,18.47c4.09,0,7.74.28,11.82.28a44.48,44.48,0,0,1-1.24-19.43C271.05,326.74,267.77,327.42,265.51,327.42Z" style="fill:#e0e0e0"></path><polygon points="251.01 382.17 286.33 382.17 289.79 346.57 247.55 346.57 251.01 382.17" style="fill:#ebebeb"></polygon><polygon points="244.81 348.41 292.88 348.41 293.74 343.67 243.95 343.67 244.81 348.41" style="fill:#f5f5f5"></polygon><rect x="53.18" y="181.59" width="109.89" height="200.66" style="fill:#ebebeb"></rect><rect x="69.29" y="157.06" width="77.67" height="13.31" style="fill:#f0f0f0"></rect><rect x="58.83" y="186.46" width="98.59" height="195.79" style="fill:#fafafa"></rect><rect x="58.83" y="275.02" width="98.59" height="24.92" style="fill:#f0f0f0"></rect><rect x="58.83" y="357.61" width="98.59" height="24.92" style="fill:#f0f0f0"></rect><path d="M150.81,296.8V277.17a1.88,1.88,0,0,0-1.88-1.89h0a1.89,1.89,0,0,0-1.89,1.89V296.8a1.9,1.9,0,0,0,1.89,1.9h0A1.9,1.9,0,0,0,150.81,296.8Z" style="fill:#fff"></path><rect x="66.53" y="189.55" width="17.15" height="82.44" style="fill:#e0e0e0"></rect><rect x="68.25" y="191.38" width="13.85" height="78.75" style="fill:#ebebeb"></rect><polygon points="82.09 202.51 68.25 207.95 68.25 221.29 82.09 215.85 82.09 202.51" style="fill:#f5f5f5"></polygon><polygon points="82.09 218.57 68.25 224.01 68.25 229.12 82.09 223.68 82.09 218.57" style="fill:#f5f5f5"></polygon><polygon points="82.09 246.33 68.25 251.77 68.25 256.88 82.09 251.44 82.09 246.33" style="fill:#f5f5f5"></polygon><rect x="188.25" y="330.84" width="33.21" height="1.27" style="fill:#e6e6e6"></rect></g><g id="freepik--Shadow--inject-40"><ellipse id="freepik--path--inject-40" cx="250" cy="435.42" rx="229.02" ry="13.37" style="fill:#f5f5f5"></ellipse></g><g id="freepik--character-5--inject-40"><polygon points="400.33 293.88 394.36 337.1 409.73 336.87 400.33 293.88" style="fill:#407BFF"></polygon><polygon points="400.33 293.88 394.36 337.1 409.73 336.87 400.33 293.88" style="fill:#fff;opacity:0.6000000000000001"></polygon><polygon points="387.47 414.05 389.18 429 396.72 428.43 396.34 412.68 387.47 414.05" style="fill:#ffb573"></polygon><polygon points="396.58 422.62 396.49 418.9 388.06 419.23 388.52 423.23 396.58 422.62" style="opacity:0.1"></polygon><path d="M385.86,429.05a3.39,3.39,0,0,1-2.37-.44.72.72,0,0,1,0-.82,1,1,0,0,1,.56-.48c1.29-.46,4.16.93,4.29,1a.2.2,0,0,1,.11.19.19.19,0,0,1-.14.16A14.1,14.1,0,0,1,385.86,429.05Zm-1.37-1.45a1,1,0,0,0-.35.07.53.53,0,0,0-.35.29c-.12.24-.07.35,0,.41.41.49,2.4.36,3.86.07A8.62,8.62,0,0,0,384.49,427.6Z" style="fill:#407BFF"></path><path d="M388.24,428.65a.11.11,0,0,1-.08,0c-1-.35-3-1.94-2.9-2.84,0-.21.15-.49.66-.58a1.45,1.45,0,0,1,1.07.25c1.06.76,1.43,2.88,1.45,3a.17.17,0,0,1-.08.17A.13.13,0,0,1,388.24,428.65Zm-2.17-3.07H386c-.34.05-.35.19-.36.24,0,.54,1.33,1.79,2.35,2.3a4.42,4.42,0,0,0-1.22-2.35,1,1,0,0,0-.67-.19Z" style="fill:#407BFF"></path><path d="M389,427.48l8.64-.61a.71.71,0,0,1,.72.49l2.06,6.93a1.16,1.16,0,0,1-.77,1.45l-.24.05c-3.12.16-5.9.19-9.77.47-4.57.33-3.38-.15-8.75.31-3.23.27-4.09-2.43-2.73-2.71,6.23-1.24,6.75-3.19,9-5.61A2.85,2.85,0,0,1,389,427.48Z" style="fill:#263238"></path><polygon points="432.49 411.1 437.98 425.1 445.12 422.61 440.72 407.49 432.49 411.1" style="fill:#ffb573"></polygon><polygon points="435.96 419.97 443.64 417.52 441.96 411.75 433.71 414.2 435.96 419.97" style="opacity:0.1"></polygon><path d="M435.1,426.45a3.28,3.28,0,0,1-2.34,0,.68.68,0,0,1-.19-.77.9.9,0,0,1,.43-.56c1.14-.69,4.14.07,4.27.11a.17.17,0,0,1,.13.16.18.18,0,0,1-.1.18A14.65,14.65,0,0,1,435.1,426.45Zm-1.58-1.12a1.15,1.15,0,0,0-.32.14.5.5,0,0,0-.28.34c-.07.26,0,.35.07.4.48.38,2.35-.12,3.68-.68A8.58,8.58,0,0,0,433.52,425.33Z" style="fill:#407BFF"></path><path d="M437.27,425.61a.1.1,0,0,1-.07,0c-1-.15-3.22-1.26-3.29-2.14,0-.21,0-.49.51-.67a1.35,1.35,0,0,1,1.06,0c1.16.52,1.91,2.46,1.95,2.55a.2.2,0,0,1,0,.18A.13.13,0,0,1,437.27,425.61Zm-2.64-2.49h-.1c-.31.12-.3.25-.3.3.1.52,1.61,1.45,2.68,1.74a4.23,4.23,0,0,0-1.61-2,.92.92,0,0,0-.67-.05Z" style="fill:#407BFF"></path><path d="M437.77,424.36l8.08-2.25a.68.68,0,0,1,.77.34l3.29,6.17a1.14,1.14,0,0,1-.45,1.53l-.22.09c-2.93.76-5.56,1.32-9.19,2.33-4.27,1.19-3,1.4-8.05,2.87-3,.89-4.54-2.41-3.3-2.94,5.68-2.37,5.79-4.32,7.48-7.06A2.69,2.69,0,0,1,437.77,424.36Z" style="fill:#263238"></path><path d="M381.9,270s-5.11,62.87-4.24,83.83c.67,16,8.31,63.57,8.31,63.57l12-.9s-1.19-76.36,3.58-104.7c1.9-11.31,8.38-41.83,8.38-41.83Z" style="fill:#263238"></path><path d="M404.45,291.1,402.32,283,396.88,286l2,54.89C399.57,326.1,402.29,300.08,404.45,291.1Z" style="opacity:0.2"></path><path d="M394,269.81s10.44,76.35,17,92.16c5.47,13.18,20.72,52.66,20.72,52.66l11-3.64s-17.38-83-19.39-100.12c-1.1-9.42-.42-33.27-3.79-40.81Z" style="fill:#263238"></path><polygon points="384.37 414.62 385.34 420.71 399.53 419.49 399.56 413.72 384.37 414.62" style="fill:#407BFF"></polygon><polygon points="429.56 412.77 432.09 418.4 445.21 413.53 443.96 407.86 429.56 412.77" style="fill:#407BFF"></polygon><path d="M379.23,208.2l1.36,65,40.8.66,3.34-59.84a7.37,7.37,0,0,0-6-7.67l-25.33-4.84-7.45.36C379.69,202.2,379.13,203.55,379.23,208.2Z" style="fill:#407BFF"></path><path d="M369.57,339.44l5.73.74a7.88,7.88,0,0,0,8.87-7.38l3.28-59.45.49-8.92,5.42-62.88s-3,0-9.51.49c-4.81.12-9.06,3.28-10.49,8.91-3.61,14.08-4.65,17.57-6.8,30.46,2.93-1.24,7.28-2.82,10.2-4,.77-3.73,1.78-8.3,2.8-12.88l.73,34.19Z" style="fill:#407BFF"></path><path d="M369.57,339.44l5.73.74a7.88,7.88,0,0,0,8.87-7.38l3.28-59.45.49-8.92,5.42-62.88s-3,0-9.51.49c-4.81.12-9.06,3.28-10.49,8.91-3.61,14.08-4.65,17.57-6.8,30.46,2.93-1.24,7.28-2.82,10.2-4,.77-3.73,1.78-8.3,2.8-12.88l.73,34.19Z" style="fill:#fff;opacity:0.7000000000000001"></path><path d="M439.42,335.49l-17.17-77,2.48-44.4a7.38,7.38,0,0,0-6.05-7.67l-8.47-1.54h0s1.47,44.82,2.55,59.73c.18,2.48.44,5.63.77,9.21.07.71.13,1.45.2,2.19v0c.53,5.66,1.18,12.21,1.87,18.89,0,.12,0,.24,0,.36.26,2.59.54,5.21.81,7.8v.05c.33,3.08.65,6.13,1,9.07a1.37,1.37,0,0,0,0,.19c.73,6.87,1.42,13.12,1.93,17.78a8,8,0,0,0,9.21,7Z" style="fill:#407BFF"></path><path d="M439.42,335.49l-17.17-77,2.48-44.4a7.38,7.38,0,0,0-6.05-7.67l-8.47-1.54h0s1.47,44.82,2.55,59.73c.18,2.48.44,5.63.77,9.21.07.71.13,1.45.2,2.19v0c.53,5.66,1.18,12.21,1.87,18.89,0,.12,0,.24,0,.36.26,2.59.54,5.21.81,7.8v.05c.33,3.08.65,6.13,1,9.07a1.37,1.37,0,0,0,0,.19c.74,6.94,1.43,13.25,1.95,17.92a7.86,7.86,0,0,0,9,6.91Z" style="fill:#fff;opacity:0.7000000000000001"></path><path d="M411.83,247.47l5.7.64,1.09-31.35L424,227l-2.35,24a6.38,6.38,0,0,1-8.74,5.28l-.58-.23C412.17,253,412,251.16,411.83,247.47Z" style="opacity:0.2"></path><path d="M394.55,204.42l.6.49a9.62,9.62,0,0,0,5.21,2.15h0a9.87,9.87,0,0,0,3.25-.24l5.61-1.39,0-.05c-2.46-5-.63-14.41.88-19.75l-12.3,8.87C398.44,198.22,398,202.29,394.55,204.42Z" style="fill:#ffb573"></path><path d="M402.66,192.91s-2.38.68-4.83,1.64a13.58,13.58,0,0,1-.07,5.28c6.16.32,9.29-3.71,10.71-6.5.11-.8.25-1.59.39-2.36Z" style="opacity:0.1"></path><g style="opacity:0.2"><polygon points="394.11 207.32 398.92 213.94 405.79 208.97 404.01 206.57 396.14 205.93 394.11 207.32"></polygon></g><path d="M383.22,231.37a.33.33,0,0,0,.32-.54l-1.08-1.09a7,7,0,0,1-1.48-7.81l5.37-12.27a4.45,4.45,0,0,1,8.51,1.52l.81,13.36a7,7,0,0,1-4.09,6.83l-1.39.64a.33.33,0,1,0,.3.58l1.39-.64a7.65,7.65,0,0,0,4.44-7.48l-.85-13.34a5.1,5.1,0,0,0-9.76-1.74l-5.37,12.26a7.65,7.65,0,0,0,1.65,8.56l1.08,1.07A.24.24,0,0,0,383.22,231.37Z" style="fill:#263238"></path><path d="M384.9,212.25a.32.32,0,0,0,.39-.17A5.28,5.28,0,0,1,395,213.8a.34.34,0,0,0,.34.33.33.33,0,0,0,.32-.34v0a5.93,5.93,0,0,0-11-1.95.33.33,0,0,0,.16.43Z" style="fill:#263238"></path><path d="M391.18,207.06h0a.32.32,0,0,0,.39-.23h0c.39-1.57,1.48-4.3,3.16-4.57a.33.33,0,0,0,.27-.38.33.33,0,0,0-.38-.27h0c-2.44.43-3.54,4.6-3.65,5.07A.32.32,0,0,0,391.18,207.06Z" style="fill:#263238"></path><path d="M389.6,232.17c-.11.62.13,1.17.53,1.24s.82-.36.92-1-.12-1.17-.52-1.23S389.71,231.57,389.6,232.17Z" style="fill:#263238"></path><path d="M382.58,230.93c-.11.61.13,1.16.54,1.23s.81-.36.91-1-.13-1.16-.53-1.23S382.69,230.32,382.58,230.93Z" style="fill:#263238"></path><path d="M408.86,223.77c-.12,1.41.53,2.63,1.42,2.7s1.77-1,1.91-2.4-.53-2.62-1.42-2.69S409,222.37,408.86,223.77Z" style="fill:#263238"></path><path d="M411.67,224.24l.06,0a.34.34,0,0,0,.4-.24C413.6,218.7,413.45,209,411,205a.32.32,0,0,0-.43-.18.33.33,0,0,0-.18.43.47.47,0,0,0,.06.09c2.34,3.89,2.5,13.28,1.05,18.53A.33.33,0,0,0,411.67,224.24Z" style="fill:#263238"></path><path d="M407.9,223.59c-.17,1.18.38,2.25,1.24,2.38s1.71-.73,1.89-1.92a1.94,1.94,0,0,0-1.24-2.37C408.93,221.55,408.07,222.4,407.9,223.59Z" style="fill:#fff"></path><path d="M407.79,223.67c-.17,1.47.23,2.74.9,2.82s1.37-1.05,1.54-2.54-.23-2.74-.9-2.82S408,222.19,407.79,223.67Z" style="fill:#263238"></path><polygon points="393.58 201.43 395.86 200.41 400.5 205.23 409.1 202.43 411.2 204.7 404.01 212.1 400.23 206.9 394.99 210.66 393.58 201.43" style="fill:#407BFF"></polygon><g style="opacity:0.8"><polygon points="393.58 201.43 395.86 200.41 400.5 205.23 409.1 202.43 411.2 204.7 404.01 212.1 400.23 206.9 394.99 210.66 393.58 201.43" style="fill:#fff"></polygon></g><path d="M392.88,171.12s-.26-9.19,7.47-5.39Z" style="fill:#263238"></path><path d="M392.88,171.12s-.26-9.19,7.47-5.39Z" style="fill:#fff;opacity:0.7000000000000001"></path><path d="M413.08,178.1c-1.52,7.62-2,12.15-6.45,15.55-6.64,5.13-15.62.28-16.39-7.62-.69-7.16,1.93-18.38,9.85-20.4a10.58,10.58,0,0,1,13,12.47Z" style="fill:#ffb573"></path><path d="M391.57,171.69c0-.57.47-1.78,1.77-1.16,0,0,1.32-1.31,2.17.12,0,0,1.6.15,1.45,1.2-.2,1.35-1.29.14-2.95.36S391.51,172.66,391.57,171.69Z" style="fill:#263238"></path><path d="M391.57,171.69c0-.57.47-1.78,1.77-1.16,0,0,1.32-1.31,2.17.12,0,0,1.6.15,1.45,1.2-.2,1.35-1.29.14-2.95.36S391.51,172.66,391.57,171.69Z" style="fill:#fff;opacity:0.6000000000000001"></path><path d="M404.09,173.3c.08-.56-.09-1.84-1.5-1.5,0,0-1-1.55-2.14-.32,0,0-1.6-.19-1.67.86-.08,1.37,1.24.41,2.82,1S404,174.26,404.09,173.3Z" style="fill:#263238"></path><path d="M404.09,173.3c.08-.56-.09-1.84-1.5-1.5,0,0-1-1.55-2.14-.32,0,0-1.6-.19-1.67.86-.08,1.37,1.24.41,2.82,1S404,174.26,404.09,173.3Z" style="fill:#fff;opacity:0.6000000000000001"></path><path d="M390,185.21s5.54-1.68,13.18.75c0,0,2.48.42,4.05-2.62l1.09-2.11,1.71.78.79,6.37s-2,6.31-3.86,6.46c0,0-2.35,3-5.79,2,0,0-2,2.3-5.62-1,0,0-2.05-.15-3.44-3.75C392.14,192,390.18,191.31,390,185.21Z" style="fill:#263238"></path><path d="M390,185.21s5.54-1.68,13.18.75c0,0,2.48.42,4.05-2.62l1.09-2.11,1.71.78.79,6.37s-2,6.31-3.86,6.46c0,0-2.35,3-5.79,2,0,0-2,2.3-5.62-1,0,0-2.05-.15-3.44-3.75C392.14,192,390.18,191.31,390,185.21Z" style="fill:#fff;opacity:0.7000000000000001"></path><path d="M397.11,187.2c-.08.63-.49,1.09-.9,1s-.66-.6-.57-1.23.48-1.09.89-1S397.2,186.61,397.11,187.2Z" style="fill:#263238"></path><path d="M396.71,177.59a16.5,16.5,0,0,1-4.5,4,3.39,3.39,0,0,0,2.38,1.61Z" style="fill:#ed893e"></path><path d="M396.2,176.44a3.24,3.24,0,1,1-3.48-3A3.24,3.24,0,0,1,396.2,176.44Z" style="fill:#407BFF"></path><path d="M404.47,177.81a3.23,3.23,0,1,1-3.47-3A3.24,3.24,0,0,1,404.47,177.81Z" style="fill:#407BFF"></path><path d="M396.2,176.44a3.24,3.24,0,1,1-3.48-3A3.24,3.24,0,0,1,396.2,176.44Z" style="fill:#fff;opacity:0.6000000000000001"></path><path d="M404.47,177.81a3.23,3.23,0,1,1-3.47-3A3.24,3.24,0,0,1,404.47,177.81Z" style="fill:#fff;opacity:0.6000000000000001"></path><path d="M391.08,179.29a3.18,3.18,0,0,0,2.13.62,3.24,3.24,0,0,0,3-3.47,3.19,3.19,0,0,0-.94-2Z" style="fill:#fff;opacity:0.9"></path><path d="M399.16,180.53a3.2,3.2,0,0,0,2.33.75,3.24,3.24,0,0,0,1.89-5.66Z" style="fill:#fff;opacity:0.9"></path><path d="M393.23,180.19a3.52,3.52,0,1,1,3.24-3.77A3.51,3.51,0,0,1,393.23,180.19Zm-.48-6.47a3,3,0,1,0,3.17,2.74A3,3,0,0,0,392.75,173.72Z" style="fill:#263238"></path><path d="M401.51,181.56a3.52,3.52,0,1,1,3.23-3.77A3.53,3.53,0,0,1,401.51,181.56Zm-.49-6.47a3,3,0,1,0,3.17,2.74A3,3,0,0,0,401,175.09Z" style="fill:#263238"></path><path d="M397.73,177.52a.94.94,0,0,0-1.37-.28l-.34-.44a1.5,1.5,0,0,1,2.14.37Z" style="fill:#263238"></path><polygon points="410.85 182.28 404.2 179.33 404.43 178.82 411.07 181.77 410.85 182.28" style="fill:#263238"></polygon><path d="M408.33,182.27a16.63,16.63,0,0,1-1.06-5.51,5.62,5.62,0,0,1,2.57-4.75,2.28,2.28,0,0,1,3-1.74,6.65,6.65,0,0,1,2.78,2.8,3.22,3.22,0,0,1,2.87,2.63,5.39,5.39,0,0,1-.76,4.23,11.75,11.75,0,0,1-3.08,3.13c-1.08.82-2.18,2-3.51,1.74A3.68,3.68,0,0,1,408.33,182.27Z" style="fill:#263238"></path><path d="M408.33,182.27a16.63,16.63,0,0,1-1.06-5.51,5.62,5.62,0,0,1,2.57-4.75,2.28,2.28,0,0,1,3-1.74,6.65,6.65,0,0,1,2.78,2.8,3.22,3.22,0,0,1,2.87,2.63,5.39,5.39,0,0,1-.76,4.23,11.75,11.75,0,0,1-3.08,3.13c-1.08.82-2.18,2-3.51,1.74A3.68,3.68,0,0,1,408.33,182.27Z" style="fill:#fff;opacity:0.7000000000000001"></path><path d="M415.84,185.79a7.37,7.37,0,0,1-5,2.59c-2.58.2-3.37-2.22-2.24-4.4,1-1.95,3.58-4.42,6-3.61S417.37,183.93,415.84,185.79Z" style="fill:#ffb573"></path><path d="M392.55,243.27,387,240.7a3.53,3.53,0,0,0-1.6-.32l-5.53.23a3.52,3.52,0,0,1-3-1.54l-2.17-3.23a3.49,3.49,0,0,1,1.05-4.92l1-.63a3.49,3.49,0,0,1,4.26.46h0a3.55,3.55,0,0,0,2.08,1l.32,0a3.47,3.47,0,0,1,3.05,2.68l.19.84,8,2.51Z" style="fill:#ffb573"></path><polygon points="395.9 236.61 390 234.64 387.47 242.26 393.13 244.46 395.9 236.61" style="fill:#263238"></polygon><g style="opacity:0.7000000000000001"><polygon points="395.9 236.61 390 234.64 387.47 242.26 393.13 244.46 395.9 236.61" style="fill:#fff"></polygon></g><path d="M418.69,209.71a13.14,13.14,0,0,1,1.12-3c3.1.31,11,4.94,10.81,12.82-.21,8.22-6.11,23.64-8.95,30.64a6.64,6.64,0,0,1-8.57,3.68l-21.94-8.63,3.21-10.65L409,239.33a2.46,2.46,0,0,0,3.16-1.78Z" style="fill:#407BFF"></path><path d="M418.69,209.71a13.14,13.14,0,0,1,1.12-3c3.1.31,11,4.94,10.81,12.82-.21,8.22-6.11,23.64-8.95,30.64a6.64,6.64,0,0,1-8.57,3.68l-21.94-8.63,3.21-10.65L409,239.33a2.46,2.46,0,0,0,3.16-1.78Z" style="fill:#fff;opacity:0.7000000000000001"></path><path d="M396.07,236.28l6.08.3a3.53,3.53,0,0,0,1.61-.3l5-2.28a3.46,3.46,0,0,1,3.38.29l3.23,2.18a3.5,3.5,0,0,1,.87,4.95l-.71,1a3.48,3.48,0,0,1-4.12,1.17h0a3.5,3.5,0,0,0-2.28-.12l-.31.09a3.48,3.48,0,0,1-3.83-1.34l-.5-.71-8.38.68Z" style="fill:#ffb573"></path><polygon points="395.16 235.97 401.38 235.81 401.58 243.84 395.52 244.3 395.16 235.97" style="fill:#263238"></polygon><g style="opacity:0.7000000000000001"><polygon points="395.16 235.97 401.38 235.81 401.58 243.84 395.52 244.3 395.16 235.97" style="fill:#fff"></polygon></g><path d="M366.56,241.4a6.64,6.64,0,0,0,7.12,6l23.51-1.84,0-11.12-15.38.3C366.89,233.93,366.56,241.4,366.56,241.4Z" style="fill:#407BFF"></path><g style="opacity:0.7000000000000001"><path d="M366.56,241.4a6.64,6.64,0,0,0,7.12,6l23.51-1.84,0-11.12-15.38.3C366.89,233.93,366.56,241.4,366.56,241.4Z" style="fill:#fff"></path></g><path d="M421.3,297.23h6.41a3.27,3.27,0,0,1,3.27,3.27v1.19a0,0,0,0,1,0,0H418a0,0,0,0,1,0,0v-1.19A3.27,3.27,0,0,1,421.3,297.23Z" transform="translate(802.05 656.31) rotate(-171.82)" style="fill:#407BFF"></path><path d="M421.3,297.23h6.41a3.27,3.27,0,0,1,3.27,3.27v1.19a0,0,0,0,1,0,0H418a0,0,0,0,1,0,0v-1.19A3.27,3.27,0,0,1,421.3,297.23Z" transform="translate(802.05 656.31) rotate(-171.82)" style="fill:#fff;opacity:0.6000000000000001"></path></g><g id="freepik--character-4--inject-40"><path d="M364.56,291l-2.38-.44a2.82,2.82,0,0,1-2-1.58l-1.79-3.86a5.21,5.21,0,0,1,.21-4.81l.52-.92c4,.47,9.21,4.79,9.21,4.79a2.35,2.35,0,0,1,.67,3.25l-1.67,2.49A2.68,2.68,0,0,1,364.56,291Z" style="fill:#ffc3bd"></path><path d="M343.8,260.19c.06-6.29.32-13,.32-18.61,0-7.12-3.21-12.3-10.43-11.64a4.35,4.35,0,0,0-1.79.48s-.06,30.28,1.84,34.35a86,86,0,0,0,24.09,19.65c.83-2.46,2.18-3,4.32-4.42C355.85,274,349.77,266.49,343.8,260.19Z" style="fill:#407BFF"></path><path d="M343.8,260.19c.06-6.28.18-12.24.32-17.1.25-8.85-3.22-13.82-10.44-13.15a4.3,4.3,0,0,0-1.78.48s-.06,30.28,1.84,34.35a86,86,0,0,0,24.09,19.65c.83-2.46,2.18-3,4.32-4.42C355.85,274,349.77,266.49,343.8,260.19Z" style="fill:#fff;opacity:0.6000000000000001"></path><g id="freepik--freepik--Character--inject-5--inject-40"><path d="M316.73,309.46c1.36,5.53,3.09,11.67,5.3,18.35.65-13.45,4.29-31.47,4.41-32.08Z"></path><path d="M328.74,288.88l-16.23,69L295,412.61l-7-1.3A241.38,241.38,0,0,1,293.36,370c1.09-4.64,3.75-9.62,4.32-13.36.5-3.29-.16-5.63.2-13.3.45-9.26,1.68-21.5,4.93-30.34,0,0-6.37-12.42-.09-24.88Z" style="fill:#ffc3bd"></path><polygon points="292.31 423.4 287.26 421.67 287.77 412.94 288.64 404.97 296.57 405.85 294.32 415.14 292.31 423.4" style="fill:#ffc3bd"></polygon><path d="M297.06,435.46a8.84,8.84,0,0,0-2.34-2.18h0s-2.21-3.68-1.36-12.86l-3.61-2a3.41,3.41,0,0,0-3.87.47,1.78,1.78,0,0,0-.37.45,22.27,22.27,0,0,0-1.13,2.72,82.84,82.84,0,0,0-2.54,9.67l.69.2,1.83-6c.6-2.05,1.6.79,1.49,3.12s.24,5,4.74,6.23C295.82,436.74,298.07,437.09,297.06,435.46Z" style="fill:#2e353a"></path><path d="M293.48,417.09s-.21,4.24,0,9.05a19.12,19.12,0,0,0,1.28,7.14s-3.55-.26-4.43-2.92-.9-10.95-4.44-11.43a8.94,8.94,0,0,1,1.4-1.35C288.08,416.94,293.48,417.09,293.48,417.09Z" style="fill:#ffc3bd"></path><path d="M340.56,285.24,344.71,356l-1.19,57.46-7.06.74a241.2,241.2,0,0,1-6.65-41.13c-.28-4.76.85-10.29.33-14-.46-3.29-1.77-5.35-3.6-12.8-2.22-9-4.54-21.09-4-30.49,0,0-9.65-10.08-7.18-23.81Z" style="fill:#ffc3bd"></path><polygon points="344.05 424.57 338.72 424.35 336.72 415.84 335.28 407.95 343.13 406.53 343.62 416.07 344.05 424.57" style="fill:#ffc3bd"></polygon><path d="M352.05,434.77a8.57,8.57,0,0,0-2.87-1.42h0s-3.16-2.9-5-11.94l-4-.88a3.39,3.39,0,0,0-3.57,1.56,1.45,1.45,0,0,0-.23.54,21.9,21.9,0,0,0-.31,2.92,83.41,83.41,0,0,0,.33,10h.72l0-6.28c0-2.14,1.76.3,2.31,2.57s1.65,4.68,6.33,4.61C351.22,436.34,353.48,436,352.05,434.77Z" style="fill:#2e353a"></path><path d="M343.38,418.18s1,4.13,2.54,8.68a19,19,0,0,0,3.26,6.49s-3.47.76-5.08-1.54-4-10.24-7.51-9.68a8.16,8.16,0,0,1,1-1.7C338.15,419.58,343.38,418.18,343.38,418.18Z" style="fill:#ffc3bd"></path><path d="M343.67,325.11l.45,17.11s-21.65,0-32.3,0-15.11.09-15.11.09-3-27.44,4-41.74,1.8-23,1.8-23,36.68-1.95,36.68,0Z" style="fill:#263238"></path><path d="M341.73,239.57a67,67,0,0,1,.07,13.56c-.25,6.06-1.57,12.44-3.22,22.25-3.32,1.94-20.11,1.14-30.85-.25.65-8.6-.42-18.43-6.24-37.77a7.15,7.15,0,0,1,6.47-9.25c1.28-.13,2.65-.23,4.05-.29a109.71,109.71,0,0,1,14.73,0c1.57.14,3.26.33,4.85.53C337.31,229.1,340.68,233.5,341.73,239.57Z" style="fill:#407BFF"></path><path d="M339.16,277.45a146.15,146.15,0,0,1-32.59-.07.78.78,0,0,1-.59-.93l0-.1c.27-.63.53-1.25.78-1.88a.69.69,0,0,1,.7-.43,142.69,142.69,0,0,0,31.33,0,.7.7,0,0,1,.78.6.43.43,0,0,0,0,.05c.07.65.13,1.3.19,1.95a.73.73,0,0,1-.64.81Z" style="fill:#407BFF"></path><path d="M322.67,204.39c.58,3.76,5.33,16.72,5.41,17.09-.92,0-1.86-.23-2.78-.28-.36-1-1.25-3.23-1.61-4.2-.13.74.64,3.12.51,3.87-1-.15-2.14-.49-3.12-.63l-.87-4.55c-.31,1.22.08,3,.11,4.21-.32.07-1.25-.58-1.25-.58s-.28-2.89-.42-4.48c-.08,1.21-.28,2.66-.35,3.87-3.12-1.66-3.9-4.77-4.13-9.09a20.29,20.29,0,0,1,1.66-10.27c2.06-4.12,4-7.54,8.42-8.69A124.3,124.3,0,0,0,322.67,204.39Z" style="fill:#263238"></path><path d="M313,211.24c1.28,4.71,2.85,13.43-.22,16.59,0,0,4.06,3.27,12.69,6.41,2.57-.66,2-6.41,2-6.41-5.39-1.26-5.54-5.18-4.89-8.86Z" style="fill:#ffc3bd"></path><path d="M312.48,227.1s5.57,5,7.24,16.89c2.65,19.27,1.27,56.39.27,77.6a4.59,4.59,0,0,1-6.21,4.08c-6.62-2.47-17.44-.53-22.3-4.72-.34-6.39,10.77-39,9.69-55.92s-3.18-31.62-1-34.8S312.48,227.1,312.48,227.1Z" style="fill:#407BFF"></path><path d="M327.15,227.57c8,10.27,8.58,43.93,6.54,93.82-.18,4.35,4,4,8.08,3.19,6.08-1.25,8.49-.8,8.49-.8s-9.7-33.73-8.13-56.58.49-30.92-3.22-35.15S327.15,227.57,327.15,227.57Z" style="fill:#407BFF"></path><path d="M327.15,227.57c8,10.27,8.58,43.93,6.55,93.82-.18,4.35,3.78,3.88,8.07,3.19a49.31,49.31,0,0,1,8.49-.8s-9.7-33.73-8.13-56.58.49-30.92-3.22-35.15S327.15,227.57,327.15,227.57Z" style="fill:#fff;opacity:0.7000000000000001"></path><path d="M312.48,227.1s5.57,5,7.24,16.89c2.65,19.27,1.12,56.39.12,77.6a4.59,4.59,0,0,1-6.21,4.08c-6.62-2.47-17.29-.53-22.15-4.72-.34-6.39,10.77-39,9.69-55.92s-3.18-31.62-1-34.8S312.48,227.1,312.48,227.1Z" style="fill:#fff;opacity:0.7000000000000001"></path><path d="M317,214.39l5.69,4.57a15.3,15.3,0,0,0-.25,2.62c-2-.29-5-2.51-5.36-4.63A7.34,7.34,0,0,1,317,214.39Z" style="opacity:0.2"></path><path d="M321.88,193.9a36.05,36.05,0,0,1,6.74,26.39,38.89,38.89,0,0,0,4-16.92,17.89,17.89,0,0,0-1.37-8.53c-1.3-2.61-3.95-4.72-6.86-4.61a4.08,4.08,0,0,0-2.81,1.15C320.85,192.14,321.26,193.06,321.88,193.9Z" style="fill:#263238"></path><path d="M309,201.73c1.44,7.65,1.89,10.92,6.28,14.59,6.58,5.49,15.61,2.6,16.49-5.2.79-7-1.7-18.37-9.59-20.9A10,10,0,0,0,309,201.73Z" style="fill:#ffc3bd"></path><path d="M322.28,203.48c.19.63.67,1.06,1.07,1s.59-.68.41-1.3-.67-1.07-1.07-1S322.11,202.85,322.28,203.48Z" style="fill:#263238"></path><path d="M328.79,201.91c.19.63.66,1.07,1.07,1s.59-.67.4-1.3-.66-1.06-1.07-1S328.61,201.28,328.79,201.91Z" style="fill:#263238"></path><path d="M329,200.69l1.37-.77S330,201.28,329,200.69Z" style="fill:#263238"></path><path d="M327,203.41a18.79,18.79,0,0,0,3.38,3.52,2.62,2.62,0,0,1-2.09.91Z" style="fill:#ba4d3c"></path><path d="M325.37,210.94a6.29,6.29,0,0,0,1.06-.15.18.18,0,0,0,.14-.22h0a.21.21,0,0,0-.24-.14,5.42,5.42,0,0,1-4.58-1.06.19.19,0,0,0-.27,0h0a.19.19,0,0,0,0,.26h0A5.66,5.66,0,0,0,325.37,210.94Z" style="fill:#263238"></path><path d="M312.37,213.41c.44,3.54.86,6.51.86,6.69-.88-.24-2.63-.61-3.52-.84a20.54,20.54,0,0,1-.95-2.62,19.44,19.44,0,0,1-.06,2.07c-.93-.34-2-.91-2.93-1.25l-.16-2.48a14.73,14.73,0,0,1-.51,2,2.31,2.31,0,0,1-1.38-1,11.75,11.75,0,0,0,.47-1.71c-.53,1-.83,1.17-.83,1.17-3.22-2.68-2.8-6.69-1.75-12.24.49-2.64,4.68-15.58,13.29-14-.21.48-.43,1-.66,1.58C311.44,197.92,311.41,205.74,312.37,213.41Z" style="fill:#263238"></path><path d="M309.45,209.48a5.33,5.33,0,0,0,3.58,2.43c1.82.25,2.35-1.87,1.51-3.82-.79-1.76-2.62-4-4.29-3.36S308.37,207.8,309.45,209.48Z" style="fill:#ffc3bd"></path><path d="M319.36,201a.33.33,0,0,0,.21-.19,2.76,2.76,0,0,1,2-1.78.35.35,0,0,0,.3-.39s0,0,0,0a.4.4,0,0,0-.47-.3,3.48,3.48,0,0,0-2.52,2.21.4.4,0,0,0,.24.49A.34.34,0,0,0,319.36,201Z" style="fill:#263238"></path><path d="M330.23,198.21a.35.35,0,0,0,.34-.37.35.35,0,0,0-.15-.28,4,4,0,0,0-3.41-1,.35.35,0,0,0-.25.43v0a.4.4,0,0,0,.48.27,3.19,3.19,0,0,1,2.69.79A.46.46,0,0,0,330.23,198.21Z" style="fill:#263238"></path><path d="M322.52,202.26l1.37-.77S323.46,202.84,322.52,202.26Z" style="fill:#263238"></path><path d="M325.63,298.3c3.95-10.9,7.42-27.4,7.24-41.8-9.67.63-18.41-.41-27.9-2.33-1.61,17-1.53,24.22-7,42C298,296.12,321,301.15,325.63,298.3Z" style="fill:#fff"></path><path d="M332.87,256.5l-9.29,6.77-11.67-.66L305,254.17S315,257,332.87,256.5Z" style="opacity:0.2"></path><path d="M332.87,256.5l-4.28-8.21-17.17-1.24L305,254.17S319.3,258.1,332.87,256.5Z" style="fill:#fff"></path><path d="M321.08,281.14,320,279a2.81,2.81,0,0,0-2.08-1.53l-5.37-1.14c-1.68-.26-2.2.78-3.39,2l-.74.76c1.55,3.71,6,6.58,6,6.58l1.16,1a2.36,2.36,0,0,0,3.32-.23h0l1.92-2.29A2.7,2.7,0,0,0,321.08,281.14Z" style="fill:#ffc3bd"></path><path d="M298.86,231l-.66.8c-.44.53-.87,1-1.25,1.57-.82,1.06-1.61,2.13-2.36,3.23a72.14,72.14,0,0,0-4.17,6.84,56.53,56.53,0,0,0-3.31,7.41c-.45,1.29-.87,2.63-1.2,3.95a40.92,40.92,0,0,0-.87,4.1l-.15,1,0,.13,0,.26,0,.5c0,.33,0,.66,0,1a10.46,10.46,0,0,0,.78,3.31,17,17,0,0,0,2.76,4.38,40.62,40.62,0,0,0,6.19,5.75c2.09,1.66,4.23,3.14,6.38,4.58,1.08.71,2.16,1.43,3.25,2.11l1.66,1c.57.34,1.08.67,1.73,1l5.07-10.22c-.46-.18-1-.42-1.54-.65l-1.58-.74c-1-.51-2.1-1-3.12-1.59a59.89,59.89,0,0,1-5.83-3.58,28.44,28.44,0,0,1-4.75-4.08,8,8,0,0,1-1.22-1.77c-.05-.2-.07-.29-.06-.24a.06.06,0,0,1,0,0,.09.09,0,0,1,0,.05h0l0-.09.12-.77c.74-4.28,12.7-20.13,12.6-26.69h0a4.75,4.75,0,0,0-5.22-4.68A4.64,4.64,0,0,0,298.86,231Z" style="fill:#407BFF"></path><path d="M298.86,231l-.66.8c-.44.53-.87,1-1.25,1.57-.82,1.06-1.61,2.13-2.36,3.23a72.14,72.14,0,0,0-4.17,6.84,56.53,56.53,0,0,0-3.31,7.41c-.45,1.29-.87,2.63-1.2,3.95a40.92,40.92,0,0,0-.87,4.1l-.15,1,0,.13,0,.26,0,.5c0,.33,0,.66,0,1a10.46,10.46,0,0,0,.78,3.31,17,17,0,0,0,2.76,4.38,40.62,40.62,0,0,0,6.19,5.75c2.09,1.66,4.23,3.14,6.38,4.58,1.08.71,2.16,1.43,3.25,2.11l1.66,1c.57.34,1.08.67,1.73,1l5.07-10.22c-.46-.18-1-.42-1.54-.65l-1.58-.74c-1-.51-2.1-1-3.12-1.59a59.89,59.89,0,0,1-5.83-3.58,28.44,28.44,0,0,1-4.75-4.08,8,8,0,0,1-1.22-1.77c-.05-.2-.07-.29-.06-.24a.06.06,0,0,1,0,0,.09.09,0,0,1,0,.05h0l0-.09.12-.77c.74-4.28,12.7-20.13,12.6-26.69h0a4.75,4.75,0,0,0-5.22-4.68A4.64,4.64,0,0,0,298.86,231Z" style="fill:#fff;opacity:0.7000000000000001"></path></g><path d="M317.35,198.74a4,4,0,0,1,3.22-.6c-.06-1.55,0-3.3,0-4.84a13.69,13.69,0,0,1,1.71,4.63c-.06.17-.49.07-.66,0,1.68-.21,1.92-.05,1.95-1.81,0-.8-.69-2.59-1.46-3a8,8,0,0,1,4.35,4.56,5.78,5.78,0,0,1,3.17-.21c.45-1.39-.42-3-1.5-4a4.73,4.73,0,0,1,2.76,4h2.62a10.49,10.49,0,0,0-4-6.82c-5.89-4.26-11-2.72-12-1.43a6.88,6.88,0,0,0-1.42,4.72A15.77,15.77,0,0,0,317.35,198.74Z" style="fill:#263238"></path><path d="M318.7,192.43a39.5,39.5,0,0,0-3.59,28.31c-3.29-5-5.1-11.07-6-17.07a19.6,19.6,0,0,1,.37-9c1-2.88,3.36-5.42,6.26-5.67a3.89,3.89,0,0,1,2.93.83C319.51,190.47,319.22,191.49,318.7,192.43Z" style="fill:#263238"></path></g><g id="freepik--character-3--inject-40"><path d="M214.67,413.25,225,414.49c8.87-26.2,14.84-52.66,19-70.71,2.28-9.74,4-18.38,5.25-26l1,28L255.91,417l10.35-.55c12.8-125.25-2.74-155.89-2.74-155.89L233.09,257a136.08,136.08,0,0,0-1.61,17L230.66,284l-8.52,61.49Z" style="fill:#407BFF"></path><path d="M214.67,413.25,225,414.49c8.87-26.2,14.84-52.66,19-70.71,2.28-9.74,4-18.38,5.25-26l1,28L255.91,417l10.35-.55C279,289,263.52,260.54,263.52,260.54L233.09,257a136.08,136.08,0,0,0-1.61,17L230.66,284l-8.52,61.49Z" style="fill:#fff;opacity:0.5;isolation:isolate"></path><path d="M244.06,343.78c2.28-9.74,4-18.38,5.25-26a239.28,239.28,0,0,0-3.39-26.68S243.36,325.85,244.06,343.78Z" style="opacity:0.2"></path><path d="M214,412.32l-1.73,12.93a1.47,1.47,0,0,1-1,1.2c-1.38.48-4.18,2.25-5.3,2.45a59.43,59.43,0,0,1-6.08.4,1.48,1.48,0,0,0-1.41,1.17h0a1.49,1.49,0,0,0,1.14,1.75l19,3.13a1.47,1.47,0,0,0,1.74-1.09L225.07,415a1.48,1.48,0,0,0-1.06-1.78l-8.15-2.16A1.48,1.48,0,0,0,214,412.32Z" style="fill:#407BFF"></path><path d="M255.26,414.54l.75,13a1.47,1.47,0,0,1-.63,1.41c-1.21.82-2.66,2.32-3.69,2.81a59.77,59.77,0,0,1-5.78,1.95,1.49,1.49,0,0,0-1,1.49h0a1.47,1.47,0,0,0,1.55,1.4l17.86-.92a1.47,1.47,0,0,0,1.4-1.51l1-19.85a1.48,1.48,0,0,0-1.48-1.45h-8.44A1.48,1.48,0,0,0,255.26,414.54Z" style="fill:#407BFF"></path><g id="freepik--freepik--character-1--inject-4--inject-40"><path d="M246,226.84c1.2.42,14.86-11.26,12.56-12.09-4.56-.67-3.85-5-3.52-7.18a16.85,16.85,0,0,1,1.16-4.62L247,205.19a27.11,27.11,0,0,1,.58,3.91,13.49,13.49,0,0,1,0,2c0,1.27-1.17,3.15-4,2.89C241.61,214.43,244.63,227.11,246,226.84Z" style="fill:#ffc3bd"></path><path d="M223.13,317.77C249.9,327.61,276,322.4,276,322.4c.28-14.38-5-55.4-5-55.4-.08-1.57-.17-3.11-.25-4.66a24.74,24.74,0,0,1-.05-2.58c-.09-11.61,1.3-28.27,4.07-39.54a18.09,18.09,0,0,0-12.24-5.06L261,213.37l-12.19,6.19-5.4-7.49c-.59-1.18-3.07,1.34-3.07,1.34l-9.35.51c-5.89,11.18,0,34.59,0,34.59,0,.73-.11,1.46-.17,2.21C228.71,277,223.13,317.77,223.13,317.77Z" style="fill:#407BFF"></path><path d="M223.13,317.77C249.9,327.61,276,322.4,276,322.4c.28-14.38-5-55.4-5-55.4-.08-1.57-.17-3.11-.25-4.66a24.74,24.74,0,0,1-.05-2.58c-.09-11.61,1.3-28.27,4.07-39.54a18.09,18.09,0,0,0-12.24-5.06L261,213.37l-12.19,6.19-5.4-7.49c-.59-1.18-3.07,1.34-3.07,1.34l-9.35.51c-5.89,11.18,0,34.59,0,34.59,0,.73-.11,1.46-.17,2.21C228.71,277,223.13,317.77,223.13,317.77Z" style="fill:#fff;opacity:0.7000000000000001"></path><path d="M220.42,249.85c.27,2,5.59,11.56,17.8-2.79,1.29-1.51,1-4.11-.15-5.73a5,5,0,0,0-3.4-1.86,6.66,6.66,0,0,0-1.26-.07,72.89,72.89,0,0,0-.17-25.26,6.44,6.44,0,0,0-6.06,1.11,14.66,14.66,0,0,0-3.17,5.29A58.3,58.3,0,0,0,220.42,249.85Z" style="fill:#407BFF"></path><path d="M220.42,249.85c.27,2,5.59,11.56,17.8-2.79,1.29-1.51,1-4.11-.15-5.73a5,5,0,0,0-3.4-1.86,6.66,6.66,0,0,0-1.26-.07,72.89,72.89,0,0,0-.17-25.26,6.44,6.44,0,0,0-6.06,1.11,14.66,14.66,0,0,0-3.17,5.29A58.3,58.3,0,0,0,220.42,249.85Z" style="fill:#fff;opacity:0.7000000000000001"></path><path d="M240.7,238.27c-1.84,3.59-3.51,7.91-5.56,10.58-1.39,1.81-5.86,2.51-7.6,1-1.38-1.18-1.66-5.47.38-8.44,0,0,6.25-4.37,8.47-6.73,1.44-1.54,1.18-7.15,11-8.13a5.27,5.27,0,0,1,2.76,5.8c-.19.58-5.14,3.83-6,4.56A7.64,7.64,0,0,1,240.7,238.27Z" style="fill:#407BFF"></path><path d="M247.53,209.1a13.49,13.49,0,0,1,0,2,10.59,10.59,0,0,0,7.5-3.54,16.85,16.85,0,0,1,1.16-4.62L247,205.19A27.11,27.11,0,0,1,247.53,209.1Z" style="opacity:0.2"></path><path d="M264.31,233.43l-9.54-.7a.67.67,0,0,1-.65-.67s0-.07,0-.11l.83-4.48a.88.88,0,0,1,.9-.67l9.53.7a.66.66,0,0,1,.65.66s0,.07,0,.11l-.83,4.49A.87.87,0,0,1,264.31,233.43Z" style="fill:#fff"></path><path d="M252.24,180.69s-11-1.07-12.7,7.14a15.18,15.18,0,0,0,3.85,13.95Z" style="fill:#263238"></path><path d="M250.31,182.51c-7.54,0-10,4-10.53,11.78-.69,9.7,1.46,16.59,10.87,14.53C263.45,206,262.82,182.53,250.31,182.51Z" style="fill:#ffc3bd"></path><path d="M244.47,193.49a16.36,16.36,0,0,1-2.69,2.7,2.06,2.06,0,0,0,1.82,1.15Z" style="fill:#d4827d"></path><path d="M253.09,190.52a.27.27,0,0,0,.17-.06.29.29,0,0,0,.08-.41,4.26,4.26,0,0,0-3.26-1.8.28.28,0,0,0-.31.28.29.29,0,0,0,.28.31,3.65,3.65,0,0,1,2.8,1.55A.31.31,0,0,0,253.09,190.52Z" style="fill:#263238"></path><path d="M241.67,187.71a.25.25,0,0,0,.14,0,3.18,3.18,0,0,1,2.79-.09.3.3,0,0,0,.39-.15.29.29,0,0,0-.14-.39,3.79,3.79,0,0,0-3.32.11.3.3,0,0,0-.12.4A.29.29,0,0,0,241.67,187.71Z" style="fill:#263238"></path><path d="M258.53,195.23s-3.52-6.19-3-11c0,0-14.92-6.11-15.67,9,0,0-1.44-13.42,11.5-13.75,16-.4,12.87,18.66,6.18,24.3C257.6,203.85,260.7,199.1,258.53,195.23Z" style="fill:#263238"></path><path d="M239.08,196.2c1.24-1.94,9.4-.81,17,.08,0,.11,0,.21,0,.3,1.8-2.74,3.84-3.07,5.34-1-2.07-1.86-3.79-.85-5.23,1.5a21.57,21.57,0,0,1,.38,7c2.08-1.28,3.52-4.07,5-7-1.38,3.43-2.84,6.69-5.12,7.93,0,.22-.07.46-.12.69-3.89,3.69-10.57,4.68-14.19,1.75C239.58,205.3,238.83,201.26,239.08,196.2Z" style="fill:#407BFF"></path><path d="M239.08,196.2c1.24-1.94,9.4-.81,17,.08,0,.11,0,.21,0,.3,1.8-2.74,3.84-3.07,5.34-1-2.07-1.86-3.79-.85-5.23,1.5a21.57,21.57,0,0,1,.38,7c2.08-1.28,3.52-4.07,5-7-1.38,3.43-2.84,6.69-5.12,7.93,0,.22-.07.46-.12.69-3.89,3.69-10.57,4.68-14.19,1.75C239.58,205.3,238.83,201.26,239.08,196.2Z" style="fill:#fff;opacity:0.6000000000000001;isolation:isolate"></path><path d="M248.54,193c-.07.61.11,1.16.52,1.24s.83-.35.94-.95-.1-1.17-.51-1.25S248.66,192.38,248.54,193Z" style="fill:#263238"></path><path d="M249.65,192.09l-1.21-.77S248.87,192.57,249.65,192.09Z" style="fill:#263238"></path><path d="M241.73,192.09c-.07.61.11,1.17.51,1.24s.83-.34,1-1-.12-1.16-.53-1.23S241.85,191.44,241.73,192.09Z" style="fill:#263238"></path><path d="M242.84,191.19l-1.22-.78S242.06,191.66,242.84,191.19Z" style="fill:#263238"></path><path d="M262.72,197.43a5.73,5.73,0,0,1-2.86,3.38c-1.81.88-3.09-.63-2.91-2.53.17-1.72,1.31-4.25,3.28-4.36a2.59,2.59,0,0,1,2.49,3.51Z" style="fill:#ffc3bd"></path><path d="M260.06,198.48c1.15-5.13-2.67-12.79-10.84-13.32-10.35-1.65-9.85,7.8-9.85,7.8s-2.09-7.43,5.15-13c0,0,.26-4.83,13.07-3.42,7,.76,9,8.23,9.27,12.31.49,6.73-5.34,12.58-5.34,12.58.41,1.54-2.89,1.72-2.89,1.72C259.53,201.91,259.71,199.94,260.06,198.48Z" style="fill:#407BFF"></path><path d="M260.06,198.48c1.15-5.13-2.67-12.79-10.84-13.32-10.35-1.65-9.85,7.8-9.85,7.8s-2.09-7.43,5.15-13c0,0,.26-4.83,13.07-3.42,7,.76,9,8.23,9.27,12.31.49,6.73-5.34,12.58-5.34,12.58.41,1.54-2.89,1.72-2.89,1.72C259.53,201.91,259.71,199.94,260.06,198.48Z" style="fill:#fff;opacity:0.7000000000000001"></path></g><path d="M274.68,219.85s11.23,26.16,8.53,37.86-22-1.36-22-1.36l-.64-6.62,10.5.22L267.39,233C267.87,227.94,272.81,221.74,274.68,219.85Z" style="fill:#407BFF"></path><path d="M274.68,219.85s11.23,26.16,8.53,37.86-22-1.36-22-1.36l-.64-6.62,10.5.22L267.39,233C267.87,227.94,272.81,221.74,274.68,219.85Z" style="fill:#fff;opacity:0.7000000000000001"></path><path d="M241.83,231.43l1.84-.05a1,1,0,0,1,1,1v0a1,1,0,0,1-.52.9l.38,16.19a1.15,1.15,0,0,1-1.12,1.18H243a1.17,1.17,0,0,1-1.18-1.13l-.39-16.19a1,1,0,0,1-.56-.87v0A1,1,0,0,1,241.83,231.43Z" style="fill:#407BFF"></path><path d="M243.86,231.11l-2.2.07c-.1,0-.17.17-.17.37l.06,1.78c0,.2.09.36.19.36l2.2-.08c.1,0,.18-.16.17-.36l-.05-1.79C244.05,231.27,244,231.11,243.86,231.11Z" style="fill:#263238"></path><polygon points="241.02 231.56 244.5 231.42 244.46 229.99 240.97 230.13 241.02 231.56" style="fill:#263238"></polygon><path d="M241.83,231.43l1.84-.05a1,1,0,0,1,1,1v0a1,1,0,0,1-.52.9l.38,16.19a1.15,1.15,0,0,1-1.12,1.18H243a1.17,1.17,0,0,1-1.18-1.13l-.39-16.19a1,1,0,0,1-.56-.87v0A1,1,0,0,1,241.83,231.43Z" style="fill:#fff;opacity:0.8"></path><path d="M243,240.91c.47,0,.85-.14.86-.29l.21,8.86a.63.63,0,0,1-.62.65l-.46,0a.66.66,0,0,1-.66-.63l-.21-8.86C242.12,240.81,242.5,240.92,243,240.91Z" style="fill:#263238"></path><path d="M242.1,240.65c0,.16.4.27.88.26s.87-.14.86-.3-.39-.27-.88-.26S242.1,240.5,242.1,240.65Z" style="fill:#407BFF"></path><path d="M242.1,240.65c0,.16.4.27.88.26s.87-.14.86-.3-.39-.27-.88-.26S242.1,240.5,242.1,240.65Z" style="opacity:0.30000000000000004"></path><g style="opacity:0.8"><path d="M243.44,233.41c.13,5.37.26,10.71.39,16.07a.26.26,0,0,1-.52,0q-.18-8-.38-16.08a.26.26,0,0,1,.51,0Z" style="fill:#fff"></path></g><path d="M238.76,245c.83-.86,8.28-.71,9.6-.1,1,.6,4.12,2.53,4.12,2.53l13.43.75.41,11.87-14.57-6.51c-.73.3-9.46-1.18-11.09-2.05S237.93,245.86,238.76,245Z" style="fill:#407BFF"></path><path d="M271.05,250a7.08,7.08,0,0,1,2.66.88,55.37,55.37,0,0,1-5-11.23C269.39,242.9,270.35,246.65,271.05,250Z" style="opacity:0.2"></path><polygon points="232.88 268.85 267.71 270.81 268.05 274.1 232.63 271.97 232.88 268.85" style="opacity:0.2"></polygon></g><g id="freepik--character-2--inject-40"><path d="M166,182.65a2.53,2.53,0,0,1,4.28-1l.11.12a6.06,6.06,0,0,1,.58,6.32,13.88,13.88,0,0,1-4.33,5,6.32,6.32,0,0,1-4.34,1.6c-1.56-.14-4.35-2.33-4.13-6.26.1-1.71.65-3.37.71-5.08a7,7,0,0,0-1.37-4.82,3.53,3.53,0,0,1,1.84,1.18,2.92,2.92,0,0,0-1.71-2.61,5,5,0,0,1,4.61-.53,4.75,4.75,0,0,1,2.65,3.63,3.42,3.42,0,0,0,.43-3.25,3.22,3.22,0,0,0-2.61-1.83c2.33-.37,4.85.94,4.43,4.2A21.92,21.92,0,0,1,166,182.65Z" style="fill:#263238"></path><path d="M166,182.65a2.53,2.53,0,0,1,4.28-1l.11.12a6.06,6.06,0,0,1,.58,6.32,13.88,13.88,0,0,1-4.33,5,6.32,6.32,0,0,1-4.34,1.6c-1.56-.14-4.35-2.33-4.13-6.26.1-1.71.65-3.37.71-5.08a7,7,0,0,0-1.37-4.82,3.53,3.53,0,0,1,1.84,1.18,2.92,2.92,0,0,0-1.71-2.61,5,5,0,0,1,4.61-.53,4.75,4.75,0,0,1,2.65,3.63,3.42,3.42,0,0,0,.43-3.25,3.22,3.22,0,0,0-2.61-1.83c2.33-.37,4.85.94,4.43,4.2A21.92,21.92,0,0,1,166,182.65Z" style="fill:#263238"></path><path d="M166,182.65a2.53,2.53,0,0,1,4.28-1l.11.12a6.06,6.06,0,0,1,.58,6.32,13.88,13.88,0,0,1-4.33,5,6.32,6.32,0,0,1-4.34,1.6c-1.56-.14-4.35-2.33-4.13-6.26.1-1.71.65-3.37.71-5.08a7,7,0,0,0-1.37-4.82,3.53,3.53,0,0,1,1.84,1.18,2.92,2.92,0,0,0-1.71-2.61,5,5,0,0,1,4.61-.53,4.75,4.75,0,0,1,2.65,3.63,3.42,3.42,0,0,0,.43-3.25,3.22,3.22,0,0,0-2.61-1.83c2.33-.37,4.85.94,4.43,4.2A21.92,21.92,0,0,1,166,182.65Z" style="opacity:0.2"></path><g id="freepik--freepik--character-1--inject-22--inject-40"><polygon points="175.44 428.74 182.75 429.15 183.02 421.23 175.71 420.82 175.44 428.74" style="fill:#7f3e3b"></polygon><path d="M183.23,427.64,175,427.5a.62.62,0,0,0-.63.49l-1.55,6.53a1.09,1.09,0,0,0,.83,1.3.91.91,0,0,0,.23,0c2.89,0,4.3-.15,7.94-.09,2.24,0,8,.37,11.13.43s3.54-3,2.28-3.3c-5.67-1.35-9-3.11-10.76-4.78A1.79,1.79,0,0,0,183.23,427.64Z" style="fill:#263238"></path><polygon points="183.02 420.07 182.89 423.75 175.58 423.3 175.71 419.66 183.02 420.07" style="opacity:0.2"></polygon><path d="M196.39,269.62c1.48,8.81-1.13,51.68-3.93,70.59-3.74,25.11-8.15,81.5-8.15,81.5l-9.77-.75s-1.39-59.6,1-79.77c-.69-26-2.72-71.48-2.72-71.48Z" style="fill:#407BFF"></path><path d="M196.39,269.62c1.48,8.81-1.13,51.68-3.93,70.59-3.74,25.11-8.15,81.5-8.15,81.5l-9.77-.75s-1.39-59.6,1-79.77c-.69-26-2.72-71.48-2.72-71.48Z" style="opacity:0.2"></path><path d="M173.91,298c-.23-6.59,4.54-12.37,6.21.11,1,7.93-1.65,21.75-5,31.48C174.76,319.42,174.32,308.07,173.91,298Z" style="opacity:0.2"></path><polygon points="121.72 411.36 127.27 414.89 132.25 406.87 126.71 403.34 121.72 411.36" style="fill:#7f3e3b"></polygon><path d="M128.12,414.76l-6.1-5.61a.53.53,0,0,0-.75,0l-5,4.4a1.25,1.25,0,0,0,0,1.77l0,0c2.15,1.93,3.28,2.74,6,5.22,1.64,1.52,3.62,3.66,5.89,5.77s4.36-.14,3.59-1.22c-3.45-4.87-2.73-6.56-3.11-9.14A2,2,0,0,0,128.12,414.76Z" style="fill:#263238"></path><polygon points="132.25 406.87 130.01 410.47 124.4 406.77 126.7 403.34 132.25 406.87" style="opacity:0.2"></polygon><path d="M181.82,279.74s-9.22,55.65-14.56,76.65c-3.86,15.14-35,52.77-35,52.77l-7.56-4.51s11.76-30,27.93-49.81c1-23.51-1-62.27,8.32-75Z" style="fill:#407BFF"></path><path d="M181.82,279.74s-9.22,55.65-14.56,76.65c-3.86,15.14-35,52.77-35,52.77l-7.56-4.51s11.76-30,27.93-49.81c1-23.51-1-62.27,8.32-75Z" style="opacity:0.2"></path><path d="M191.81,226.92c.65,4.71,1.5,9.3,2.48,13.93s2.09,9.21,3.48,13.79l.25.86.33,1c.22.63.46,1.24.72,1.84.52,1.19,1.13,2.32,1.69,3.41a72.06,72.06,0,0,0,3.91,6.17,96,96,0,0,0,9.14,11,2,2,0,0,0,3.15-2.49v0c-2.45-3.84-4.87-7.8-7-11.74-1.09-2-2.1-4-3-6-.43-1-.83-2-1.17-3-.17-.48-.31-1-.45-1.44l-.18-.71-.19-.79c-1-4.42-1.88-8.92-2.73-13.43s-1.58-9.08-2.32-13.57v0a4.07,4.07,0,1,0-8.05,1.23Z" style="fill:#7f3e3b"></path><path d="M215.77,275.5l5.54,3.54-6.57,3.79s-2.6-3-2-6.24Z" style="fill:#7f3e3b"></path><path d="M221.31,285.6l-3.12.83a1.63,1.63,0,0,1-1.83-.76l-1.62-2.84,6.57-3.79,1.16,4.58A1.63,1.63,0,0,1,221.31,285.6Z" style="fill:#7f3e3b"></path><path d="M199.32,222.58c1.43-.39,5.26,13.06,5.26,13.06l-10.48,9.74s-3.23-13.9-4.6-18.49C188.07,222.13,195.53,219.43,199.32,222.58Z" style="fill:#407BFF"></path><path d="M200.92,226.24c.11,14.69-2.74,26.14-4,36.25-.16,1.28-.41,5.52.84,14.36a214,214,0,0,1,1.45,21.89l-46.15-2.92c1.52-19.8,11.24-31.77,11.23-34.5,0-8.22-.9-16.6-4.47-32.68a6.89,6.89,0,0,1,5.23-8.2,6.17,6.17,0,0,1,.62-.1c1.93-.26,4.08-.49,6.26-.6a102.47,102.47,0,0,1,14.66-.06c3.43.31,7.12.87,9.75,1.32A5.46,5.46,0,0,1,200.92,226.24Z" style="fill:#407BFF"></path><path d="M170.58,242.59l9.56.09a.66.66,0,0,0,.7-.62V242l-.45-4.54a.87.87,0,0,0-.85-.73l-9.55-.1a.65.65,0,0,0-.7.6v.11l.45,4.55A.89.89,0,0,0,170.58,242.59Z" style="fill:#fff"></path><path d="M186.56,219.69s5.2,3.77-.52,12.91q-6.73-6.78-14.13-12.86Z" style="fill:#fff;opacity:0.4;isolation:isolate"></path><path d="M168,271.48h-.87c-.17,0-.31-.1-.3-.2l.4-3.76c0-.1.17-.2.34-.2l.88,0c.17,0,.3.09.29.2l-.39,3.75A.31.31,0,0,1,168,271.48Z" style="fill:#407BFF"></path><path d="M194.09,271.39h-.87c-.18,0-.31-.09-.3-.2l.4-3.76c0-.11.16-.19.33-.2l.88,0c.17,0,.31.08.29.2l-.39,3.74A.32.32,0,0,1,194.09,271.39Z" style="fill:#407BFF"></path><path d="M181.07,271.44l-.88,0c-.17,0-.31-.08-.3-.2l.4-3.75c0-.11.17-.2.34-.19h.88c.17,0,.3.1.29.2l-.39,3.76C181.39,271.35,181.24,271.44,181.07,271.44Z" style="fill:#407BFF"></path><path d="M170.89,281.52l18.1,3a1.42,1.42,0,0,0,1.58-1L198,256.19a1.11,1.11,0,0,0-.91-1.43l-18.1-3a1.44,1.44,0,0,0-1.58,1L170,280.09A1.11,1.11,0,0,0,170.89,281.52Z" style="fill:#263238"></path><path d="M185.32,255.09l4.33.71a1.81,1.81,0,0,0,2-1.28l.68-2.52-7.45-1.22-.69,2.51A1.41,1.41,0,0,0,185.32,255.09Z" style="fill:#263238"></path><path d="M185.32,255.09l4.33.71a1.81,1.81,0,0,0,2-1.28l.68-2.52-7.45-1.22-.69,2.51A1.41,1.41,0,0,0,185.32,255.09Z" style="fill:#fff;opacity:0.7000000000000001"></path><path d="M178.18,251.75l.86.14a1.44,1.44,0,0,0-1.59,1L170,280.18a1.13,1.13,0,0,0,.91,1.44l-.85-.14a1.12,1.12,0,0,1-.91-1.44l7.47-27.27A1.42,1.42,0,0,1,178.18,251.75Z" style="fill:#263238"></path><path d="M178.18,251.75l.86.14a1.44,1.44,0,0,0-1.59,1L170,280.18a1.13,1.13,0,0,0,.91,1.44l-.85-.14a1.12,1.12,0,0,1-.91-1.44l7.47-27.27A1.42,1.42,0,0,1,178.18,251.75Z" style="fill:#fff;opacity:0.7000000000000001"></path><path d="M156.58,229.74c-1.52,3.63-2.88,7.24-4.16,10.95-.63,1.84-1.25,3.68-1.79,5.63a50.51,50.51,0,0,0-1.44,6.07,15.58,15.58,0,0,0-.2,1.93,9.19,9.19,0,0,0,.09,1.48q.06.29.15.57l.09.36a4.32,4.32,0,0,0,.19.45l.12.23,0,.11h0l0,.08.1.16c.62.85,1.15,1.73,1.83,2.54a36,36,0,0,0,4.25,4.65,27.23,27.23,0,0,0,5.2,3.72,19.83,19.83,0,0,0,3,1.34c.52.17,1.05.34,1.59.48l.84.17c.32.06.55.09,1,.14l.58-4a2.74,2.74,0,0,0-.42-.21l-.53-.27c-.35-.18-.71-.4-1.06-.62a21.8,21.8,0,0,1-2.07-1.5,29,29,0,0,1-3.6-3.66c-.53-.7-1.09-1.35-1.58-2.12s-1-1.43-1.44-2.15-.87-1.55-1.32-2.3l0-.15,0-.08h0l0,.07,0,.16a2.61,2.61,0,0,0,.12.28c0,.06,0,.12.05.18l.05.23c0,.18,0,.12,0,0a6.3,6.3,0,0,1,.17-.93c.37-1.53.94-3.33,1.55-5.07s1.24-3.52,1.91-5.28c1.33-3.52,2.71-7.1,4.07-10.6Z" style="fill:#7f3e3b"></path><path d="M165.13,270.4l7.18,2.75,1.14-6.92s-4.19-1-6.77,1Z" style="fill:#7f3e3b"></path><path d="M176.68,272.58l1-2.51a2,2,0,0,0-1.09-2.55l-3.12-1.29-1.14,6.92,1.94.61A2,2,0,0,0,176.68,272.58Z" style="fill:#7f3e3b"></path><path d="M172.5,224.27c2,8.52-11.42,22.8-11.42,22.8L150.21,235.4s5.24-10.72,11.9-14C166.76,219.12,171.62,220.52,172.5,224.27Z" style="fill:#407BFF"></path><path d="M173.3,203.25c.94,4.7,1.9,13.34-1.39,16.49a46.18,46.18,0,0,1,13.7,8.77c3.69-6.5,1-8.83,1-8.83-5.26-1.23-5.14-5.13-4.24-8.79Z" style="fill:#7f3e3b"></path><path d="M174.28,204.08a19.72,19.72,0,0,0,2,8.08c.86,1.73,3.22,2.5,5.6,2.68a12.8,12.8,0,0,1,.45-4Z" style="opacity:0.2"></path><path d="M165.77,197.37c2.32,7.55,3.07,10.79,7.91,13.81,7.21,4.53,16,.08,16-8,0-7.26-3.76-18.38-11.95-19.65a10.75,10.75,0,0,0-12,13.84Z" style="fill:#7f3e3b"></path><path d="M170.73,182c5.05-4.64,10.62-2.78,13.55-1.25a11.86,11.86,0,0,1,5.94,7.56c.31,1.27,0,4.19-2.46,5a12.66,12.66,0,0,0-2.82-3.91c-1.83-1.45-5.24-1.6-6.6-1.2a33,33,0,0,1-5.32,8.61c-2.16,2.39-5.35,4.09-8.54,3.64a13.07,13.07,0,0,1-1.93-13.28C164.53,182.82,170.73,182,170.73,182Z" style="fill:#263238"></path><path d="M164.06,201.63a5.67,5.67,0,0,0,2.81,3.42c1.79.92,3.1-.58,2.94-2.48-.14-1.72-1.24-4.27-3.21-4.41a2.59,2.59,0,0,0-2.7,2.48A2.54,2.54,0,0,0,164.06,201.63Z" style="fill:#7f3e3b"></path><path d="M177.5,197c.15.62.6,1.05,1,1s.61-.68.47-1.3-.6-1-1-1S177.36,196.33,177.5,197Z" style="fill:#263238"></path><path d="M184.55,195.28c.14.63.59,1.05,1,.95s.62-.67.47-1.3-.59-1.05-1-1S184.4,194.65,184.55,195.28Z" style="fill:#263238"></path><path d="M184.85,194.05l1.4-.79S185.75,194.62,184.85,194.05Z" style="fill:#263238"></path><path d="M183,196.79a17.3,17.3,0,0,0,3.16,3.46,2.78,2.78,0,0,1-2.12.94Z" style="fill:#630f0f"></path><path d="M182.46,203.6a.2.2,0,0,0,.07-.2.19.19,0,0,0-.23-.13h0a5.08,5.08,0,0,1-4.52-.83.19.19,0,0,0-.25.28,5.33,5.33,0,0,0,4.87.9Z" style="fill:#263238"></path><path d="M175.36,194.94a.61.61,0,0,0,.12-.16,3,3,0,0,1,2.05-1.78.38.38,0,0,0,.32-.43.39.39,0,0,0-.44-.31h0a3.74,3.74,0,0,0-2.62,2.22.38.38,0,0,0,.21.49A.38.38,0,0,0,175.36,194.94Z" style="fill:#263238"></path><path d="M186.56,192.24l.05-.05a.38.38,0,0,0,0-.53,3.73,3.73,0,0,0-3.24-1,.38.38,0,0,0-.28.45h0a.39.39,0,0,0,.46.28,3,3,0,0,1,2.59.81A.36.36,0,0,0,186.56,192.24Z" style="fill:#263238"></path><path d="M177.8,195.72l1.4-.79S178.71,196.29,177.8,195.72Z" style="fill:#263238"></path></g></g><g id="freepik--character-1--inject-40"><polygon points="109.94 428.44 117.42 428.44 117.74 411.14 110.26 411.14 109.94 428.44" style="fill:#ff887b"></polygon><path d="M117.35,427.58h-8.18a.61.61,0,0,0-.61.51l-1.32,6.62a1.12,1.12,0,0,0,.9,1.31.75.75,0,0,0,.21,0c2.94-.05,7.19-.23,10.89-.23,4.33,0,4.68.24,9.75.24,3.07,0,3.84-3.1,2.55-3.38-5.88-1.28-7.27-1.41-12.39-4.54A3.59,3.59,0,0,0,117.35,427.58Z" style="fill:#263238"></path><polygon points="117.74 411.15 117.57 420.07 110.1 420.07 110.26 411.15 117.74 411.15" style="opacity:0.2"></polygon><path d="M118.34,427.33a.17.17,0,0,1-.13-.1.16.16,0,0,1,.08-.22c.33-.18,3.26-1.68,4.16-1.17a.54.54,0,0,1,.29.45.93.93,0,0,1-.3.85,2.72,2.72,0,0,1-1.79.46A12.89,12.89,0,0,1,118.34,427.33Zm.54-.25c1.64.28,2.84.21,3.28-.2a.6.6,0,0,0,.2-.56.21.21,0,0,0-.11-.19.92.92,0,0,0-.33-.06A9.39,9.39,0,0,0,118.88,427.08Z" style="fill:#407BFF"></path><path d="M118.24,427.32a.21.21,0,0,1-.08-.16c0-.08.18-2.07,1.08-2.84a1.22,1.22,0,0,1,1-.29c.49,0,.67.29.67.48.15.84-1.55,2.43-2.45,2.83h-.07Zm1.23-2.72a4,4,0,0,0-.89,2.27c.89-.54,2-1.79,2-2.29,0,0,0-.19-.35-.19h-.1A.87.87,0,0,0,119.47,424.6Z" style="fill:#407BFF"></path><polygon points="55.31 422.6 62.44 424.83 67.9 408.41 60.77 406.18 55.31 422.6" style="fill:#ff887b"></polygon><path d="M62.63,424l-7.8-2.43a.61.61,0,0,0-.74.3l-3.23,5.92a1.14,1.14,0,0,0,.46,1.53l.2.08c2.82.82,6.93,1.92,10.47,3,4.12,1.29,4.39,1.62,9.23,3.13,2.93.91,4.59-1.81,3.44-2.46-5.23-3-6.51-3.52-10.47-8A3.53,3.53,0,0,0,62.63,424Z" style="fill:#263238"></path><polygon points="67.9 408.42 64.73 417.95 57.6 415.72 60.77 406.19 67.9 408.42" style="opacity:0.2"></polygon><path d="M63.66,424a.15.15,0,0,1-.1-.13.16.16,0,0,1,.14-.19c.37-.07,3.62-.63,4.32.12a.56.56,0,0,1,.15.52.93.93,0,0,1-.55.72,2.71,2.71,0,0,1-1.84-.09A12.24,12.24,0,0,1,63.66,424Zm.58-.08c1.48.76,2.66,1.05,3.2.79a.58.58,0,0,0,.35-.48.2.2,0,0,0,0-.21,1.08,1.08,0,0,0-.3-.16A9.61,9.61,0,0,0,64.24,424Z" style="fill:#407BFF"></path><path d="M63.56,424a.17.17,0,0,1,0-.17c0-.08.78-1.92,1.87-2.39a1.24,1.24,0,0,1,1,0c.45.19.54.48.49.66-.11.85-2.2,1.85-3.18,2l-.07,0Zm2-2.23A4.07,4.07,0,0,0,64,423.68c1-.26,2.5-1.11,2.57-1.6,0-.05,0-.2-.28-.3l-.1,0A.91.91,0,0,0,65.55,421.77Z" style="fill:#407BFF"></path><path d="M137.69,283.58,135.35,276l-6.51,2.08,3.34,8.15S139.05,288,137.69,283.58Z" style="fill:#ff887b"></path><path d="M133.91,283.44l3.78.14,3.78,5.66a2.64,2.64,0,0,1,.36,2.12l-.9,3.73a2.65,2.65,0,0,1-2.94,2l-1.7-.22a2.65,2.65,0,0,1-2.31-2.52l-.18-3.25S130.31,284.44,133.91,283.44Z" style="fill:#ff887b"></path><path d="M108.1,206.46c1,6.85,2.11,6.62,3,13.49s1.82,13.77,2.59,20.53l.13,1.25.1.82c0,.3.08.62.12.86.18,1.12.39,2.05.61,3,.42,1.91.89,3.63,1.37,5.37,1,3.47,5.72,15.44,6.78,18.81,1.74,5.55,1.94,4.68,3.76,10.19a3.64,3.64,0,0,0,4.66,2.29l5.53-1.93a3.64,3.64,0,0,0,2.21-4.66c-1.88-5.33-2.1-4.39-3.78-9.77-1-3.27-5.66-15.16-6.52-18.38-.43-1.62-.83-3.22-1.15-4.78-.15-.75-.29-1.51-.37-2.12,0-.18,0-.3,0-.42l0-.48-.12-1.34c-.6-7.08-.61-4.88-1.26-11.83l-1-10.43c-.53-5.67-5.14-11-10.79-10.33Z" style="fill:#407BFF"></path><path d="M108.1,206.46c1,6.85,2.11,6.62,3,13.49s1.82,13.77,2.59,20.53l.13,1.25.1.82c0,.3.08.62.12.86.18,1.12.39,2.05.61,3,.42,1.91.89,3.63,1.37,5.37,1,3.47,5.72,15.44,6.78,18.81,1.74,5.55,1.94,4.68,3.76,10.19a3.64,3.64,0,0,0,4.66,2.29l5.53-1.93a3.64,3.64,0,0,0,2.21-4.66c-1.88-5.33-2.1-4.39-3.78-9.77-1-3.27-5.66-15.16-6.52-18.38-.43-1.62-.83-3.22-1.15-4.78-.15-.75-.29-1.51-.37-2.12,0-.18,0-.3,0-.42l0-.48-.12-1.34c-.6-7.08-.61-4.88-1.26-11.83l-1-10.43c-.53-5.67-5.14-11-10.79-10.33Z" style="fill:#fff;opacity:0.6000000000000001;isolation:isolate"></path><path d="M122.54,272.55l-1.69,87.67-.45,53.47a2.69,2.69,0,0,1-2.51,2.77H109a2.65,2.65,0,0,1-2.5-2.56c-1.06-12-5.31-31-3.41-53.44,0,0-6.38-58.85-6.77-76.81l1.44-16Z" style="fill:#407BFF"></path><path d="M102,289.46s1,14.79-1.5,38.82c0,0-2.16-17.67-3.36-27.34Z" style="opacity:0.2"></path><path d="M107.07,273.17,88.26,362.58l-18.1,52.09a2.37,2.37,0,0,1-3.09,1.57l-9.28-3.41a2.85,2.85,0,0,1-1.54-3.3c2.62-11.43,4.89-30.4,13.57-50,0,0,5.19-56.72,12.16-87.05Z" style="fill:#407BFF"></path><path d="M88,204.53s.3-.11.93-.27v4.68l17.42,3.16,5.05-3.16v-4.55l.92.14,2.8,2.09s6,12.95,7.39,45.12l.47,24.32H77.27Z" style="fill:#407BFF"></path><path d="M95.64,202.07c1.52-4.72,1.2-11.49.69-15.72l10.23,10.11a12.25,12.25,0,0,0-.65,5.62,2,2,0,0,0,1.77,1.72l4.35,1.36.51,3.37-2.62.68-3.54,2.89-8.51-2.89L88.75,205a17.13,17.13,0,0,1,4.25-.8A3.71,3.71,0,0,0,95.64,202.07Z" style="fill:#ff887b"></path><path d="M100.49,191.25l5.89,5.77a13.83,13.83,0,0,0-.56,3.28c-2.4-.55-5.35-2.81-6.1-5.53C99.22,193.09,99.85,191.4,100.49,191.25Z" style="opacity:0.2;isolation:isolate"></path><path d="M94.79,178.7C95.23,186.47,95.1,191,99,195c5.86,6,15.47,2.48,17.34-5.24,1.7-7,.68-18.5-6.91-21.61a10.58,10.58,0,0,0-13.86,5.7A10.46,10.46,0,0,0,94.79,178.7Z" style="fill:#ff887b"></path><path d="M107.12,180.75c.06.63.44,1.11.85,1.07s.7-.57.64-1.21-.44-1.1-.85-1.06S107.06,180.12,107.12,180.75Z" style="fill:#263238"></path><path d="M114.23,180.22c.06.63.44,1.11.85,1.07s.7-.58.64-1.2-.44-1.12-.85-1.08S114.18,179.59,114.23,180.22Z" style="fill:#263238"></path><path d="M104.35,177.82a.48.48,0,0,1-.18-.07.4.4,0,0,1,0-.53,3.72,3.72,0,0,1,3.27-.88.37.37,0,1,1-.2.72h0a2.93,2.93,0,0,0-2.58.72A.34.34,0,0,1,104.35,177.82Z" style="fill:#263238"></path><path d="M116.93,177.31a.38.38,0,0,1-.36,0,2.93,2.93,0,0,0-2.65-.23.37.37,0,0,1-.5-.16.38.38,0,0,1,.16-.5,3.73,3.73,0,0,1,3.39.24.36.36,0,0,1,.14.49h0A.33.33,0,0,1,116.93,177.31Z" style="fill:#263238"></path><path d="M93.74,183.26l.35.35,1.16-1.16a5.5,5.5,0,0,1,3.91-1.62h3.58a3.83,3.83,0,0,0,7.66-.11.62.62,0,0,1,.78,0,3.91,3.91,0,1,0,0-.56,1.11,1.11,0,0,0-.84,0,3.83,3.83,0,0,0-7.63.18H99.16a6,6,0,0,0-4.26,1.76Zm17.92-2.68a3.36,3.36,0,1,1,3.36,3.36A3.36,3.36,0,0,1,111.66,180.58Zm-8.46,0a3.36,3.36,0,1,1,3.36,3.36A3.36,3.36,0,0,1,103.2,180.58Z" style="fill:#407BFF"></path><path d="M97.43,176.85a9,9,0,0,1-.05,6,2.9,2.9,0,0,0-1.15-.31,1.41,1.41,0,0,0-1.3.54,2,2,0,0,0-.06,1.65c.6,2.46,1.27,4.91,2,7.33a23.79,23.79,0,0,1-6.76-14.69C92.41,177.19,95.12,177.05,97.43,176.85Z" style="fill:#263238"></path><path d="M91,185.93a7.46,7.46,0,0,0,4.59,3.28c2.53.55,3.66-1.73,2.84-4.05-.73-2.08-2.93-4.89-5.41-4.42S89.71,183.87,91,185.93Z" style="fill:#ff887b"></path><path d="M111.18,180.6a21.58,21.58,0,0,0,3.72,4.76,3.64,3.64,0,0,1-2.87,1.11Z" style="fill:#ba4d3c"></path><path d="M90.28,204.13s.15,8.7,10.37,11.65l7.77,4.78,4.86-6.61s1.89-5-3.09-10.21l-1.08-.08a16.51,16.51,0,0,1-2.73,8.44c-.58.88-13.32-7.88-14.08-8.41l0,0Z" style="fill:#407BFF"></path><g style="opacity:0.4;isolation:isolate"><path d="M92.3,203.69l14.39,13.58.56-1a18.61,18.61,0,0,0,1.86-12.59,16.51,16.51,0,0,1-2.73,8.44C105.8,213,93.06,204.22,92.3,203.69Z" style="fill:#fff"></path></g><path d="M109.11,203.67s6.47,2.73,8.85,20.22,3.24,50.3,2.59,65.63-1.51,25.26,3.24,24.61c0,0,.43-24.61,0-52S126.16,204.17,109.11,203.67Z" style="fill:#407BFF"></path><path d="M109.11,203.67s6.47,2.73,8.85,20.22,3.24,50.3,2.59,65.63-1.51,25.26,3.24,24.61c0,0,.43-24.61,0-52S126.16,204.17,109.11,203.67Z" style="fill:#fff;opacity:0.7000000000000001"></path><path d="M89.68,203.67s7.77,4.31,8.63,31.66.58,79.16-8.63,80S70.39,311,70.39,311s.66-9.92,2.38-22.49c1.43-10.49,3.87-22.83,4.82-32.78,1.09-11.51-5.18-43.18-1.15-46.35S89.68,203.67,89.68,203.67Z" style="fill:#407BFF"></path><path d="M89.68,203.67s7.77,4.31,8.63,31.66.58,79.16-8.63,80S70.39,311,70.39,311s.66-9.92,2.38-22.49c1.43-10.49,3.87-22.83,4.82-32.78,1.09-11.51-5.18-43.18-1.15-46.35S89.68,203.67,89.68,203.67Z" style="fill:#fff;opacity:0.7000000000000001"></path><path d="M84,276.49h6.41a3.27,3.27,0,0,1,3.27,3.27V281a0,0,0,0,1,0,0h-13a0,0,0,0,1,0,0v-1.19A3.27,3.27,0,0,1,84,276.49Z" transform="translate(133.86 567.02) rotate(-171.82)" style="fill:#407BFF"></path><path d="M84,276.49h6.41a3.27,3.27,0,0,1,3.27,3.27V281a0,0,0,0,1,0,0h-13a0,0,0,0,1,0,0v-1.19A3.27,3.27,0,0,1,84,276.49Z" transform="translate(133.86 567.02) rotate(-171.82)" style="fill:#fff;opacity:0.6000000000000001"></path><g style="opacity:0.4"><path d="M109.47,247.14a43,43,0,0,0-24.77-7.8,95.68,95.68,0,0,1-4.9,34.27C88,276.92,96,279,104.86,278.36,108.14,268.05,110,258,109.47,247.14Zm-4.89,29.95c-8,.61-15.27-1.31-22.71-4.31a86.48,86.48,0,0,0,4.43-31,39,39,0,0,1,22.45,7.07C109.19,258.61,107.53,267.75,104.58,277.09Z" style="fill:#fff"></path></g><path d="M104.57,277.09c-8,.61-15.25-1.31-22.7-4.31a86.48,86.48,0,0,0,4.43-31,38.9,38.9,0,0,1,22.44,7.07C109.19,258.6,107.53,267.75,104.57,277.09Z" style="opacity:0.7000000000000001"></path><path d="M97.47,260.32c-.46,1.12-1.39,2.31-2,3.51l-.29.06a6.29,6.29,0,0,1-4.22-.8,11.6,11.6,0,0,1-2.56-2.82h0a18,18,0,0,1,7.45-10.16c.15-.09.3.07.43.19a1.38,1.38,0,0,1,.26.46c.37.9.74,1.75,1.07,2.68a3.92,3.92,0,0,1,.4,2.69A9,9,0,0,1,97.47,260.32Z" style="fill:#fff"></path><path d="M94.17,267.16c.09,3,0,2.87-.91,4a2.66,2.66,0,0,1-2.72,1.11,3.92,3.92,0,0,0,.49-.13c-1.11-2.83-3-8.31-3.35-10.88a7.5,7.5,0,0,1,.18-.75H88a10.54,10.54,0,0,0,2.62,2.89,5.44,5.44,0,0,0,4.19.84l.14.08C94.38,264.62,94.15,266.26,94.17,267.16Z" style="fill:#fff"></path><path d="M90.59,272.24a4.34,4.34,0,0,1-.52.09,7.76,7.76,0,0,1-2.91-.21c-2.63-1.89-2.29-4.06-2.08-6.12a9.28,9.28,0,0,1,2.17-5.08c0,.13,0,.26,0,.4A47.39,47.39,0,0,0,90.59,272.24Z" style="fill:#fff"></path><path d="M88.14,260.5a.57.57,0,0,0-.11.11.11.11,0,0,1,0-.05C88.06,260.62,88.1,260.44,88.14,260.5Z" style="fill:#fff"></path><path d="M106.45,261.06l-.13.28c-2.75,5.64-4.8,10.14-5.34,10.66l0,.05c-.56.33-.8-.72-.65-1.84s.53-2.25.72-3.24a7.37,7.37,0,0,0-.56-4.44,14.37,14.37,0,0,1,2-11.37A6.65,6.65,0,0,1,106,254.9C106.6,256.72,107.48,258.83,106.45,261.06Z" style="fill:#fff"></path><path d="M104.66,272.26a1.72,1.72,0,0,1-.78,1.18.74.74,0,0,1-.69,0c-.26-.08-.55-.16-.91-.29a1,1,0,0,1-.53-.33,1.15,1.15,0,0,1-.19-.82c.63-.59,2.35-5,5.32-10.76C106.18,264.84,106.29,268.28,104.66,272.26Z" style="fill:#fff"></path><path d="M101,259.11a17.11,17.11,0,0,1-2-.61,19.12,19.12,0,0,1-3,.65c0-.32.12-.6.09-1l.43-.11c1.32-.36,2.08-1.69,2.32-3.25a64.22,64.22,0,0,0,.82-7.27,2,2,0,0,0-.25-1c0-.47-.37-.74-.6-1.24s0-.69.26-.78,1,.32,1.3.82h0a.69.69,0,0,1,1,.05.94.94,0,0,1,.3.93c-.14.36-.39.41-.44.83a1.46,1.46,0,0,0-.26.75,60.7,60.7,0,0,1-1,7c-.28,1.51-.08,2.83.7,3.13l.27.1C101,258.48,101,258.77,101,259.11Z" style="fill:#fff"></path><path d="M69.8,247l8.79,5.7,5.17-.95a2.63,2.63,0,0,1,1.74.28l3.26,1.78a2.61,2.61,0,0,1,1.34,1.93l.24,1.69a2.6,2.6,0,0,1-.32,1.68l-.86,1.52a2.62,2.62,0,0,1-2.58,1.3l-6.36-.71a2.54,2.54,0,0,1-1.36-.57l-3.53-2.86-11.12-5.64Z" style="fill:#ff887b"></path><path d="M72.38,255.75a2.54,2.54,0,0,1-3.06,1.07c-3.06-1.14-8.66-3.86-11.79-9.36-4.45-7.83,10.11-29.6,14.93-34.73,5.41-5.75,11.36-5.25,11.36-5.25,8-.63,5.19,5.93,1,13.76s-15.3,17.91-16.1,20.16c-.51,1.44,3.57,4.34,6.56,6.23a2.53,2.53,0,0,1,.44,3.93A21.3,21.3,0,0,0,72.38,255.75Z" style="fill:#407BFF"></path><path d="M72.38,255.75a2.54,2.54,0,0,1-3.06,1.07c-3.06-1.14-8.66-3.86-11.79-9.36-4.45-7.83,10.11-29.6,14.93-34.73,5.41-5.75,11.36-5.25,11.36-5.25,8-.63,5.19,5.93,1,13.76s-15.3,17.91-16.1,20.16c-.51,1.44,3.57,4.34,6.56,6.23a2.53,2.53,0,0,1,.44,3.93A21.3,21.3,0,0,0,72.38,255.75Z" style="fill:#fff;opacity:0.7000000000000001"></path><path d="M109.31,189.86a5.24,5.24,0,0,1-3.36-2.43.18.18,0,0,1,.07-.25.21.21,0,0,1,.25.08,5,5,0,0,0,3.79,2.37.17.17,0,0,1,.17.19.18.18,0,0,1-.18.18h0A4.42,4.42,0,0,1,109.31,189.86Z" style="fill:#263238"></path><path d="M104.43,176.87c3-.43,5.29-3.38,5.68-6.41,2.7.66,4.46,3.08,5.86,5.49a1.34,1.34,0,0,0,2,.39,2.09,2.09,0,0,0,.51-1.91,6,6,0,0,0-.87-1.91c-.52-.86-1.05-1.73-1.63-2.56a8.93,8.93,0,0,0-7.47-3.87l-.2,0a11.82,11.82,0,0,0-7.12-1.19c-2.79.33-4.57,1.62-6.68,3.46a17,17,0,0,0-5.77,10.68Z" style="fill:#263238"></path><path d="M88.24,232.79a.32.32,0,0,0,.37-.28.34.34,0,0,0-.12-.31l-1.22-.91a7,7,0,0,1-2.57-7.54l3.6-12.9a4.45,4.45,0,0,1,8.64.31l2.67,13.12a7,7,0,0,1-3.08,7.33l-1.29.84a.32.32,0,0,0-.08.45.33.33,0,0,0,.46.08l1.29-.83a7.69,7.69,0,0,0,3.35-8L97.54,211a5.1,5.1,0,0,0-9.91-.35L84,223.57a7.67,7.67,0,0,0,2.83,8.24l1.23.91A.23.23,0,0,0,88.24,232.79Z" style="fill:#263238"></path><path d="M87.23,213.62a.31.31,0,0,0,.36-.22,5.28,5.28,0,0,1,9.87.34.33.33,0,0,0,.65-.11.08.08,0,0,0,0,0A5.93,5.93,0,0,0,87,213.2a.33.33,0,0,0,.21.41Z" style="fill:#263238"></path><path d="M92.72,207.6h0a.32.32,0,0,0,.35-.28h0c.17-1.61.87-4.46,2.49-5a.33.33,0,1,0-.21-.62h0c-2.35.76-2.85,5-2.89,5.53A.31.31,0,0,0,92.72,207.6Z" style="fill:#263238"></path><path d="M94.68,232.69c0,.62.29,1.13.7,1.14s.75-.47.77-1.08-.28-1.14-.69-1.15S94.7,232.07,94.68,232.69Z" style="fill:#263238"></path><path d="M87.56,232.44c0,.62.29,1.13.7,1.15s.75-.48.77-1.1-.29-1.12-.7-1.14S87.57,231.82,87.56,232.44Z" style="fill:#263238"></path><path d="M107.26,221.76c.07,1.41.89,2.53,1.78,2.47s1.61-1.2,1.55-2.64-.89-2.52-1.78-2.47S107.19,220.35,107.26,221.76Z" style="fill:#263238"></path><path d="M110.1,221.83l.07,0a.33.33,0,0,0,.36-.29c.71-5.49-.81-15.09-3.78-18.71a.33.33,0,0,0-.45-.12.34.34,0,0,0-.12.46.23.23,0,0,0,.07.07c2.86,3.53,4.34,12.8,3.64,18.2A.33.33,0,0,0,110.1,221.83Z" style="fill:#263238"></path><path d="M106.28,221.72c0,1.19.69,2.17,1.56,2.18s1.59-1,1.61-2.17-.7-2.17-1.57-2.17S106.28,220.52,106.28,221.72Z" style="fill:#fff"></path><path d="M106.19,221.81c0,1.48.61,2.68,1.28,2.67s1.2-1.24,1.17-2.73-.61-2.68-1.29-2.67S106.15,220.32,106.19,221.81Z" style="fill:#263238"></path></g><g id="freepik--Text--inject-40"><path d="M222.12,56.52l-5.66,16.93h-2.53l-4.62-13.52-4.62,13.52H202.1l-5.66-16.93h2.49l4.57,13.76,4.77-13.76h2.22l4.67,13.83,4.67-13.83Z" style="fill:#407BFF"></path><path d="M225.46,65c0-5,3.82-8.65,9-8.65s9,3.67,9,8.65-3.82,8.66-9,8.66S225.46,69.94,225.46,65ZM241,65a6.58,6.58,0,1,0-6.55,6.51A6.35,6.35,0,0,0,241,65Z" style="fill:#407BFF"></path><path d="M260.4,73.45l-3.65-5.2c-.34,0-.71,0-1.07,0H251.5v5.15h-2.42V56.52h6.6c4.4,0,7.06,2.22,7.06,5.9A5.33,5.33,0,0,1,259,67.76l4,5.69Zm-.08-11c0-2.42-1.62-3.8-4.71-3.8H251.5v7.62h4.11C258.7,66.24,260.32,64.84,260.32,62.42Z" style="fill:#407BFF"></path><path d="M268.59,56.52H271V71.34h9.17v2.11H268.59Z" style="fill:#407BFF"></path><path d="M284.89,56.52H292c5.44,0,9.14,3.43,9.14,8.46s-3.7,8.47-9.14,8.47h-7.13Zm7,14.82c4.18,0,6.87-2.56,6.87-6.36s-2.69-6.36-6.87-6.36h-4.57V71.34Z" style="fill:#407BFF"></path><path d="M198.54,81.55v23.14h-4.3V94.77h-12v9.92H178V81.55h4.3V91.1h12V81.55Z" style="fill:#407BFF"></path><path d="M224.43,101.09v3.6H207.07V81.55H224v3.6h-12.6v6h11.18v3.54H211.37v6.38Z" style="fill:#407BFF"></path><path d="M246.55,99.34H235l-2.28,5.35h-4.43l10.41-23.14h4.24l10.44,23.14h-4.49ZM245.13,96l-4.36-10.11L236.43,96Z" style="fill:#407BFF"></path><path d="M258.62,81.55h4.3v19.51H275v3.63h-16.4Z" style="fill:#407BFF"></path><path d="M283.29,85.19h-7.67V81.55h19.64v3.64h-7.67v19.5h-4.3Z" style="fill:#407BFF"></path><path d="M321.38,81.55v23.14h-4.29V94.77h-12v9.92h-4.3V81.55h4.3V91.1h12V81.55Z" style="fill:#407BFF"></path><g style="opacity:0.4"><path d="M198.54,81.55v23.14h-4.3V94.77h-12v9.92H178V81.55h4.3V91.1h12V81.55Z"></path><path d="M224.43,101.09v3.6H207.07V81.55H224v3.6h-12.6v6h11.18v3.54H211.37v6.38Z"></path><path d="M246.55,99.34H235l-2.28,5.35h-4.43l10.41-23.14h4.24l10.44,23.14h-4.49ZM245.13,96l-4.36-10.11L236.43,96Z"></path><path d="M258.62,81.55h4.3v19.51H275v3.63h-16.4Z"></path><path d="M283.29,85.19h-7.67V81.55h19.64v3.64h-7.67v19.5h-4.3Z"></path><path d="M321.38,81.55v23.14h-4.29V94.77h-12v9.92h-4.3V81.55h4.3V91.1h12V81.55Z"></path></g><path d="M216.43,112.75h9.51c6.84,0,11.54,4.12,11.54,10.46s-4.7,10.47-11.54,10.47h-9.51Zm9.27,16.95c4.15,0,6.87-2.48,6.87-6.49s-2.72-6.49-6.87-6.49h-4.43v13Z" style="fill:#407BFF"></path><path d="M256.7,129.19H247l-1.86,4.49h-5l9.33-20.93h4.78l9.36,20.93h-5.08Zm-1.52-3.68-3.32-8-3.32,8Z" style="fill:#407BFF"></path><path d="M276.68,126.26v7.42h-4.85V126.2l-8.1-13.45h5.14l5.59,9.3,5.59-9.3h4.76Z" style="fill:#407BFF"></path></g></svg>